<?xml version="1.0" encoding="utf-8"?>
<!-- Generator: Adobe Illustrator 23.0.3, SVG Export Plug-In . SVG Version: 6.00 Build 0)  -->
<svg version="1.1" id="Layer_1" xmlns="http://www.w3.org/2000/svg" xmlns:xlink="http://www.w3.org/1999/xlink" x="0px" y="0px"
	 viewBox="0 0 950.4 951" style="enable-background:new 0 0 950.4 951;" xml:space="preserve">
<style type="text/css">
	.st0{fill-rule:evenodd;clip-rule:evenodd;fill:#007CC2;}
	.st1{fill-rule:evenodd;clip-rule:evenodd;}
	.st2{fill-rule:evenodd;clip-rule:evenodd;fill:#FFFFFF;}
</style>
<g>
	<path class="st0" d="M476,951c263.1,0,475.5-212.4,475.5-475.5S739.1,0,476,0S0.5,212.4,0.5,475.5S212.8,951,476,951z"/>
	<path class="st1" d="M478.6,861.5c211,0,383.3-171,383.3-383.3c0-211-171-383.3-383.3-383.3S95.3,265.8,95.3,478.2
		C95.3,689.2,266.3,861.5,478.6,861.5z"/>
	<path class="st2" d="M737.8,585c-1.3,58.8-10.7,160.3-88.2,160.3s-86.8-54.8-88.2-121.5h-2.7c-37.4,70.8-98.8,121.5-184.3,121.5
		c-69.5,0-130.9-48.1-130.9-120.2c0-134.9,200.4-165.6,315.2-207v-57.4c0-81.5-18.7-132.2-110.9-132.2c-30.7,0-89.5,8-104.2,36.1
		c32.1,9.3,53.4,33.4,53.4,68.1c0,38.7-30.7,65.4-69.5,65.4c-34.7,0-62.8-36.1-62.8-72.1c0-78.8,94.8-128.2,189.7-128.2
		c85.5,0,187,25.4,187,120.2v285.8c0,53.4,0,76.1,25.4,76.1c37.4,0,40.1-72.1,42.7-94.8L737.8,585L737.8,585z M560.1,452.8
		c-74.8,25.4-213.7,72.1-213.7,168.3c0,42.7,36.1,70.8,68.1,70.8c88.2,0,145.6-73.5,145.6-184.3V452.8z"/>
</g>
</svg>
