<?xml version="1.0" encoding="utf-8"?>
<!-- Generator: Adobe Illustrator 23.0.3, SVG Export Plug-In . SVG Version: 6.00 Build 0)  -->
<svg version="1.1" id="layer" xmlns="http://www.w3.org/2000/svg" xmlns:xlink="http://www.w3.org/1999/xlink" x="0px" y="0px"
	 viewBox="0 0 215.5 154.7" style="enable-background:new 0 0 215.5 154.7;" xml:space="preserve">
<style type="text/css">
	.st0{fill:#0091E2;}
</style>
<path class="st0" d="M213.4,58.5c-0.6-0.5-6-4.6-17.6-4.6c-3,0-6.1,0.3-9.1,0.8c-2.2-15.3-14.9-22.7-15.4-23.1l-3.1-1.8l-2,2.9
	c-2.5,3.9-4.4,8.3-5.5,12.8c-2.1,8.7-0.8,16.9,3.6,23.9c-5.3,3-13.9,3.7-15.7,3.8H6.6c-3.7,0-6.7,3-6.7,6.7
	c-0.2,12.4,1.9,24.8,6.2,36.5c4.9,12.8,12.2,22.3,21.6,28.1c10.6,6.5,27.9,10.2,47.4,10.2c8.8,0,17.6-0.8,26.3-2.4
	c12.1-2.2,23.7-6.4,34.4-12.5c8.8-5.1,16.7-11.6,23.4-19.2c11.3-12.7,18-26.9,22.9-39.5c0.7,0,1.3,0,2,0c12.3,0,19.9-4.9,24.1-9.1
	c2.8-2.6,4.9-5.8,6.4-9.4l0.9-2.6L213.4,58.5z"/>
<path class="st0" d="M19.8,69.1h19c0.9,0,1.7-0.7,1.7-1.7l0,0v-17c0-0.9-0.7-1.7-1.7-1.7l0,0h-19c-0.9,0-1.7,0.7-1.7,1.7l0,0v17
	C18.2,68.4,18.9,69.1,19.8,69.1L19.8,69.1"/>
<path class="st0" d="M46,69.1h19c0.9,0,1.7-0.7,1.7-1.7l0,0v-17c0-0.9-0.7-1.7-1.7-1.7l0,0H46c-0.9,0-1.7,0.7-1.7,1.7v17
	C44.4,68.4,45.1,69.1,46,69.1"/>
<path class="st0" d="M72.7,69.1h19c0.9,0,1.7-0.7,1.7-1.7l0,0v-17c0-0.9-0.7-1.7-1.7-1.7l0,0h-19c-0.9,0-1.7,0.7-1.7,1.7l0,0v17
	C71,68.4,71.7,69.1,72.7,69.1L72.7,69.1"/>
<path class="st0" d="M99,69.1h19c0.9,0,1.7-0.7,1.7-1.7v-17c0-0.9-0.7-1.7-1.7-1.7l0,0H99c-0.9,0-1.7,0.7-1.7,1.7l0,0v17
	C97.3,68.4,98.1,69.1,99,69.1L99,69.1"/>
<path class="st0" d="M46,44.8h19c0.9,0,1.7-0.8,1.7-1.7v-17c0-0.9-0.7-1.7-1.7-1.7l0,0H46c-0.9,0-1.7,0.7-1.7,1.7v17
	C44.4,44,45.1,44.8,46,44.8"/>
<path class="st0" d="M72.7,44.8h19c0.9,0,1.7-0.8,1.7-1.7v-17c0-0.9-0.7-1.7-1.7-1.7l0,0h-19c-0.9,0-1.7,0.7-1.7,1.7l0,0v17
	C71,44,71.7,44.8,72.7,44.8"/>
<path class="st0" d="M99,44.8h19c0.9,0,1.7-0.8,1.7-1.7v-17c0-0.9-0.8-1.7-1.7-1.7H99c-0.9,0-1.7,0.7-1.7,1.7l0,0v17
	C97.3,44,98.1,44.8,99,44.8"/>
<path class="st0" d="M99,20.4h19c0.9,0,1.7-0.7,1.7-1.7v-17c0-0.9-0.8-1.7-1.7-1.7H99c-0.9,0-1.7,0.7-1.7,1.7l0,0v17
	C97.3,19.6,98.1,20.4,99,20.4"/>
<path class="st0" d="M125.5,69.1h19c0.9,0,1.7-0.7,1.7-1.7v-17c0-0.9-0.7-1.7-1.7-1.7l0,0h-19c-0.9,0-1.7,0.7-1.7,1.7l0,0v17
	C123.9,68.4,124.6,69.1,125.5,69.1"/>
</svg>
