<svg xmlns="http://www.w3.org/2000/svg" viewBox="0 0 391.44 201.3"><defs><style>.cls-1,.cls-3{fill:#006189;}.cls-2,.cls-4{fill:#e48f00;}.cls-3,.cls-4{fill-rule:evenodd;}.cls-5{font-size:29.38px;fill:#a4a3a3;font-family:HelveticaNeue-MediumExt, HelveticaNeue MediumExt;}</style></defs><title>mysql</title><g id="Слой_2" data-name="Слой 2"><g id="Слой_1-2" data-name="Слой 1"><path class="cls-1" d="M1.65,183.35H14.49V132.64l19.88,44.21c2.35,5.35,5.56,7.24,11.85,7.24s9.38-1.89,11.73-7.24l19.88-44.21v50.71H90.68V132.73c0-4.94-2-7.33-6.05-8.56-9.75-3-16.3-.41-19.26,6.17L45.85,174,27,130.34c-2.84-6.59-9.51-9.22-19.26-6.17-4.07,1.23-6.05,3.62-6.05,8.56v50.63Z"/><path class="cls-1" d="M101.35,142.08h12.84V170c-.12,1.52.49,5.08,7.52,5.19,3.59.06,27.7,0,27.93,0V141.94h12.87c.06,0,0,45.36,0,45.56.07,11.19-13.88,13.62-20.31,13.81H101.63v-8.64c.07,0,40.52,0,40.62,0,8.27-.87,7.29-5,7.29-6.36v-3.37h-27.3c-12.7-.12-20.79-5.66-20.89-12,0-.59.27-28.54,0-28.82Z"/><path class="cls-2" d="M172.4,183.35h36.92a28.49,28.49,0,0,0,11.85-2.47c5.56-2.55,8.27-6,8.27-10.54V161c0-3.7-3.09-7.16-9.14-9.47a31.59,31.59,0,0,0-11-1.89H193.77c-5.19,0-7.66-1.56-8.27-5a3.67,3.67,0,0,1-.12-1.15v-5.84a3.42,3.42,0,0,1,.12-1.07c.62-2.63,2-3.37,6.54-3.79.37,0,.86-.08,1.23-.08h36.67v-8.56H193.89c-5.19,0-7.9.33-10.37,1.07-7.66,2.39-11,6.17-11,12.76v7.49c0,5.76,6.54,10.7,17.53,11.85,1.23.08,2.47.16,3.7.16H207.1a6.88,6.88,0,0,1,1.36.08c4.07.33,5.8,1.07,7,2.55a3.06,3.06,0,0,1,1,2.31v7.49a4.29,4.29,0,0,1-1.85,3,9.1,9.1,0,0,1-5.43,1.81c-.49,0-.86.08-1.36.08H172.4v8.56Z"/><path class="cls-2" d="M309.56,168.45c0,8.81,6.54,13.75,19.76,14.74,1.23.08,2.47.16,3.7.16h33.46v-8.56H332.78c-7.53,0-10.37-1.89-10.37-6.42V124.08H309.56v44.37Z"/><path class="cls-2" d="M237.65,168.9V138.38c0-7.75,5.44-12.46,16.21-13.94a24.5,24.5,0,0,1,3.46-.25H281.7a26.27,26.27,0,0,1,3.59.25c10.77,1.49,16.21,6.19,16.21,13.94V168.9c0,6.29-2.31,9.66-7.64,11.85l12.65,11.42H291.59l-10.23-9.24-10.3.65H257.32a28.45,28.45,0,0,1-7.55-1.07c-8.17-2.23-12.13-6.52-12.13-13.61Zm13.86-.74a5.65,5.65,0,0,0,.25,1.32c.74,3.55,4.08,5.53,9.16,5.53h11.67l-10.72-9.68h14.91l9.35,8.44a6.08,6.08,0,0,0,3.25-4.13,4.21,4.21,0,0,0,.12-1.24V139.12a3.94,3.94,0,0,0-.12-1.15c-.74-3.3-4.08-5.2-9-5.2H260.91c-5.69,0-9.4,2.47-9.4,6.35v29Z"/><path class="cls-1" d="M377.79,109.88c-7.89-.22-13.92.52-19.08,2.69-1.47.62-3.8.63-4,2.47.81.84.93,2.1,1.57,3.14a24.73,24.73,0,0,0,5.16,6.06c2,1.53,4.11,3.17,6.29,4.49,3.86,2.36,8.18,3.7,11.9,6.06,2.19,1.39,4.37,3.14,6.51,4.71,1.06.78,1.77,2,3.14,2.47v-.22c-.72-.92-.91-2.18-1.57-3.14l-2.92-2.92a47.87,47.87,0,0,0-10.33-9.88c-3.07-2.2-9.94-5.18-11.22-8.75l-.22-.22a49.26,49.26,0,0,0,6.73-1.57c3.38-.91,6.39-.67,9.88-1.57l4.71-1.35v-.9c-1.76-1.81-3-4.2-4.94-5.84A144.08,144.08,0,0,0,363.2,93.49c-3.13-2-7-3.26-10.33-4.94-1.12-.56-3.08-.86-3.82-1.8-1.75-2.22-2.7-5-4-7.63-2.82-5.43-5.58-11.35-8.08-17.06-1.7-3.89-2.82-7.73-4.94-11.22C321.81,34.09,310.83,24,293.84,14c-3.61-2.11-8-2.95-12.57-4l-7.41-.45c-1.51-.63-3.08-2.47-4.49-3.37-5.63-3.56-20.07-11.29-24.24-1.12-2.63,6.42,3.94,12.68,6.29,15.94,1.65,2.28,3.76,4.84,4.94,7.41.77,1.69.91,3.38,1.57,5.16,1.63,4.4,3.05,9.18,5.16,13.24a47,47,0,0,0,3.59,6.06c.83,1.13,2.24,1.62,2.47,3.37-1.39,1.94-1.47,5-2.24,7.41-3.51,11.06-2.19,24.81,2.92,33,1.57,2.51,5.25,7.9,10.33,5.84,4.44-1.81,3.44-7.41,4.71-12.35.29-1.12.11-1.94.67-2.69v.22l4,8.08c3,4.81,8.3,9.85,12.79,13.24,2.33,1.76,4.17,4.81,7.18,5.84v-.22h-.22c-.58-.91-1.5-1.29-2.24-2a51.52,51.52,0,0,1-5.16-5.84,136.57,136.57,0,0,1-11-18c-1.57-3-2.94-6.35-4.26-9.43-.51-1.19-.51-3-1.57-3.59-1.45,2.25-3.59,4.07-4.71,6.73-1.8,4.25-2,9.44-2.69,14.81-.39.14-.22,0-.45.22-3.13-.75-4.23-4-5.39-6.73-2.94-7-3.48-18.23-.9-26.26.67-2.08,3.69-8.63,2.47-10.55-.58-1.92-2.51-3-3.59-4.49a35.32,35.32,0,0,1-3.59-6.29c-2.41-5.45-3.53-11.56-6.06-17.06a49.91,49.91,0,0,0-4.94-7.63c-1.86-2.59-3.94-4.5-5.39-7.63-.51-1.11-1.21-2.9-.45-4a1.78,1.78,0,0,1,1.35-1.35c1.3-1,4.93.33,6.29.9a54.71,54.71,0,0,1,9.65,4.94c1.46,1,2.94,2.85,4.71,3.37h2c3.16.73,6.7.23,9.65,1.12a58.34,58.34,0,0,1,14.14,6.73A87.54,87.54,0,0,1,328,56.23c1.16,2.23,1.67,4.37,2.69,6.73,2.07,4.78,4.68,9.69,6.73,14.37s4.06,9.36,7,13.24c1.53,2,7.42,3.13,10.1,4.26,1.88.79,5,1.62,6.73,2.69,3.4,2,6.69,4.49,9.88,6.73,1.59,1.12,6.49,3.58,6.73,5.61Z"/><path class="cls-3" d="M277.45,24.36a16.08,16.08,0,0,0-4,.45V25h.22c.78,1.61,2.17,2.65,3.14,4L279,33.79l.22-.22c1.39-1,2-2.55,2-4.94-.56-.59-.64-1.32-1.12-2-.64-.93-1.88-1.46-2.69-2.24Z"/><path class="cls-4" d="M372.52,174.55a9.46,9.46,0,1,0,9.46-9.46,9.34,9.34,0,0,0-9.46,9.46Zm16.81,0a7.35,7.35,0,1,1-7.34-7.5,7.32,7.32,0,0,1,7.34,7.5Zm-4.79,5.4h2.12l-3.1-4.74c1.67-.18,2.93-1,2.93-3,0-2.19-1.39-3.1-4.06-3.1H378.2V180H380v-4.67h1.69l2.83,4.67ZM380,173.77v-3.11h2.09c1.09,0,2.4.2,2.4,1.46,0,1.51-1.19,1.64-2.55,1.64Z"/><text class="cls-5" transform="translate(0 109.5)">Includes</text></g></g></svg>