<svg width="40" height="40" viewBox="0 0 40 40" fill="none" xmlns="http://www.w3.org/2000/svg">
<g clip-path="url(#clip0)">
<path d="M36.1229 11.0778H26.1004V8.58833H36.1237V11.0778H36.1229V11.0778ZM19.4281 21.2866C20.0748 22.2882 20.398 23.5044 20.398 24.9323C20.398 26.4089 20.0336 27.7335 19.2924 28.9036C18.8208 29.6779 18.2353 30.332 17.5317 30.8585C16.7394 31.4675 15.8014 31.885 14.723 32.1081C13.6411 32.3316 12.4702 32.4445 11.2089 32.4445H0V7.55579H12.0198C15.0496 7.60507 17.1975 8.48287 18.4659 10.2067C19.227 11.264 19.6041 12.5327 19.6041 14.0073C19.6041 15.5289 19.2224 16.7465 18.4539 17.6715C18.0264 18.1901 17.3948 18.6619 16.5588 19.0877C17.8251 19.5513 18.786 20.2814 19.4281 21.2866ZM5.73994 17.3681H11.0065C12.0888 17.3681 12.9637 17.1624 13.6376 16.7512C14.311 16.3406 14.647 15.6108 14.647 14.5629C14.647 13.4052 14.2021 12.6368 13.3102 12.2669C12.5435 12.01 11.5626 11.8776 10.3723 11.8776H5.73994V17.3681ZM15.1541 24.5768C15.1541 23.2839 14.6257 22.3901 13.571 21.9106C12.9812 21.638 12.1491 21.4987 11.0821 21.4887H5.73994V28.1214H10.9995C12.08 28.1214 12.9163 27.98 13.5199 27.6849C14.6083 27.1424 15.1541 26.1098 15.1541 24.5768ZM39.8416 20.5278C39.9626 21.3421 40.0174 22.5235 39.9952 24.0677H27.0149C27.0865 25.8594 27.705 27.1123 28.8781 27.8293C29.5855 28.279 30.4432 28.4985 31.4476 28.4985C32.5066 28.4985 33.3698 28.2308 34.0343 27.6804C34.3963 27.3887 34.7157 26.9769 34.9918 26.4574H39.7495C39.6249 27.5156 39.052 28.5888 38.0225 29.6795C36.4276 31.4131 34.1906 32.2823 31.3178 32.2823C28.9445 32.2823 26.8529 31.5492 25.0374 30.0883C23.228 28.6223 22.3192 26.2448 22.3192 22.9466C22.3192 19.8538 23.1351 17.4866 24.7723 15.8389C26.4155 14.1881 28.5362 13.3665 31.1503 13.3665C32.6997 13.3665 34.0964 13.6434 35.3425 14.2002C36.5846 14.7575 37.6112 15.6347 38.4197 16.8402C39.1514 17.9018 39.622 19.1294 39.8416 20.5278ZM35.1585 20.9922C35.0713 19.7533 34.6576 18.8156 33.9128 18.1748C33.1742 17.5322 32.2514 17.2096 31.1503 17.2096C29.9519 17.2096 29.0266 17.5544 28.3691 18.2322C27.7072 18.9085 27.2953 19.8281 27.1265 20.9923H35.1585V20.9922Z" fill="black"/>
</g>
<defs>
<clipPath id="clip0">
<rect width="40" height="40" fill="white"/>
</clipPath>
</defs>
</svg>
