<svg width="60" height="40" viewBox="0 0 60 40" fill="none" xmlns="http://www.w3.org/2000/svg">
<path d="M2.916 11.094L3.186 12.606C3.666 12.858 4.254 12.984 4.95 12.984C5.562 12.984 6.078 12.858 6.498 12.606C6.918 12.342 7.128 11.982 7.128 11.526C7.128 11.202 6.978 10.92 6.678 10.68C6.378 10.44 6 10.254 5.544 10.122C5.1 9.99 4.614 9.816 4.086 9.6C3.558 9.372 3.066 9.132 2.61 8.88C2.166 8.616 1.794 8.232 1.494 7.728C1.194 7.212 1.044 6.606 1.044 5.91C1.044 4.698 1.464 3.762 2.304 3.102C3.156 2.43 4.26 2.094 5.616 2.094C6.216 2.094 6.846 2.154 7.506 2.274C8.166 2.394 8.676 2.514 9.036 2.634L9.576 2.814L9.486 6.09H7.83L7.38 4.56C6.84 4.38 6.312 4.29 5.796 4.29C5.184 4.29 4.71 4.41 4.374 4.65C4.05 4.89 3.888 5.196 3.888 5.568C3.888 5.892 4.038 6.174 4.338 6.414C4.638 6.654 5.01 6.846 5.454 6.99C5.91 7.122 6.396 7.296 6.912 7.512C7.44 7.728 7.926 7.962 8.37 8.214C8.826 8.466 9.204 8.838 9.504 9.33C9.804 9.822 9.954 10.398 9.954 11.058C9.954 12.366 9.498 13.392 8.586 14.136C7.686 14.868 6.522 15.234 5.094 15.234C4.494 15.234 3.858 15.174 3.186 15.054C2.514 14.946 1.992 14.832 1.62 14.712L1.08 14.55V11.094H2.916ZM20.2953 10.68L14.3193 10.734C14.3673 11.478 14.5833 12.054 14.9673 12.462C15.3633 12.87 15.8673 13.074 16.4793 13.074C16.9233 13.074 17.3973 13.008 17.9013 12.876C18.4053 12.732 18.7953 12.588 19.0713 12.444L19.5033 12.228L20.2773 13.668C20.1453 13.776 19.9593 13.914 19.7193 14.082C19.4793 14.25 18.9993 14.478 18.2793 14.766C17.5593 15.042 16.8573 15.18 16.1733 15.18C14.6493 15.18 13.4853 14.76 12.6813 13.92C11.8893 13.068 11.4933 11.868 11.4933 10.32C11.4933 8.724 11.9193 7.458 12.7713 6.522C13.6233 5.574 14.7993 5.1 16.2993 5.1C17.6193 5.1 18.6333 5.478 19.3413 6.234C20.0493 6.99 20.4033 8.022 20.4033 9.33L20.2953 10.68ZM16.1193 7.206C15.6273 7.206 15.2253 7.374 14.9133 7.71C14.6133 8.046 14.4273 8.496 14.3553 9.06H17.5953C17.5953 7.824 17.1033 7.206 16.1193 7.206ZM21.5128 5.424L25.2388 5.28L25.4008 6.522C25.4968 6.414 25.6288 6.282 25.7968 6.126C25.9648 5.97 26.2648 5.76 26.6968 5.496C27.1408 5.232 27.5428 5.1 27.9028 5.1C28.1908 5.1 28.4668 5.13 28.7308 5.19C29.0068 5.238 29.2108 5.292 29.3428 5.352L29.5228 5.424L29.3788 8.844H27.8128L27.5428 7.314C27.2308 7.314 26.9128 7.398 26.5888 7.566C26.2648 7.734 26.0188 7.902 25.8508 8.07L25.5988 8.322V13.11L27.3088 13.56V15H21.5128V13.56L22.9528 13.11V7.224L21.5128 6.864V5.424ZM30.463 16.98C30.463 16.524 30.619 16.116 30.931 15.756C31.243 15.396 31.555 15.15 31.867 15.018L32.353 14.82C32.269 14.808 32.167 14.784 32.047 14.748C31.927 14.712 31.765 14.592 31.561 14.388C31.369 14.184 31.273 13.932 31.273 13.632C31.273 13.26 31.585 12.582 32.209 11.598C31.285 10.986 30.823 10.05 30.823 8.79C30.823 7.602 31.219 6.69 32.011 6.054C32.815 5.418 33.859 5.1 35.143 5.1C35.947 5.1 36.655 5.244 37.267 5.532L40.363 5.46V6.9L38.887 7.152C38.887 7.164 38.917 7.248 38.977 7.404C39.037 7.548 39.085 7.722 39.121 7.926C39.169 8.13 39.193 8.346 39.193 8.574C39.193 9.822 38.803 10.752 38.023 11.364C37.243 11.964 36.193 12.264 34.873 12.264C34.729 12.264 34.585 12.258 34.441 12.246C34.309 12.234 34.195 12.222 34.099 12.21C34.015 12.186 33.967 12.174 33.955 12.174L33.883 13.38H36.547C37.699 13.38 38.587 13.62 39.211 14.1C39.835 14.58 40.147 15.27 40.147 16.17C40.147 17.202 39.721 18.03 38.869 18.654C38.029 19.278 36.775 19.59 35.107 19.59C33.595 19.59 32.443 19.392 31.651 18.996C30.859 18.6 30.463 17.928 30.463 16.98ZM35.053 6.954C34.033 6.954 33.523 7.524 33.523 8.664C33.523 9.864 34.003 10.464 34.963 10.464C35.515 10.464 35.905 10.32 36.133 10.032C36.373 9.744 36.493 9.288 36.493 8.664C36.493 7.524 36.013 6.954 35.053 6.954ZM35.827 15.36H33.937C33.877 15.384 33.799 15.426 33.703 15.486C33.607 15.546 33.475 15.678 33.307 15.882C33.151 16.086 33.073 16.302 33.073 16.53C33.073 16.962 33.247 17.25 33.595 17.394C33.955 17.538 34.531 17.61 35.323 17.61C36.139 17.61 36.727 17.514 37.087 17.322C37.447 17.13 37.627 16.818 37.627 16.386C37.627 16.002 37.483 15.732 37.195 15.576C36.919 15.432 36.463 15.36 35.827 15.36ZM50.2133 10.68L44.2373 10.734C44.2853 11.478 44.5013 12.054 44.8853 12.462C45.2813 12.87 45.7853 13.074 46.3973 13.074C46.8413 13.074 47.3153 13.008 47.8193 12.876C48.3233 12.732 48.7133 12.588 48.9893 12.444L49.4213 12.228L50.1953 13.668C50.0633 13.776 49.8773 13.914 49.6373 14.082C49.3973 14.25 48.9173 14.478 48.1973 14.766C47.4773 15.042 46.7753 15.18 46.0913 15.18C44.5673 15.18 43.4033 14.76 42.5993 13.92C41.8073 13.068 41.4113 11.868 41.4113 10.32C41.4113 8.724 41.8373 7.458 42.6893 6.522C43.5413 5.574 44.7173 5.1 46.2173 5.1C47.5373 5.1 48.5513 5.478 49.2593 6.234C49.9673 6.99 50.3213 8.022 50.3213 9.33L50.2133 10.68ZM46.0373 7.206C45.5453 7.206 45.1433 7.374 44.8313 7.71C44.5313 8.046 44.3453 8.496 44.2733 9.06H47.5133C47.5133 7.824 47.0213 7.206 46.0373 7.206ZM51.4308 5.424L55.5168 5.28V13.11L56.7768 13.56V15H51.4308V13.56L52.8708 13.11V7.224L51.4308 6.864V5.424ZM52.5288 2.31C52.5288 1.818 52.6788 1.428 52.9788 1.14C53.2908 0.84 53.6568 0.69 54.0768 0.69C55.0848 0.69 55.5888 1.23 55.5888 2.31C55.5888 2.814 55.4328 3.216 55.1208 3.516C54.8208 3.804 54.4728 3.948 54.0768 3.948C53.5848 3.948 53.2008 3.81 52.9248 3.534C52.6608 3.246 52.5288 2.838 52.5288 2.31ZM6.246 37.434V39H0.72V37.434L2.07 36.984V28.434L0.72 27.894V26.4L6.246 26.31V27.894L4.86 28.434V31.53H6.084L9.09 26.4L12.366 26.31V27.894L10.764 28.398L8.388 32.322L11.754 36.984L13.086 37.434V39H7.56V37.434L8.604 37.002L6.174 33.51H4.86V36.984L6.246 37.434ZM13.6863 25.194L17.8443 25.05V37.11L19.5543 37.56V39H13.6863V37.56L15.1263 37.11V26.994L13.6863 26.634V25.194ZM20.3175 29.424L24.4035 29.28V37.11L25.6635 37.56V39H20.3175V37.56L21.7575 37.11V31.224L20.3175 30.864V29.424ZM21.4155 26.31C21.4155 25.818 21.5655 25.428 21.8655 25.14C22.1775 24.84 22.5435 24.69 22.9635 24.69C23.9715 24.69 24.4755 25.23 24.4755 26.31C24.4755 26.814 24.3195 27.216 24.0075 27.516C23.7075 27.804 23.3595 27.948 22.9635 27.948C22.4715 27.948 22.0875 27.81 21.8115 27.534C21.5475 27.246 21.4155 26.838 21.4155 26.31ZM26.7687 29.424L30.4947 29.28L30.6207 30.522C30.7527 30.414 30.9267 30.288 31.1427 30.144C31.3587 29.988 31.7547 29.784 32.3307 29.532C32.9187 29.268 33.4527 29.136 33.9327 29.136C34.7967 29.136 35.4567 29.424 35.9127 30C36.3807 30.564 36.6147 31.344 36.6147 32.34V37.11C36.7707 37.158 36.9927 37.236 37.2807 37.344C37.5687 37.452 37.7667 37.524 37.8747 37.56V39H33.0147V37.56L33.9687 37.11V32.754C33.9687 32.334 33.8547 31.992 33.6267 31.728C33.4107 31.452 33.1167 31.314 32.7447 31.314C32.4087 31.314 32.0787 31.404 31.7547 31.584C31.4427 31.752 31.2087 31.92 31.0527 32.088L30.8187 32.34V37.11L31.7547 37.56V39H26.7687V37.56L28.1547 37.11V31.224L26.7687 30.864V29.424ZM43.7752 29.1C45.2272 29.1 46.3432 29.526 47.1232 30.378C47.9152 31.218 48.3112 32.412 48.3112 33.96C48.3112 35.568 47.8732 36.84 46.9972 37.776C46.1332 38.712 44.9692 39.18 43.5052 39.18C40.4452 39.18 38.9152 37.53 38.9152 34.23C38.9152 32.622 39.3532 31.368 40.2292 30.468C41.1052 29.556 42.2872 29.1 43.7752 29.1ZM43.6852 31.17C43.0012 31.17 42.4972 31.392 42.1732 31.836C41.8612 32.28 41.7052 33.048 41.7052 34.14C41.7052 35.172 41.8552 35.928 42.1552 36.408C42.4552 36.876 42.9352 37.11 43.5952 37.11C44.2552 37.11 44.7412 36.876 45.0532 36.408C45.3652 35.94 45.5212 35.154 45.5212 34.05C45.5212 33.078 45.3712 32.358 45.0712 31.89C44.7832 31.41 44.3212 31.17 43.6852 31.17ZM54.3735 36.3L55.9575 31.044L54.9135 30.81V29.37L59.6295 29.28V30.81L58.6035 31.044L55.7055 39H52.7355L49.8915 31.098L49.0275 30.81V29.37L53.7435 29.28V30.81L52.7355 30.99L54.3735 36.3Z" fill="black"/>
</svg>
