<svg width="518" height="432" viewBox="0 0 518 432" fill="none" xmlns="http://www.w3.org/2000/svg">
<path fill-rule="evenodd" clip-rule="evenodd" d="M162.488 227.063C169.605 190.386 241.626 211.28 288.841 199.942C336.057 188.603 391.917 135.797 428.887 161.664C465.856 187.531 426.521 250.06 341.729 264.17C256.938 278.281 155.37 263.739 162.488 227.063Z" fill="#F2F2F2"/>
<g opacity="0.5">
<path fill-rule="evenodd" clip-rule="evenodd" d="M181.299 55.7627C180.612 56.4487 180.879 58.8865 180.865 59.7886C180.843 61.1931 180.93 62.585 181.047 63.9844C181.126 64.9214 181.569 73.8629 182.803 73.1762C183.498 72.7893 183.062 70.2027 183.061 69.3846C183.058 67.5657 182.982 65.7512 182.861 63.9364C182.748 62.2515 182.678 60.5863 182.743 58.8982C182.758 58.4862 183.144 53.9137 181.299 55.7627Z" fill="#89C5CC"/>
<path fill-rule="evenodd" clip-rule="evenodd" d="M211.199 54.6605C205.301 54.7075 199.404 54.9986 193.509 55.177C190.672 55.2628 187.837 55.3719 185.003 55.5292C184.037 55.5829 181.966 55.2735 181.162 55.7884C179.376 56.9315 182.256 57.1987 183.024 57.1708C194.691 56.7474 206.363 56.1899 218.04 56.1635C223.768 56.1508 229.494 56.314 235.222 56.2773C237.412 56.2634 239.837 55.3193 240.39 57.8699C241.015 60.748 240.297 63.9525 240.102 66.8447C239.972 68.7753 240.018 70.6659 240.105 72.5949C240.161 73.8307 240.016 75.2232 240.234 76.4359C240.444 77.6037 241.283 78.304 242.052 76.9959C242.512 76.2142 242.283 74.2842 242.314 73.3786C242.355 72.159 242.316 70.9398 242.316 69.72C242.316 66.7426 242.736 63.777 242.68 60.8003C242.645 58.8807 242.543 55.4009 240.123 54.9397C237.459 54.4317 234.184 54.9425 231.458 54.9113C224.702 54.8342 217.957 54.6077 211.199 54.6605Z" fill="#89C5CC"/>
<path fill-rule="evenodd" clip-rule="evenodd" d="M194.946 73.283C192.722 73.283 190.498 73.2964 188.274 73.3332C186.366 73.3648 183.367 72.967 181.592 73.6499C180.377 74.1173 180.054 75.475 181.592 75.8366C183.27 76.2312 185.798 75.5862 187.553 75.5552C196.354 75.3997 205.24 75.1971 214.029 75.754C222.265 76.2758 230.659 76.7817 238.907 76.231C239.601 76.1847 243.14 76.0437 241.525 74.7162C240.583 73.9414 236.764 74.451 235.54 74.414C231.221 74.2836 226.898 74.2546 222.58 74.0908C218.319 73.9291 214.077 73.4496 209.815 73.331C204.863 73.1931 199.9 73.283 194.946 73.283Z" fill="#89C5CC"/>
<path fill-rule="evenodd" clip-rule="evenodd" d="M192.721 60.6246C196.187 60.776 199.617 65.8067 196.11 68.2381C192.819 70.5194 186.652 68.0192 188.482 63.5955C188.219 64.2351 188.814 62.9006 188.822 62.8917C189.17 62.4816 189.795 62.0274 190.223 61.7041C190.714 61.334 191.225 60.9267 191.817 60.7412C192.206 60.6195 192.145 61.0775 192.721 60.6246ZM191.032 58.8102C189.41 59.4441 188.669 60.1592 187.554 61.4531C186.783 62.3486 185.799 62.8197 185.808 64.0298C185.81 64.2976 186.154 64.592 186.213 64.8499C186.295 65.2065 186.2 65.6632 186.265 66.042C186.937 69.9507 191.597 71.2685 195.009 70.5305C197.98 69.8877 200.203 67.0332 199.514 63.9293C198.821 60.8048 194.191 57.574 191.032 58.8102Z" fill="#89C5CC"/>
<path fill-rule="evenodd" clip-rule="evenodd" d="M189.587 64.2667C189.587 65.6728 191.807 65.6728 191.807 64.2667C191.807 62.8767 189.587 62.8169 189.587 64.2667Z" fill="#89C5CC"/>
<path fill-rule="evenodd" clip-rule="evenodd" d="M192.364 63.9821C192.364 65.0995 194.128 65.0995 194.128 63.9821C194.128 62.8775 192.364 62.8303 192.364 63.9821Z" fill="#89C5CC"/>
<path fill-rule="evenodd" clip-rule="evenodd" d="M192.91 66.2863C192.346 66.5036 191.629 66.0531 191.165 66.3499C190.344 66.8759 191.167 67.3519 191.608 67.5633C193.589 68.5148 193.942 65.8909 192.91 66.2863Z" fill="#89C5CC"/>
<path fill-rule="evenodd" clip-rule="evenodd" d="M223.176 63.1701C223.117 63.1952 222.907 63.2842 223.176 63.1701V63.1701ZM214.546 61.9079C213.063 62.243 211.81 63.629 210.199 63.4436C208.964 63.3015 208.128 62.109 206.909 61.9357C205.349 61.7138 201.104 65.2738 203.336 65.8846C204.638 66.2412 205.36 63.8602 206.511 63.7337C207.42 63.6337 208.658 64.7502 209.601 64.9092C211.36 65.2058 212.568 64.2362 214.112 63.611C215.79 62.9316 216.745 63.5434 218.204 64.2986C219.356 64.8946 220.441 65.2827 221.759 65.0367C222.996 64.8061 224.55 63.5333 225.795 63.6639C227.015 63.7918 227.885 65.0653 229.139 65.1835C229.657 65.2321 230.426 65.4084 230.339 64.6099C230.27 63.9706 229.557 64.0789 229.111 63.8465C227.964 63.2488 226.891 62.1902 225.507 62.2805C224.466 62.3485 223.518 63.0806 222.558 63.4308C219.415 64.5778 217.648 61.2117 214.546 61.9079Z" fill="#89C5CC"/>
<path fill-rule="evenodd" clip-rule="evenodd" d="M217.171 82.1603C211.109 82.216 205.027 82.3061 198.981 82.7924C197.548 82.9076 182.914 84.2901 182.942 84.3897C182.993 84.574 184.875 84.8554 184.864 84.8989C184.737 84.5841 184.447 84.4537 183.994 84.5082C197.873 84.5082 211.708 83.2647 225.606 83.4884C229.098 83.5445 232.603 83.521 236.092 83.6311C236.963 83.6587 239.122 84.2834 239.806 83.8899C241.602 82.8567 238.34 82.7375 237.799 82.6942C230.96 82.1467 224.03 82.0919 217.171 82.1603Z" fill="#69A1AC"/>
<path fill-rule="evenodd" clip-rule="evenodd" d="M181.145 85.1076C180.239 86.0168 181.074 89.2878 181.109 90.5171C181.161 92.2945 181.118 94.0844 181.274 95.8571C181.452 97.8821 181.728 100.04 182.259 102.004C182.551 103.087 183.578 104.807 183.985 102.84C184.275 101.435 183.834 99.5719 183.681 98.1409C183.475 96.2266 183.426 94.3375 183.418 92.4139C183.411 90.7378 183.379 89.0547 183.242 87.3838C183.17 86.5163 182.734 83.5262 181.145 85.1076Z" fill="#69A1AC"/>
<path fill-rule="evenodd" clip-rule="evenodd" d="M203.947 101.765C199.645 101.839 195.333 101.941 191.039 102.21C189.278 102.32 187.52 102.484 185.766 102.67C185.408 102.708 181.447 102.869 183.217 104.332C184.016 104.992 187.302 104.079 188.387 103.984C190.213 103.824 192.038 103.72 193.869 103.642C198.111 103.462 202.366 103.303 206.612 103.377C214.367 103.511 222.072 103.572 229.829 103.398C230.931 103.374 239.565 103.605 239.858 102.457C240.094 101.533 237.007 101.957 236.444 101.974C234.378 102.035 232.313 102.021 230.247 102.011C221.495 101.966 212.692 101.617 203.947 101.765Z" fill="#69A1AC"/>
<path fill-rule="evenodd" clip-rule="evenodd" d="M238.396 83.5735C238.533 87.4062 239.185 91.2345 239.394 95.0788C239.489 96.8361 239.601 98.5918 239.687 100.35C239.715 100.917 239.486 102.283 240.157 102.609C241.076 103.057 241.2 102.155 241.372 101.546C241.869 99.7841 241.533 97.4961 241.487 95.687C241.444 93.9349 241.441 92.1798 241.312 90.4309C241.179 88.6442 240.82 86.8914 240.653 85.1109C240.583 84.358 240.829 83.105 240.03 82.6377C239.34 82.2338 238.366 82.7428 238.396 83.5735Z" fill="#69A1AC"/>
<path fill-rule="evenodd" clip-rule="evenodd" d="M196.112 89.9491C196.128 89.9617 196.145 89.9744 196.161 89.9872C196.145 89.9744 196.128 89.9619 196.112 89.9491ZM192.456 88.8135C193.819 89.2032 194.939 89.0579 196.241 90.0509C197.321 90.8743 198.428 92.079 198.786 93.4103C199.613 96.4863 196.809 98.172 194.18 98.2052C191.487 98.239 187.5 97.614 187.638 94.1598C187.744 91.506 189.681 88.9166 192.456 88.8135ZM192.552 87.0752C189.017 87.2513 186.165 91.2238 186.196 94.5676C186.233 98.6202 190.822 99.6643 194.082 99.6924C197.761 99.724 201.43 97.1819 200.444 93.0419C199.654 89.7248 195.952 86.8984 192.552 87.0752Z" fill="#69A1AC"/>
<path fill-rule="evenodd" clip-rule="evenodd" d="M188.996 92.5165C188.996 93.6466 190.781 93.6466 190.781 92.5165C190.781 91.3993 188.996 91.3513 188.996 92.5165Z" fill="#69A1AC"/>
<path fill-rule="evenodd" clip-rule="evenodd" d="M192.739 92.0206C192.739 93.1597 194.537 93.1597 194.537 92.0206C194.537 90.8946 192.739 90.8462 192.739 92.0206Z" fill="#69A1AC"/>
<path fill-rule="evenodd" clip-rule="evenodd" d="M190.676 94.5983C189.514 95.7585 193.594 97.7927 194.556 96.1784C195.347 94.8527 193.626 95.2923 193.016 95.2206C192.353 95.1425 191.217 94.0583 190.676 94.5983Z" fill="#69A1AC"/>
<path fill-rule="evenodd" clip-rule="evenodd" d="M223.296 92.044C223.184 92.0909 223.184 92.0909 223.296 92.044V92.044ZM207.975 90.155C206.799 90.3757 202.939 91.6785 202.887 93.0747C202.792 95.6123 206.572 93.0132 207.392 92.6793C209.622 91.7727 210.793 93.6222 213.033 93.7197C214.978 93.8046 216.767 92.1387 218.599 92.3357C220.519 92.542 221.443 94.5859 223.659 93.5007C224.832 92.9267 224.802 92.0418 223.486 91.9583C222.69 91.9079 222.144 92.2369 221.314 91.8944C220.017 91.3591 219.495 90.4873 217.942 90.6258C216.771 90.7302 215.712 91.3909 214.569 91.6466C211.951 92.2319 210.499 89.6819 207.975 90.155Z" fill="#69A1AC"/>
<path fill-rule="evenodd" clip-rule="evenodd" d="M232.328 93.1457C232.248 93.1797 232.248 93.1797 232.328 93.1457V93.1457ZM232.625 92.0891C232.638 92.0948 232.727 92.2179 232.625 92.0891V92.0891ZM231.277 91.2825C231.226 91.3215 231.226 91.3215 231.277 91.2825V91.2825ZM231.306 91.2726C231.568 91.4291 233.67 92.8671 232.143 93.2059C231.368 93.3777 230.727 91.8174 231.306 91.2726ZM230.611 89.6794C227.244 91.2155 230.867 96.7122 233.509 94.4789C234.621 93.5391 234.767 91.6396 233.685 90.6605C233.037 90.0738 231.49 89.2773 230.611 89.6794Z" fill="#69A1AC"/>
<path fill-rule="evenodd" clip-rule="evenodd" d="M199.007 111.34C194.806 111.342 190.568 111.253 186.372 111.503C185.666 111.545 182.977 111.41 182.613 112.149C181.947 113.499 184.715 112.829 185.117 112.788C193.47 111.952 202.196 112.433 210.577 112.672C217.432 112.867 224.249 112.988 231.096 113.341C232.895 113.434 234.693 113.537 236.492 113.645C237.078 113.681 238.553 114.069 238.676 113.133C238.791 112.266 236.951 112.461 236.491 112.437C232.835 112.245 229.182 112.043 225.528 111.837C216.732 111.341 207.817 111.339 199.007 111.34Z" fill="#89C5CC"/>
<path fill-rule="evenodd" clip-rule="evenodd" d="M182.478 112.843C181.693 113.623 182.061 116.603 182.039 117.589C182.001 119.311 181.92 121.033 181.883 122.756C181.845 124.556 181.898 126.364 182.005 128.162C182.049 128.917 182.668 132.565 183.643 130.477C184.078 129.544 183.632 126.946 183.639 125.889C183.651 123.965 183.755 122.049 183.85 120.128C183.933 118.477 183.936 116.824 184.008 115.172C184.031 114.645 184.093 111.222 182.478 112.843Z" fill="#89C5CC"/>
<path fill-rule="evenodd" clip-rule="evenodd" d="M239.383 128.232C235.295 128.651 231.141 128.453 227.037 128.763C223.5 129.03 219.966 129.139 216.42 129.214C208.39 129.384 200.347 129.549 192.34 130.219C190.516 130.371 188.693 130.533 186.864 130.615C185.949 130.656 182.109 130.239 181.823 131.204C181.336 132.848 185.442 132.197 186.328 132.172C188.275 132.115 190.214 131.974 192.156 131.827C200.32 131.204 208.515 131.018 216.696 130.759C221.145 130.619 225.564 130.293 230.003 129.997C232.216 129.849 234.435 129.844 236.647 129.701C237.226 129.664 239.276 129.738 239.692 129.271C239.978 128.951 240.051 128.17 239.383 128.232Z" fill="#89C5CC"/>
<path fill-rule="evenodd" clip-rule="evenodd" d="M237.997 113.122C238.137 117.045 238.359 120.965 238.491 124.888C238.531 126.068 238.175 128.183 238.832 129.223C239.887 130.896 240.711 129.126 240.905 128.083C241.515 124.793 240.859 121.158 240.688 117.848C240.623 116.585 241.015 113.774 240.405 112.644C239.824 111.567 237.945 111.675 237.997 113.122Z" fill="#89C5CC"/>
<path fill-rule="evenodd" clip-rule="evenodd" d="M231.133 118.71C232.7 119.134 232.928 122.542 231.161 122.794C228.53 123.169 229.681 119.412 231.133 118.71ZM230.695 117.355C230.217 117.34 229.114 117.208 228.819 117.597C228.573 117.923 228.822 118.61 228.793 118.92C228.69 120.029 227.789 120.669 228.192 121.978C228.465 122.866 229.197 123.701 230.089 124.009C234.797 125.638 234.739 116.536 230.695 117.355Z" fill="#89C5CC"/>
<path fill-rule="evenodd" clip-rule="evenodd" d="M188.193 117.966C188.181 117.981 188.169 117.996 188.158 118.011C188.169 117.996 188.181 117.981 188.193 117.966ZM191.89 115.998C191.872 115.84 191.853 115.682 191.835 115.525C194.387 116.73 196.418 118.973 195.571 121.983C194.924 124.28 192.588 125.094 190.411 124.527C188.002 123.899 186.85 121.912 187.5 119.472C187.799 118.346 188.72 116.833 189.91 116.471C190.464 116.302 191.688 116.732 191.89 115.998ZM190.398 115.044C189.752 115.088 189.124 115.357 188.597 115.725C189.09 115.308 189.747 115.059 190.398 115.044ZM190.416 113.561C188.821 113.61 187.776 114.576 186.83 115.736C186.533 116.1 185.53 117.066 185.654 117.557C185.752 117.945 186.009 118.512 186.551 118.079C183.715 123.736 191.041 128.56 195.514 124.627C199.688 120.956 195.547 113.389 190.416 113.561Z" fill="#89C5CC"/>
<path fill-rule="evenodd" clip-rule="evenodd" d="M188.967 118.815C188.967 119.568 190.136 119.568 190.136 118.815C190.136 118.062 188.967 118.062 188.967 118.815Z" fill="#89C5CC"/>
<path fill-rule="evenodd" clip-rule="evenodd" d="M190.961 118.944C190.961 119.709 192.149 119.709 192.149 118.944C192.149 118.178 190.961 118.178 190.961 118.944Z" fill="#89C5CC"/>
<path fill-rule="evenodd" clip-rule="evenodd" d="M191.866 121.632C191.311 121.677 189.277 121.488 188.92 121.975C188.324 122.788 189.276 122.817 189.743 122.905C190.165 122.984 191.995 122.939 192.253 122.565C192.481 122.234 192.428 121.584 191.866 121.632Z" fill="#89C5CC"/>
<path fill-rule="evenodd" clip-rule="evenodd" d="M216.363 119.522C216.268 119.561 216.268 119.561 216.363 119.522V119.522ZM208.681 118.96C207.429 119.052 206.369 119.772 205.172 120.06C203.895 120.367 203.342 119.802 202.181 119.433C200.972 119.048 200.113 119.2 199.142 120.026C198.592 120.494 197.385 121.571 197.728 122.402C198.516 124.304 200.298 121.209 201.137 121.065C202.445 120.841 203.608 121.985 205.117 121.658C206.483 121.361 207.696 120.422 209.123 120.412C210.317 120.404 211.442 121.057 212.62 121.215C214.419 121.457 215.601 120.818 217.264 120.343C218.706 119.932 219.717 120.474 221.073 120.931C221.693 121.139 223.762 121.897 223.381 120.522C223.273 120.134 220.548 119.44 220.125 119.306C218.635 118.835 217.691 119.018 216.271 119.56C215.087 120.012 214.092 120.232 212.822 119.983C211.424 119.709 210.152 118.848 208.681 118.96Z" fill="#89C5CC"/>
</g>
<g opacity="0.5">
<path fill-rule="evenodd" clip-rule="evenodd" d="M266.268 55.911C266.47 51.5624 266.748 47.2198 266.895 42.8686C266.967 40.7124 267.024 38.556 267.079 36.3994C267.091 35.9192 267.104 35.4392 267.114 34.959C267.15 33.3275 266.957 33.1941 268.597 33.0493C275.917 32.4028 283.265 32.1885 290.594 31.6036C299.432 30.8981 308.316 30.411 317.179 30.1927C321.118 30.0955 325.073 29.8942 329.012 30.0167C329.885 30.0438 331.599 29.8166 331.942 30.4955C332.091 30.7888 331.779 31.798 331.74 32.1364C331.616 33.1937 331.501 34.2545 331.43 35.317C331.011 41.5835 331.261 48.0079 332.473 54.1793C329.629 52.5742 326.035 51.1936 322.719 51.4676C319.339 51.7469 316.81 53.7012 314.105 55.4999C312.574 56.5172 312.058 56.7847 310.532 55.7992C309.216 54.9498 307.971 53.9786 306.73 53.0255C304.814 51.5545 303.006 49.9595 301.148 48.4174C297.733 45.5819 293.027 41.546 288.309 42.7343C284.939 43.5833 281.826 45.4369 278.901 47.251C274.555 49.9461 270.62 53.2467 266.268 55.911ZM324.847 28.0855C308.054 28.0855 291.386 29.7145 274.641 30.5957C272.892 30.6877 271.149 30.8232 269.406 30.9915C268.245 31.1037 265.405 30.6326 264.643 31.6256C264.136 32.2881 264.572 32.3876 264.643 33.017C264.734 33.8104 264.68 34.7503 264.657 35.5901C264.601 37.6134 264.542 39.6365 264.496 41.66C264.323 49.3078 264.215 56.9541 264.524 64.5998C264.591 66.2672 265.199 68.5759 264.866 70.1962C264.626 71.3693 263.822 72.0832 265.676 72.3C267.501 72.5134 269.732 71.9706 271.558 71.7969C273.395 71.6219 275.231 71.4321 277.07 71.2804C285.065 70.6211 293.138 70.7208 301.154 70.5017C309.243 70.2807 317.334 70.2665 325.425 70.2621C328.811 70.2602 332.679 70.4506 335.982 69.5183C337.145 69.1902 337.332 69.0286 337.046 67.8748C336.991 67.6558 336.641 67.575 336.537 67.1793C336.398 66.6407 336.469 65.9861 336.437 65.4255C336.33 63.5946 336.292 61.7604 336.206 59.9283C336.062 56.8672 335.535 53.8964 335.145 50.8661C334.695 47.3665 334.718 43.8132 334.709 40.2907C334.704 38.3368 334.754 36.3895 334.911 34.4411C335.011 33.1914 335.626 31.3257 335.314 30.1603C335.159 29.58 334.905 29.1199 334.301 28.8701C333.919 28.7118 333.597 28.8357 333.219 28.7956C332.771 28.748 332.491 28.685 331.954 28.5633C329.653 28.0414 327.192 28.0855 324.847 28.0855Z" fill="#69A1AC"/>
<path fill-rule="evenodd" clip-rule="evenodd" d="M315.553 36.4054C315.552 37.6232 315.362 39.4203 315.923 40.5671C316.635 42.0217 317.525 41.567 317.761 40.2001C317.896 39.4169 317.893 37.099 317.641 36.4054C317.286 35.4235 315.553 34.7547 315.553 36.4054Z" fill="#89C5CC"/>
<path fill-rule="evenodd" clip-rule="evenodd" d="M317.595 36.8756C316.453 36.9159 313.125 36.6414 312.352 37.5607C311.026 39.1375 313.334 39.4168 314.326 39.3285C315.473 39.2264 319.017 39.4755 319.785 38.5552C321.07 37.0155 318.494 36.8428 317.595 36.8756Z" fill="#89C5CC"/>
<path fill-rule="evenodd" clip-rule="evenodd" d="M273.256 77.5603C278.279 78.4334 276.716 86.097 271.963 84.3219C270.307 83.7034 267.867 81.9162 268.782 79.8105C269.466 78.2372 271.694 77.4104 273.256 77.5603ZM271.176 75.1775C267.909 75.7278 265.676 79.2652 266.796 82.3509C267.876 85.3277 271.975 87.5076 274.997 86.4378C277.883 85.4164 279.322 81.575 278.349 78.7648C277.333 75.8286 274.022 74.6981 271.176 75.1775Z" fill="#89C5CC"/>
<path fill-rule="evenodd" clip-rule="evenodd" d="M301.729 78.4567C300.479 78.5606 299.398 79.4367 298.14 79.5919C296.963 79.7369 295.988 79.3341 294.886 79.012C293.554 78.623 292.333 78.4518 290.972 78.7975C289.932 79.0619 288.906 79.7699 287.826 79.8554C285.701 80.0233 283.23 77.5965 281.57 80.3413C280.775 81.6571 281.93 82.5047 283.12 81.8911C284.361 81.2515 283.752 81.0224 285.29 81.4003C286.574 81.7153 287.612 81.8864 288.898 81.4449C290.063 81.0451 291.086 80.3133 292.352 80.2311C293.592 80.1507 294.671 80.7158 295.856 80.9596C297.313 81.2594 298.603 81.0325 299.984 80.5754C301.297 80.1406 301.821 79.9028 303.147 80.2906C303.986 80.5363 305.819 81.3167 306.636 80.6878C308.049 79.6006 306.158 79.4416 305.413 79.2871C304.214 79.0386 302.974 78.3548 301.729 78.4567Z" fill="#89C5CC"/>
<path fill-rule="evenodd" clip-rule="evenodd" d="M330.349 77.7263C330.359 77.734 330.369 77.7417 330.378 77.7494C330.369 77.7417 330.358 77.734 330.349 77.7263ZM329.121 77.4693C330.947 77.587 332.921 80.9151 330.502 81.0331C328.799 81.1164 326.894 78.2021 329.121 77.4693ZM328.865 74.746C323.091 76.3592 325.731 84.5038 331.299 83.563C333.829 83.1356 334.686 80.2033 333.85 78.0328C333.491 77.1005 332.79 76.3145 331.954 75.778C331.336 75.3822 329.57 74.5494 328.865 74.746Z" fill="#89C5CC"/>
<path fill-rule="evenodd" clip-rule="evenodd" d="M301.93 91.7489C307.01 91.5745 312.091 91.4 317.176 91.3528C319.933 91.3273 322.673 91.3755 325.426 91.5335C326.646 91.6036 327.866 91.6712 329.087 91.7229C329.298 91.7318 329.589 91.7175 329.911 91.7017C330.666 91.6645 331.59 91.619 332.024 91.8488C334.453 93.1349 329.504 93.2759 328.902 93.2658C327.555 93.2431 326.209 93.1765 324.863 93.1099C323.686 93.0517 322.51 92.9935 321.332 92.9646C313.778 92.7789 306.178 93.1185 298.611 93.4566C296.876 93.5341 295.143 93.6116 293.413 93.6826C291.576 93.758 289.739 93.8068 287.903 93.8557L287.903 93.8557L287.903 93.8557C285.278 93.9254 282.653 93.9952 280.028 94.1427C279.025 94.1991 278.023 94.2588 277.021 94.3185L277.021 94.3185L277.021 94.3185C275.585 94.404 274.149 94.4895 272.713 94.5652C271.589 94.6246 270.464 94.6821 269.338 94.7105C269.135 94.7156 268.871 94.7438 268.583 94.7746L268.583 94.7746C267.884 94.8491 267.045 94.9388 266.591 94.7532C266.045 94.5298 265.604 94.2175 265.904 93.5556C266.158 92.996 267.08 93.0631 267.752 93.1121C267.936 93.1254 268.101 93.1374 268.229 93.1349C270.378 93.0932 272.522 92.9725 274.667 92.8411C275.452 92.793 276.237 92.7436 277.021 92.6942L277.021 92.6942L277.021 92.6942C281.105 92.4372 285.186 92.1803 289.28 92.1105C293.498 92.0385 297.714 91.8937 301.93 91.7489ZM328.463 125.207L329.924 125.189C330.678 125.255 331.016 126.047 330.531 126.656C330.161 127.122 328.734 127.143 327.803 127.157C327.546 127.161 327.326 127.164 327.178 127.176C324.75 127.371 322.326 127.459 319.891 127.482C314.762 127.531 309.652 127.751 304.532 128.043C299.291 128.342 294.045 128.455 288.798 128.567C284.939 128.65 281.079 128.733 277.221 128.89C275.011 128.98 272.802 129.047 270.591 129.105C270.354 129.111 270.038 129.145 269.681 129.184L269.68 129.184L269.68 129.184C268.284 129.335 266.255 129.554 265.795 128.444C265.387 127.46 265.954 127.006 266.784 126.8C266.653 126.217 266.677 125.398 266.691 124.928C266.695 124.787 266.698 124.678 266.696 124.616C266.675 124.027 266.661 123.438 266.646 122.85C266.63 122.183 266.613 121.516 266.588 120.849C266.564 120.244 266.543 119.638 266.521 119.032C266.435 116.642 266.35 114.246 266.166 111.865C266.081 110.767 265.946 109.681 265.812 108.597C265.597 106.866 265.384 105.139 265.374 103.372C265.372 103.055 265.356 102.657 265.338 102.209C265.246 99.9145 265.101 96.2877 266.524 95.1833C269.034 93.7181 268.538 97.9472 268.316 99.8345C268.28 100.146 268.251 100.394 268.244 100.542C268.1 103.68 268.295 106.68 268.611 109.799C268.824 111.905 268.7 114.004 268.575 116.107C268.53 116.858 268.486 117.609 268.457 118.361C268.442 118.734 268.429 119.106 268.417 119.478C268.377 120.622 268.338 121.766 268.251 122.909C268.242 123.033 268.239 123.27 268.235 123.573C268.224 124.428 268.206 125.808 268.023 126.645C268.412 126.628 268.79 126.632 269.102 126.635H269.102H269.103C269.301 126.638 269.473 126.639 269.605 126.635C270.204 126.617 270.803 126.6 271.402 126.582C273.171 126.53 274.941 126.478 276.71 126.412C280.887 126.255 285.064 126.202 289.242 126.15H289.242H289.242C294.176 126.088 299.11 126.026 304.042 125.791C312.17 125.405 320.326 125.306 328.463 125.207H328.463H328.463ZM329.971 94.5247C329.967 99.9008 330.382 105.129 330.868 110.484C331.168 113.796 331.409 117.121 331.6 120.441C331.609 120.595 331.608 120.851 331.606 121.173V121.173C331.596 123.009 331.575 126.965 333.389 126.019C334.758 125.304 334.232 121.161 333.941 118.868C333.877 118.365 333.824 117.951 333.805 117.682C333.766 117.108 333.726 116.535 333.687 115.961L333.687 115.961C333.505 113.299 333.322 110.64 333.083 107.982L333.032 107.421C332.754 104.35 332.477 101.282 332.427 98.1966C332.423 97.9415 332.448 97.5861 332.475 97.1847C332.556 96.0232 332.662 94.4767 332.18 93.8597C331.502 92.9919 329.973 93.2485 329.971 94.5247Z" fill="#69A1AC"/>
<path fill-rule="evenodd" clip-rule="evenodd" d="M302.162 107.704C308.651 104.766 315.216 101.794 321.964 99.6783C322.451 99.5256 322.76 100.029 322.649 100.451C322.535 100.886 321.479 101.258 320.779 101.504C320.57 101.577 320.392 101.64 320.281 101.689C319.339 102.111 318.394 102.527 317.449 102.943C316.481 103.369 315.513 103.795 314.548 104.226C312.541 105.124 310.533 106.017 308.524 106.91C306.373 107.867 304.221 108.823 302.072 109.785C301.991 109.821 301.91 109.858 301.828 109.894C304.75 110.933 307.655 112.019 310.548 113.137C311.536 113.519 312.521 113.909 313.507 114.299C314.064 114.52 314.621 114.741 315.179 114.96C315.361 115.031 315.677 115.128 316.058 115.244C317.296 115.623 319.213 116.208 319.354 116.8C319.585 117.763 316.939 116.831 315.941 116.479C315.809 116.433 315.705 116.396 315.641 116.376C314.168 115.905 312.713 115.38 311.258 114.855L311.057 114.783C309.904 114.367 308.753 113.947 307.602 113.527C305.353 112.707 303.105 111.886 300.844 111.099C300.524 110.988 300.205 110.877 299.885 110.766C296.256 112.397 292.635 114.043 289.026 115.716C287.091 116.612 285.166 117.53 283.247 118.46C282.828 118.663 282.309 118.977 281.746 119.318C280.395 120.135 278.787 121.107 277.681 121.083C277.088 121.07 276.688 120.943 276.626 120.223C276.562 119.481 277.514 119.092 278.198 118.812C278.362 118.745 278.511 118.684 278.626 118.626C280.678 117.599 282.742 116.599 284.812 115.611C288.924 113.648 293.074 111.764 297.239 109.918C297.263 109.907 297.287 109.896 297.311 109.886C295.001 109.104 292.685 108.34 290.363 107.592C290.132 107.518 289.656 107.386 289.032 107.213C286.081 106.395 279.794 104.653 280.074 103.635C280.395 102.471 286.289 104.599 288.898 105.541C289.387 105.717 289.761 105.852 289.961 105.916C293.08 106.911 296.191 107.934 299.286 109.003C300.243 108.573 301.202 108.139 302.162 107.704Z" fill="#89C5CC"/>
<path fill-rule="evenodd" clip-rule="evenodd" d="M274.358 133.271C276.257 133.605 277.597 135.428 277.389 137.337C277.107 139.917 274.537 141.1 272.163 140.763C269.47 140.381 268.903 138.103 270.208 135.911C270.497 135.425 270.83 134.845 271.355 134.589C271.716 134.413 272.176 134.569 272.467 134.427C273.486 133.931 272.873 133.14 274.358 133.271ZM273.493 131.586C271.175 131.882 266.892 134.566 267.109 137.251C267.297 137.563 267.58 137.69 267.958 137.634C267.867 138.215 267.897 138.791 268.047 139.36C268.267 140.099 268.706 140.705 269.295 141.186C270.507 142.177 272.164 142.421 273.673 142.247C276.491 141.923 278.713 139.995 278.871 137.062C279.025 134.199 276.528 131.203 273.493 131.586Z" fill="#89C5CC"/>
<path fill-rule="evenodd" clip-rule="evenodd" d="M284.719 135.08C283.679 135.632 282.034 136.479 281.424 137.526C280.78 138.633 281.447 139.843 282.804 139.32C283.882 138.904 284.567 137.584 285.717 137.161C286.731 136.788 287.14 136.978 288.212 137.35C289.317 137.733 290.283 138.103 291.477 138.009C292.978 137.891 294.278 137.02 295.747 136.822C296.984 136.655 298.004 137.137 299.189 137.328C300.563 137.551 301.462 137.03 302.748 136.759C303.623 136.575 305.164 137.325 305.802 137.044C307.237 136.413 305.719 135.641 304.925 135.386C303.587 134.957 302.764 135.336 301.492 135.692C300.11 136.079 299.513 135.788 298.193 135.433C295.521 134.715 293.457 136.452 290.925 136.136C288.58 135.843 287.177 133.778 284.719 135.08Z" fill="#89C5CC"/>
<path fill-rule="evenodd" clip-rule="evenodd" d="M328.407 133.797C330.979 136.209 328.09 139.642 325.254 137.714C324.256 137.035 324.24 135.945 325.017 134.97C325.727 134.078 327.288 133.73 328.407 133.797ZM327.454 131.847C325.051 132.315 322.785 133.418 322.567 136.193C322.355 138.9 325.13 140.157 327.461 139.98C332.695 139.581 332.317 130.906 327.454 131.847Z" fill="#89C5CC"/>
</g>
<path opacity="0.5" fill-rule="evenodd" clip-rule="evenodd" d="M384.366 41.9319C382.444 41.969 377.698 42.6685 376.993 44.9434C376.457 46.6702 378.048 46.2911 378.901 45.6627C380.054 44.813 381.066 44.3045 382.495 44.046C387.94 43.0606 393.171 46.5943 398.563 47.0412C400.606 47.2105 403.071 47.3208 405.021 46.6589C406.41 46.1876 406.591 45.1598 405.006 45.0032C403.66 44.8703 402.169 45.2894 400.789 45.2774C395.076 45.2286 389.997 41.8244 384.366 41.9319Z" fill="#C1DEE2"/>
<g opacity="0.5">
<path fill-rule="evenodd" clip-rule="evenodd" d="M182.434 149.968C178.757 150.01 175.082 150.145 171.412 150.378C167.922 150.599 164.136 150.431 160.703 151.108C159.728 151.3 158.411 152.189 159.707 153.167C160.618 153.854 163.952 153.064 165.04 152.997C169.046 152.75 173.055 152.455 177.067 152.313C180.865 152.179 184.663 152.132 188.463 152.094C189.044 152.088 190.007 151.902 190.584 152.07C191.415 152.313 191.218 152.379 191.28 153.433C191.392 155.343 191.361 157.261 191.323 159.173C191.287 161.023 191.218 162.874 191.225 164.725C191.23 166.046 190.808 168.67 191.47 169.817C192.424 171.468 193.413 169.675 193.484 168.578C193.62 166.48 193.559 164.355 193.56 162.254C193.56 160.282 193.574 158.31 193.505 156.339C193.454 154.915 193.658 152.429 192.891 151.134C192.11 149.816 190.231 150.1 188.859 150.038C186.719 149.939 184.576 149.946 182.434 149.968Z" fill="#89C5CC"/>
<path fill-rule="evenodd" clip-rule="evenodd" d="M159.039 152.348C159.043 156.054 158.615 159.734 158.495 163.436C158.439 165.138 158.328 167.006 158.758 168.677C159.192 170.364 160.572 170.729 160.731 168.846C161.052 165.033 160.973 161.079 161.224 157.235C161.312 155.878 161.888 153.391 161.351 152.12C160.877 151.001 159.037 150.786 159.039 152.348Z" fill="#89C5CC"/>
<path fill-rule="evenodd" clip-rule="evenodd" d="M193.52 168.682C187.134 169.528 180.458 169.219 174.027 169.352C170.941 169.416 167.856 169.42 164.77 169.452C163.693 169.463 160.958 169.054 160.027 169.659C158.544 170.624 160.153 171.368 161.135 171.389C167.225 171.523 173.382 171.243 179.471 171.043C182.207 170.953 184.951 170.909 187.68 170.676C189.359 170.533 191.195 170.394 192.826 169.943C193.173 169.846 193.93 169.866 194.008 169.392C194.056 169.099 193.969 168.62 193.52 168.682Z" fill="#89C5CC"/>
<path fill-rule="evenodd" clip-rule="evenodd" d="M166.966 174.068C165.191 174.079 159.843 173.254 159.108 174.985C158.128 177.295 161.95 176.756 162.978 176.73C165.313 176.67 167.647 176.663 169.982 176.664C172.274 176.665 174.565 176.65 176.857 176.596C177.52 176.58 179.065 176.856 179.447 176.056C179.738 175.448 179.508 174.968 178.973 174.647C177.685 173.872 174.339 174.321 172.831 174.251C170.879 174.161 168.92 174.068 166.966 174.068Z" fill="#89C5CC"/>
<path fill-rule="evenodd" clip-rule="evenodd" d="M188.557 174.496C187.543 174.556 185.491 174.138 184.583 174.602C183.55 175.13 183.914 175.957 184.805 176.32C185.423 176.572 187.956 176.44 188.557 176.148C189.184 175.844 189.893 174.414 188.557 174.496Z" fill="#89C5CC"/>
<path fill-rule="evenodd" clip-rule="evenodd" d="M199.677 152.712C198.594 153.009 198.923 159.163 198.895 160.139C198.818 162.811 198.518 166.173 199.405 168.747C199.971 170.388 201.059 170.166 200.873 168.438C200.711 166.922 200.432 165.423 200.311 163.897C200.038 160.443 199.666 156.759 199.924 153.303C200.034 153.504 201.061 155.367 201.303 155.228C201.23 155.271 200.118 152.595 199.677 152.712Z" fill="#89C5CC"/>
<path fill-rule="evenodd" clip-rule="evenodd" d="M211.863 150.445C209.67 150.477 207.478 150.516 205.286 150.577C203.544 150.626 200.806 150.339 199.207 151.073C197.305 151.946 198.207 153.892 199.995 153.933C201.576 153.969 203.262 153.613 204.857 153.558C209.167 153.41 213.484 153.379 217.796 153.342C221.695 153.308 225.76 153.725 229.625 153.139C230.198 158.232 228.648 163.348 229.175 168.5C229.257 169.3 229.22 170.43 230.238 170.612C231.522 170.842 231.575 169.569 231.624 168.657C231.763 166.055 231.688 163.45 231.878 160.844C232.055 158.429 232.402 155.96 232.108 153.541C231.747 150.564 230.322 150.803 227.802 150.679C222.48 150.418 217.191 150.367 211.863 150.445Z" fill="#89C5CC"/>
<path fill-rule="evenodd" clip-rule="evenodd" d="M204.516 168.533C203.399 168.561 201.543 168.216 200.827 169.288C200.083 170.403 200.966 171.376 202.049 171.605C203.331 171.876 205.002 171.505 206.333 171.501C207.718 171.497 209.104 171.512 210.489 171.517C216.429 171.541 222.394 171.631 228.33 171.385C229.159 171.351 231.511 171.629 232.085 170.833C232.594 170.128 232.238 169.495 231.568 169.135C230.468 168.545 228.208 168.77 226.985 168.723C225.473 168.665 223.961 168.646 222.449 168.623C216.481 168.531 210.482 168.385 204.516 168.533Z" fill="#89C5CC"/>
<path fill-rule="evenodd" clip-rule="evenodd" d="M209.54 173.688C207.317 173.726 204.946 173.629 202.745 173.966C200.81 174.263 200.572 176.134 202.655 176.353C204.569 176.555 206.89 176.178 208.813 176.055C209.496 176.011 210.291 176.073 210.618 175.318C210.96 174.528 210.307 173.771 209.54 173.688Z" fill="#89C5CC"/>
<path fill-rule="evenodd" clip-rule="evenodd" d="M226.345 173.885C225.158 173.914 221.693 173.404 221.105 174.76C220.127 177.017 224.818 176.16 225.718 176.127C226.852 176.085 231.273 176.748 231.274 174.941C231.275 173.169 227.431 173.858 226.345 173.885Z" fill="#89C5CC"/>
<path fill-rule="evenodd" clip-rule="evenodd" d="M158.847 185.102C158.85 189.209 158.595 193.354 158.969 197.451C159.124 199.145 159.097 202.39 160.078 203.827C160.774 204.846 161.74 204.775 162.12 203.551C162.374 202.732 161.967 201.095 161.922 200.22C161.878 199.38 161.827 198.54 161.789 197.699C161.689 195.534 161.697 193.372 161.726 191.206C161.752 189.348 162.199 186.889 161.777 185.102C161.384 183.437 158.847 183.048 158.847 185.102Z" fill="#69A1AC"/>
<path fill-rule="evenodd" clip-rule="evenodd" d="M200.094 181.49C192.973 181.668 185.837 181.509 178.723 181.862C175.214 182.035 171.719 182.417 168.229 182.798C166.514 182.985 164.799 183.178 163.087 183.389C162.571 183.453 158.278 183.619 159.892 185.253C160.597 185.966 162.841 185.221 163.729 185.116C165.448 184.913 167.17 184.736 168.892 184.554C172.167 184.207 175.447 183.879 178.736 183.697C186.484 183.267 194.263 183.396 202.018 183.11C204.116 183.032 206.207 182.977 208.306 183.059C208.857 183.081 212.906 183.287 211.148 181.79C210.317 181.082 207.182 181.448 206.143 181.427C204.127 181.385 202.109 181.439 200.094 181.49Z" fill="#69A1AC"/>
<path fill-rule="evenodd" clip-rule="evenodd" d="M209.8 188.409C209.765 186.511 209.73 184.614 209.644 182.718C209.553 180.722 212.271 180.419 213.077 182.035C213.657 183.199 213.555 185.178 213.467 186.875C213.432 187.559 213.399 188.196 213.414 188.716C213.449 189.908 213.537 191.14 213.625 192.389C213.849 195.531 214.079 198.777 213.493 201.742C213.207 203.184 211.992 203.941 211.183 203.156C211.182 203.157 211.181 203.159 211.18 203.161C210.876 203.609 209.929 203.608 209.232 203.607C209.039 203.607 208.866 203.607 208.731 203.616C206.82 203.746 204.945 203.965 203.051 204.249C199.278 204.815 195.538 205.163 191.724 205.258C189.137 205.322 186.545 205.343 183.953 205.365C178.99 205.406 174.024 205.447 169.076 205.787C167.408 205.902 165.765 206.098 164.124 206.412C163.984 206.439 163.829 206.474 163.664 206.51C162.444 206.782 160.678 207.175 160.557 205.469C160.414 203.444 164.8 203.179 167.057 203.042C167.401 203.021 167.696 203.004 167.918 202.983C174.771 202.345 181.731 202.444 188.614 202.542C188.947 202.546 189.28 202.551 189.614 202.556C190.151 202.563 190.687 202.572 191.224 202.581C194.171 202.629 197.114 202.678 200.06 202.498C201.4 202.415 202.758 202.373 204.119 202.331C206.289 202.264 208.466 202.196 210.589 201.966C210.269 200.724 210.213 199.258 210.16 197.876C210.14 197.339 210.12 196.813 210.085 196.319C209.898 193.686 209.849 191.047 209.8 188.409Z" fill="#69A1AC"/>
<path fill-rule="evenodd" clip-rule="evenodd" d="M215.563 184.18C214.601 184.311 213.799 185.135 214.228 186.18C214.769 187.496 216.38 186.982 217.445 186.898C220.827 186.633 224.359 187.163 227.701 186.763C228.614 186.654 229.938 186.156 229.119 184.929C228.503 184.007 226.258 184.169 225.304 184.081C222.042 183.778 218.822 183.859 215.563 184.18Z" fill="#C1DEE2"/>
<path fill-rule="evenodd" clip-rule="evenodd" d="M221.273 189.92C219.961 190.008 216.907 189.939 216.354 191.433C215.362 194.112 219.246 193.168 220.429 193.016C221.803 192.838 225.042 193.313 225.773 191.979C227.081 189.595 222.423 189.841 221.273 189.92Z" fill="#C1DEE2"/>
<path fill-rule="evenodd" clip-rule="evenodd" d="M217.899 195.801C217.277 196.424 217.276 197.536 217.899 198.159C218.662 198.922 220.325 198.764 221.327 198.819C222.726 198.897 226.743 199.638 227.437 197.99C228.374 195.766 224.737 195.813 223.541 195.687C222.158 195.541 219.045 194.653 217.899 195.801Z" fill="#C1DEE2"/>
<path fill-rule="evenodd" clip-rule="evenodd" d="M168.872 157.741C168.872 160.132 172.603 160.132 172.603 157.741C172.603 155.364 168.872 155.328 168.872 157.741Z" fill="#89C5CC"/>
<path fill-rule="evenodd" clip-rule="evenodd" d="M175.949 157.768C175.949 160.501 180.199 160.496 180.199 157.768C180.199 155.045 175.949 155.017 175.949 157.768Z" fill="#89C5CC"/>
<path fill-rule="evenodd" clip-rule="evenodd" d="M171.668 161.402C169.602 161.973 171.505 163.725 172.464 164.125C173.989 164.761 176.069 165.23 177.594 164.276C178.201 163.897 178.693 163.392 178.249 162.656C177.775 161.872 177.126 162.22 176.405 162.293C175.492 162.385 174.753 162.37 173.871 162.077C173.212 161.858 172.386 161.204 171.668 161.402Z" fill="#89C5CC"/>
<path fill-rule="evenodd" clip-rule="evenodd" d="M209.139 157.893C209.139 159.51 211.648 159.51 211.648 157.893C211.648 156.276 209.139 156.276 209.139 157.893Z" fill="#89C5CC"/>
<path fill-rule="evenodd" clip-rule="evenodd" d="M214.688 158.136C214.688 159.932 217.475 159.933 217.475 158.136C217.475 156.339 214.688 156.34 214.688 158.136Z" fill="#89C5CC"/>
<path fill-rule="evenodd" clip-rule="evenodd" d="M214.481 162.035C213.017 162.223 208.782 162.653 208.546 164.459C208.18 167.245 212.82 164.99 213.879 164.771C215.228 164.493 216.432 164.565 217.779 164.619C218.518 164.649 219.501 164.769 219.424 163.642C219.297 161.792 215.761 161.87 214.481 162.035Z" fill="#89C5CC"/>
<path fill-rule="evenodd" clip-rule="evenodd" d="M177.669 187.728C176.608 188.011 175.22 189.847 175.95 190.97C177.147 192.813 177.675 189.984 178.176 189.712C179.088 189.216 179.828 191.027 180.781 190.077C182.284 188.578 178.616 187.474 177.669 187.728Z" fill="#69A1AC"/>
<path fill-rule="evenodd" clip-rule="evenodd" d="M189.829 186.366C188.57 186.377 185.914 188.16 185.725 189.477C185.614 190.259 186.132 191.01 186.975 191.021C188.122 191.035 188.487 189.542 189.481 189.23C190.554 188.893 190.395 189.668 191.322 190.07C192 190.365 192.848 190.242 193.084 189.407C193.528 187.834 191.122 186.341 189.829 186.366Z" fill="#69A1AC"/>
<path fill-rule="evenodd" clip-rule="evenodd" d="M180.195 193.903C178.182 195.084 181.495 197.614 182.643 197.93C184.376 198.408 187.865 197.516 188.276 195.398C188.44 194.554 187.912 193.79 186.982 193.941C186.217 194.066 185.725 195.027 185.016 195.371C184.059 195.836 183.208 195.804 182.394 195.105C181.731 194.535 181.376 193.214 180.195 193.903Z" fill="#69A1AC"/>
<path fill-rule="evenodd" clip-rule="evenodd" d="M181.654 211.344C179.856 211.728 178.028 211.47 176.221 211.831C174.378 212.199 173.276 212.896 171.564 212.194C171.484 212.16 171.404 212.126 171.323 212.092C169.998 211.521 168.609 211.352 167.222 212.262C166.401 212.801 163.91 214.664 164.21 215.8C164.861 218.265 167.665 214.4 168.38 214.024C169.743 213.305 170.678 214.223 172.081 214.482C173.763 214.792 175.115 213.903 176.699 213.549C178.551 213.135 180.635 212.991 182.52 212.769C183.264 212.682 186.084 213.271 186.339 212.344C186.776 210.751 182.361 211.194 181.654 211.344Z" fill="#C1DEE2"/>
<path fill-rule="evenodd" clip-rule="evenodd" d="M194.63 216.308C194.747 216.397 194.653 216.325 194.63 216.308V216.308ZM199.667 211.248C201.207 211.091 206.133 209.991 207.144 211.583C207.803 212.62 206.757 216.447 205.76 216.942C204.963 217.337 203.106 216.9 202.232 216.869C200.604 216.812 198.973 216.786 197.348 216.685C196.802 216.651 195.048 216.751 194.621 216.268C194.116 215.698 194.138 212.659 194.02 211.905C195.435 212.363 198.187 211.398 199.667 211.248ZM202.955 209.687C200.983 209.772 199.011 209.921 197.054 210.185C195.963 210.333 194.858 210.725 193.85 210.911C193.525 210.971 192.998 210.805 192.6 210.997C191.436 211.56 192.455 215.364 192.736 216.38C193.167 217.941 194.252 218.194 195.772 218.341C197.774 218.535 199.817 218.474 201.826 218.449C203.762 218.426 206.373 218.855 207.459 216.911C208.161 215.654 208.914 212.727 208.314 211.327C207.525 209.484 204.576 209.619 202.955 209.687Z" fill="#C1DEE2"/>
<path fill-rule="evenodd" clip-rule="evenodd" d="M225.036 217.353C224.931 217.489 224.931 217.489 225.036 217.353V217.353ZM225.468 216.832C225.436 216.881 225.284 217.041 225.468 216.832V216.832ZM220.766 216.689C221.635 216.525 222.505 216.363 223.375 216.204C222.551 217.359 221.683 216.881 220.275 216.781C220.439 216.75 220.602 216.72 220.766 216.689ZM216.619 216.28C216.839 216.207 217.059 216.133 217.28 216.059C217.273 216.227 217.309 216.384 217.388 216.53C217.011 216.49 216.634 216.446 216.257 216.399C216.378 216.36 216.498 216.32 216.619 216.28ZM214.697 214.86C214.685 214.557 215.14 214.765 215.401 214.745C214.898 215.188 214.663 215.226 214.697 214.86ZM221.57 211.426C221.636 211.341 221.724 211.345 221.833 211.438C221.714 211.478 221.255 211.673 221.57 211.426ZM226.027 210.901C226.039 210.901 226.286 211.235 226.027 210.901V210.901ZM225.902 210.792C225.967 210.841 225.967 210.841 225.902 210.792V210.792ZM225.345 210.727C226.257 210.88 226.187 211.95 225.345 210.727V210.727ZM214.639 210.654C214.454 210.807 214.517 210.658 214.639 210.654V210.654ZM218.124 208.375C216.577 208.465 213.737 208.375 212.445 209.199C210.759 210.276 211.646 213.982 211.797 215.607C212.02 218.009 213.149 218.692 215.409 218.944C218.107 219.245 220.878 219.301 223.59 219.23C226.031 219.166 227.422 218.325 227.869 215.753C228.006 214.966 228.354 213.748 228.343 212.994C228.336 212.471 228.075 212.233 227.977 211.788C227.416 209.256 226.478 208.956 223.885 208.845C221.976 208.764 219.997 208.277 218.124 208.375Z" fill="#89C5CC"/>
</g>
<g opacity="0.5">
<path fill-rule="evenodd" clip-rule="evenodd" d="M300.077 150.209C304.011 150.293 308.474 152.471 307.852 157.086C307.396 160.467 304.471 163.211 301.083 163.448C297.442 163.702 293.592 160.906 293.098 157.196C292.541 153.024 296.231 150.126 300.077 150.209ZM298.148 148.33C296.554 148.569 295.03 149.407 293.626 150.157C293.09 150.444 290.373 152.191 292.504 152.625C287.369 160.913 299.454 168.61 306.249 163.224C309.3 160.805 310.906 156.22 308.934 152.631C306.894 148.918 302.056 147.743 298.148 148.33Z" fill="#89C5CC"/>
<path fill-rule="evenodd" clip-rule="evenodd" d="M297.209 155.384C297.209 156.932 299.609 156.932 299.609 155.384C299.609 153.836 297.209 153.836 297.209 155.384Z" fill="#89C5CC"/>
<path fill-rule="evenodd" clip-rule="evenodd" d="M301.66 155.632C301.66 157.31 304.263 157.31 304.263 155.632C304.263 153.954 301.66 153.954 301.66 155.632Z" fill="#89C5CC"/>
<path fill-rule="evenodd" clip-rule="evenodd" d="M298.656 158.951C298.306 160.224 302.3 160.877 302.433 159.403C302.496 158.699 298.9 158.063 298.656 158.951Z" fill="#89C5CC"/>
<path fill-rule="evenodd" clip-rule="evenodd" d="M310.364 158.164C314.96 157.612 319.699 157.867 324.317 157.999C325.473 158.033 326.628 158.065 327.784 158.084C328.519 158.097 330.106 158.45 330.747 158.105C333.374 156.696 328.222 156.015 327.492 155.95C322.899 155.572 315.81 155.437 311.202 155.615C309.84 155.668 309.545 158.262 310.364 158.164Z" fill="#89C5CC"/>
<path fill-rule="evenodd" clip-rule="evenodd" d="M331.045 181.025C331.085 176.207 331.257 171.356 331.628 166.552C331.778 164.593 331.959 162.638 332.109 160.68C332.18 159.757 332.507 158.465 331.965 157.656C331.407 156.822 330.182 156.649 329.444 157.388C328.561 158.532 328.818 160.453 328.708 161.837C328.539 163.966 328.335 166.093 328.233 168.226C328.037 172.354 327.991 176.555 328.323 180.678C328.479 182.623 328.819 184.521 329.27 186.419C329.476 187.282 331.112 191.13 330.768 191.66C330.235 192.483 326.296 192.172 325.441 192.195C323.249 192.254 321.055 192.292 318.862 192.334C316.984 192.37 315.106 192.396 313.228 192.412C312.482 192.419 308.101 192.286 309.073 193.392C298.205 194.15 287.129 192.885 276.327 192.451C275.781 192.429 274.888 192.274 274.064 192.229C273.966 191.831 273.884 191.475 273.864 191.228C273.722 189.491 273.685 187.748 273.531 186.011C273.25 182.833 272.704 179.688 272.379 176.516C272.055 173.347 272.087 170.169 271.899 166.992C271.866 166.448 271.79 161.989 270.665 160.906C271.198 161.108 272.058 161.135 272.553 161.095C276.56 160.771 280.538 160.074 284.511 159.476C285.647 159.305 288.226 159.427 289.169 158.858C289.985 158.366 290.308 156.64 288.889 156.78C284.927 157.205 280.987 157.864 277.057 158.512C276.006 158.686 274.957 158.871 273.909 159.061C273.209 159.188 271.361 159.178 270.818 159.6C270.158 160.113 270.088 160.462 270.312 160.694C270.001 160.608 269.628 160.743 269.181 161.191C268.335 162.292 269.131 165.005 269.231 166.296C269.352 167.845 269.412 169.397 269.483 170.949C269.619 173.952 269.933 176.914 270.416 179.881C270.957 183.205 271.417 186.543 271.96 189.866C272.101 190.731 272.285 191.575 272.52 192.411C271.059 193.159 272.052 194.348 273.212 194.56C273.22 194.561 273.229 194.562 273.237 194.564C273.598 195.445 274.104 196.262 274.498 195.081C274.528 194.99 274.543 194.879 274.546 194.753C277.54 195.092 280.831 194.882 283.779 195.002C290.164 195.263 296.588 195.655 302.979 195.457C305.509 195.378 308.047 195.153 310.556 194.815C312.026 194.617 313.502 194.381 314.948 194.053C315.052 194.03 315.21 194.005 315.392 193.975C315.421 193.974 315.451 193.973 315.48 193.973C317.694 193.94 319.907 193.88 322.121 193.788C323.978 193.711 325.844 193.671 327.696 193.496C328.846 193.387 331.277 193.407 331.983 192.25C332.625 191.197 331.551 188.487 331.399 187.305C331.131 185.223 331.028 183.122 331.045 181.025Z" fill="#C1DEE2"/>
<path fill-rule="evenodd" clip-rule="evenodd" d="M308.599 167.112C306.829 167.264 305.193 168.096 303.407 168.106C301.908 168.114 300.432 167.666 298.924 167.732C297.156 167.809 296.183 168.954 294.634 169.337C293.401 169.641 292.624 168.697 291.54 168.279C290.17 167.751 289.159 168.024 287.985 168.822C287.123 169.408 285.111 170.724 285.127 171.91C285.173 175.503 289.362 170.54 290.206 170.48C291.328 170.4 292.582 171.68 293.776 171.753C295.354 171.849 296.366 170.831 297.819 170.46C299.289 170.085 300.878 170.545 302.351 170.687C304.033 170.85 305.504 170.475 307.13 170.073C308.706 169.684 310.049 169.705 311.651 170.032C312.732 170.252 315.425 171.535 315.897 169.886C316.541 167.64 309.837 167.007 308.599 167.112Z" fill="#89C5CC"/>
<path fill-rule="evenodd" clip-rule="evenodd" d="M309.138 173.964C305.512 174.317 301.863 174.625 298.22 174.724C296.642 174.767 290.577 174.091 291.115 176.097C291.576 177.817 299.83 176.734 301.511 176.603C303.367 176.459 305.22 176.257 307.067 176.023C307.722 175.94 309.302 176.026 309.764 175.477C310.204 174.953 309.987 173.879 309.138 173.964Z" fill="#89C5CC"/>
<path fill-rule="evenodd" clip-rule="evenodd" d="M284.121 183.101C284.038 183.136 284.038 183.136 284.121 183.101V183.101ZM284.886 183.091C285.79 183.062 285.596 182.585 286.498 182.833C286.914 182.948 286.957 182.778 287.279 183.176C287.908 183.952 287.316 185.642 286.696 186.267C284.399 188.583 281.643 183.193 284.886 183.091ZM284.886 180.819C278.599 181.03 281.23 190.747 286.701 188.764C288.961 187.944 290.381 184.254 289.052 182.18C288.406 181.171 287.581 180.991 286.498 180.921C286.247 180.905 285.93 181.271 285.773 181.254C285.4 181.215 285.435 180.798 284.886 180.819Z" fill="#89C5CC"/>
<path fill-rule="evenodd" clip-rule="evenodd" d="M299.92 183.434C299.808 183.399 301.905 184.009 301.675 183.771C302.165 184.28 301.507 185.485 300.953 185.695C299.611 186.205 298.859 184.118 299.92 183.434ZM300.85 180.799C298.882 181.078 297.363 181.898 297.094 184.089C296.846 186.11 298.211 188.158 300.364 188.197C305.058 188.283 305.201 180.192 300.85 180.799Z" fill="#89C5CC"/>
<path fill-rule="evenodd" clip-rule="evenodd" d="M322.277 183.522C322.552 187.112 318.832 183.826 322.277 183.522V183.522ZM320.681 179.681C320.355 180.238 320.633 180.829 321.124 181.152C316.735 182.08 317.729 188.688 322.195 187.712C324.466 187.215 324.884 184.826 324.545 182.853C324.384 181.915 322.048 177.343 320.681 179.681Z" fill="#89C5CC"/>
</g>
<path opacity="0.5" fill-rule="evenodd" clip-rule="evenodd" d="M331.063 183.129C329.755 183.362 326.662 184.808 326.689 186.361C326.731 188.784 329.36 186.137 329.944 185.781C333.085 183.868 337.153 186.347 340.424 186.874C341.923 187.116 344.856 187.563 346.181 186.557C348.536 184.769 343.089 185.217 342.395 185.145C338.624 184.755 334.873 182.448 331.063 183.129Z" fill="#C1DEE2"/>
<g opacity="0.5">
<path fill-rule="evenodd" clip-rule="evenodd" d="M392.854 166.088C392.853 168.568 392.728 171.099 393.185 173.549C393.323 174.291 393.432 175.712 394.214 176.097C395 176.484 395.761 176.049 395.957 175.243C396.184 174.306 395.685 172.903 395.634 171.919C395.565 170.574 395.56 169.228 395.56 167.882C395.559 166.91 395.879 165.346 394.732 164.845C393.879 164.473 392.854 165.165 392.854 166.088Z" fill="#C1DEE2"/>
<path fill-rule="evenodd" clip-rule="evenodd" d="M432.037 162.165C423.825 162.99 415.495 163.161 407.254 163.591C403.445 163.79 398.841 163.537 395.252 165.012C394.586 165.286 392.199 166.811 394.136 167.432C394.74 167.626 395.354 166.975 395.85 166.757C396.676 166.394 397.632 166.281 398.513 166.14C406.002 164.936 413.834 165.146 421.4 164.584C423.338 164.439 425.278 164.291 427.212 164.101C428.594 163.965 431.499 162.968 432.775 163.478C434.954 164.349 434.903 170.009 434.946 171.956C434.969 172.963 433.992 176.577 435.933 176.21C437.487 175.917 436.924 172.163 436.803 171.136C436.486 168.444 435.944 161.769 432.037 162.165Z" fill="#C1DEE2"/>
<path fill-rule="evenodd" clip-rule="evenodd" d="M435.065 176.08C427.932 176.724 420.635 176.092 413.473 176.345C409.719 176.478 405.969 176.69 402.215 176.814C400.591 176.868 398.965 176.87 397.341 176.882C396.564 176.887 393.028 177.358 395.215 178.9C396.184 179.582 399.27 179.033 400.382 179.019C402.051 179 403.719 178.93 405.388 178.865C409.252 178.714 413.113 178.504 416.979 178.399C420.677 178.299 424.377 178.278 428.075 178.178C429.915 178.128 431.78 178.071 433.604 177.802C434.015 177.742 435.352 177.693 435.637 177.234C435.908 176.8 435.718 176.017 435.065 176.08Z" fill="#89C5CC"/>
<path fill-rule="evenodd" clip-rule="evenodd" d="M400.01 170.721C399.971 170.812 399.971 170.812 400.01 170.721V170.721ZM403.098 169.782C403.211 169.83 403.211 169.83 403.098 169.782V169.782ZM402.954 169.756C404.618 171.453 402.058 173.48 400.499 171.823C398.844 170.065 401.882 169.761 402.954 169.756ZM401.188 167.187C395.455 168.208 397.485 175.854 402.84 174.749C405.191 174.264 406.535 171.894 405.726 169.618C405.41 168.729 404.721 167.752 403.761 167.472C403.283 167.332 402.86 167.552 402.404 167.501C401.969 167.452 401.728 167.09 401.188 167.187Z" fill="#C1DEE2"/>
<path fill-rule="evenodd" clip-rule="evenodd" d="M423.131 169.339C419.674 169.35 416.215 169.497 412.759 169.563C411.698 169.583 408.973 169.108 408.969 170.781C408.964 172.568 412 171.908 413.01 171.884C416.439 171.802 419.877 171.651 423.292 171.325C424.155 171.242 427.141 171.385 427.138 170.211C427.135 168.967 423.828 169.339 423.131 169.339Z" fill="#C1DEE2"/>
<path fill-rule="evenodd" clip-rule="evenodd" d="M431.389 181.005C422.838 181.234 414.3 181.314 405.756 181.752C402.56 181.916 399.369 182.038 396.168 182.038C395.552 182.038 394.311 181.799 393.731 182.187C392.156 183.241 393.949 184.145 394.975 184.202C401.994 184.592 409.114 183.622 416.129 183.403C420.236 183.275 424.344 183.237 428.448 183.028C429.567 182.971 430.687 182.904 431.805 182.817C432.448 182.768 434.148 182.904 434.668 182.528C436.936 180.885 432.154 180.984 431.389 181.005Z" fill="#89C5CC"/>
<path fill-rule="evenodd" clip-rule="evenodd" d="M392.156 185.188C392.075 187.407 392.067 189.586 392.357 191.792C392.471 192.661 392.524 193.646 393.541 193.866C394.464 194.066 394.932 193.368 395.124 192.593C395.591 190.7 395.18 187.976 395.174 186.01C395.172 185.038 395.171 183.951 393.971 183.731C393.055 183.563 392.191 184.225 392.156 185.188Z" fill="#89C5CC"/>
<path fill-rule="evenodd" clip-rule="evenodd" d="M440.452 190.536C426.611 191.266 412.787 191.903 398.935 192.489C397.855 192.535 389.463 192.444 392.397 195.372C393.303 196.276 395.638 195.664 396.81 195.606C398.571 195.52 400.333 195.453 402.094 195.364C409.076 195.008 416.077 194.912 423.054 194.513C426.893 194.294 430.724 193.95 434.544 193.502C436.36 193.29 438.616 193.312 440.317 192.599C441.193 192.233 442.137 190.447 440.452 190.536Z" fill="#89C5CC"/>
<path fill-rule="evenodd" clip-rule="evenodd" d="M432.493 179.283C431.441 180.332 431.982 182.402 432.061 183.698C432.171 185.483 432.303 187.268 432.526 189.042C432.671 190.195 432.594 191.989 433.209 192.985C433.928 194.151 435.513 194.022 436.163 192.895C436.739 191.899 436.448 189.803 436.433 188.699C436.412 187.172 436.317 185.643 436.227 184.119C436.151 182.846 436.439 180.805 435.739 179.715C435.028 178.607 433.48 178.301 432.493 179.283Z" fill="#89C5CC"/>
<path fill-rule="evenodd" clip-rule="evenodd" d="M400.856 187.424C400.732 187.519 400.732 187.519 400.856 187.424V187.424ZM403.314 187.116C405.608 187.577 401.899 190.257 400.726 188.418C400.543 188.131 400.448 187.777 400.742 187.528C401.01 187.299 401.179 187.703 401.432 187.595C401.869 187.408 402.848 187.098 403.314 187.116ZM402.998 184.915C401.432 185.039 399.278 185.136 398.503 186.707C397.461 188.817 399.243 190.884 401.303 191.205C403.286 191.514 406.246 190.415 406.405 188.101C406.533 186.235 404.76 184.772 402.998 184.915Z" fill="#89C5CC"/>
<path fill-rule="evenodd" clip-rule="evenodd" d="M416.073 186.031C414.452 186.057 411.265 185.578 409.852 186.368C408.455 187.151 409.078 188.544 410.353 188.878C411.196 189.098 412.573 188.742 413.451 188.707C414.605 188.66 415.76 188.649 416.916 188.634C418.858 188.607 420.8 188.629 422.742 188.629C424.726 188.629 426.744 188.684 428.725 188.538C431.231 188.353 431.164 186.475 428.713 186.241C424.549 185.842 420.25 185.965 416.073 186.031Z" fill="#89C5CC"/>
<path fill-rule="evenodd" clip-rule="evenodd" d="M411.932 207.061C411.932 207.953 412.723 207.061 412.717 207.061C412.723 207.061 411.932 206.169 411.932 207.061Z" fill="#89C5CC"/>
<path fill-rule="evenodd" clip-rule="evenodd" d="M394.038 199.88C394.089 202.473 394.122 205.068 394.233 207.66C394.268 208.479 394.033 210.079 395.026 210.497C396.131 210.962 396.474 209.803 396.601 209.017C397.004 206.529 396.609 203.689 396.571 201.171C396.558 200.326 396.74 199.149 395.781 198.728C394.998 198.384 394.022 199.022 394.038 199.88Z" fill="#89C5CC"/>
<path fill-rule="evenodd" clip-rule="evenodd" d="M436.656 199.92C436.721 200.075 436.721 200.075 436.656 199.92V199.92ZM436.748 199.894C436.801 199.916 437.016 200.006 436.748 199.894V199.894ZM415.812 197.798C411.834 197.86 407.853 197.908 403.877 198.078C402.18 198.151 400.464 198.21 398.773 198.37C397.575 198.483 394.6 198.53 393.823 199.51C392.22 201.531 395.619 200.98 396.351 200.816C397.684 200.517 399.044 200.421 400.406 200.349C403.359 200.193 406.315 200.11 409.272 200.051C417.292 199.889 425.318 199.914 433.34 199.877C434.117 199.874 435.52 199.561 436.238 199.876C436.956 200.191 436.916 200.965 436.991 201.865C437.09 203.061 436.301 205.342 436.902 206.349C437.834 207.91 439.19 206.584 439.397 205.446C439.684 203.873 439.23 201.984 438.786 200.481C438.159 198.36 437.288 198.275 435.238 198.109C432.842 197.916 430.455 197.798 428.052 197.776C423.973 197.739 419.891 197.735 415.812 197.798Z" fill="#89C5CC"/>
<path fill-rule="evenodd" clip-rule="evenodd" d="M431.548 208.518C422.919 209.52 414.044 208.929 405.369 208.965C403.259 208.974 401.148 208.99 399.04 209.093C397.927 209.147 395.289 208.84 394.526 209.699C392.918 211.51 395.814 211.774 396.871 211.699C399.009 211.547 401.151 211.477 403.294 211.461C410.842 211.402 418.433 211.755 425.975 211.382C429.134 211.226 432.224 210.685 435.325 210.081C436.012 209.947 440.715 209.052 438.033 207.98C436.448 207.346 433.213 208.323 431.548 208.518Z" fill="#89C5CC"/>
<path fill-rule="evenodd" clip-rule="evenodd" d="M406.353 205.202C406.293 205.279 406.293 205.279 406.353 205.202V205.202ZM406.295 205.188C406.275 205.244 406.212 205.381 406.295 205.188V205.188ZM405.751 204.486C405.764 204.502 405.815 204.568 405.751 204.486V204.486ZM405.73 204.48C405.938 204.729 406.078 205.005 406.15 205.311C404.362 205.795 403.673 204.348 405.73 204.48ZM405.617 204.413C405.618 204.413 405.869 204.519 405.617 204.413V204.413ZM402.68 202.256C401.523 203.698 400.568 205.379 402.01 207.026C403.3 208.498 405.895 208.688 407.532 207.705C409.219 206.692 409.073 204.56 407.897 203.168C407.139 202.271 406.525 202.296 405.427 202.15C404.678 202.05 403.315 201.468 402.68 202.256Z" fill="#89C5CC"/>
<path fill-rule="evenodd" clip-rule="evenodd" d="M414.641 204.925C414.641 206.845 422.926 206.019 424.4 206.017C425.635 206.015 433.1 206.696 432.565 204.72C432.124 203.097 424.771 203.904 423.205 203.902C421.851 203.9 414.641 202.97 414.641 204.925Z" fill="#89C5CC"/>
</g>
<g opacity="0.5">
<path fill-rule="evenodd" clip-rule="evenodd" d="M306.48 222.914C310.629 223.517 314.945 225.469 314.909 230.302C314.878 234.366 311.473 238.69 307.099 238.447C303.164 238.229 299.458 233.922 298.965 230.232C298.71 228.32 299.187 226.261 300.311 224.688C301.784 222.627 304.121 222.63 306.48 222.914ZM304.52 220.287C301.519 220.304 299.323 221.39 297.466 223.683C296.8 224.505 296.025 225.39 295.518 226.321C295.044 227.191 295.127 229.403 296.753 228.366C296.352 232.649 298.854 236.806 302.45 239C306.359 241.386 310.777 240.921 314.03 237.577C317.008 234.516 318.056 229.346 315.877 225.561C313.7 221.778 308.655 220.247 304.52 220.287Z" fill="#89C5CC"/>
<path fill-rule="evenodd" clip-rule="evenodd" d="M313.519 219.139C311.597 220.549 309.843 222.404 308.386 224.286C306.962 226.125 306.02 228.422 304.309 230.026C303.445 229.085 302.433 226.541 300.709 227.55C299.279 228.388 300.2 229.828 300.897 230.773C302.696 233.214 304.693 234.197 307 231.785C309.095 229.594 310.285 226.672 312.244 224.356C313.103 223.339 314.43 222.33 315.115 221.208C315.735 220.191 314.968 218.074 313.519 219.139Z" fill="#89C5CC"/>
</g>
<g opacity="0.5">
<path fill-rule="evenodd" clip-rule="evenodd" d="M386.128 66.3348C386.131 66.5269 386.133 66.7076 386.138 66.8737C386.227 70.5008 386.175 74.3138 385.881 77.9324C385.779 79.1818 384.871 80.7653 383.835 79.0431C383.379 78.2858 383.443 76.7307 383.49 75.5867C383.502 75.28 383.514 75.0029 383.514 74.7786C383.513 73.5022 383.58 72.2127 383.647 70.9198C383.778 68.3921 383.91 65.8511 383.536 63.3686C383.529 63.3183 383.522 63.27 383.515 63.2235C383.352 62.1318 383.341 62.0564 382.141 62.0812C381.641 62.0916 381.141 62.1051 380.641 62.1186C380.149 62.1319 379.657 62.1452 379.165 62.1556C378.677 62.1658 378.188 62.1752 377.7 62.1846C376.168 62.2141 374.635 62.2436 373.104 62.2997C372.848 62.3092 372.372 62.369 371.77 62.4445C370.567 62.5955 368.864 62.8092 367.432 62.808C367.432 62.8141 367.432 62.8203 367.433 62.8265C367.434 62.8375 367.435 62.8486 367.435 62.8599C367.451 63.6513 367.247 64.5348 367.043 65.4223C366.871 66.1655 366.699 66.9117 366.655 67.609C366.55 69.2683 366.549 70.9452 366.548 72.622C366.546 74.6639 366.545 76.7057 366.356 78.716C366.347 78.814 366.341 78.9176 366.335 79.0224C366.335 79.0363 366.334 79.0503 366.333 79.0642C366.398 79.0544 366.461 79.0474 366.522 79.0435C367.554 78.978 368.595 78.9722 369.635 78.9664C370.208 78.9631 370.781 78.9599 371.352 78.9467C372.377 78.9229 373.414 78.9241 374.455 78.9252C376.755 78.9277 379.074 78.9301 381.323 78.6651C381.987 78.579 382.219 79.4315 381.921 79.8734C381.655 80.269 380.92 80.3331 380.382 80.38C380.246 80.392 380.122 80.4028 380.021 80.4177C378.571 80.6326 377.101 80.7076 375.638 80.7725C374.101 80.8406 372.562 80.8915 371.024 80.9344C370.658 80.9445 370.17 80.9939 369.628 81.0487C368.198 81.1934 366.397 81.3755 365.504 80.9708C364.543 80.536 364.566 80.0532 364.958 79.6792C364.786 79.3009 364.759 78.7481 364.737 78.3158C364.729 78.1508 364.722 78.0033 364.708 77.8897C364.495 76.1683 364.366 74.4689 364.363 72.7327C364.357 69.3319 364.364 65.7998 365.304 62.5079C364.928 62.343 364.701 62.0998 364.702 61.7492C364.706 59.9831 370.199 60.073 372.811 60.1157C373.277 60.1233 373.652 60.1295 373.887 60.1232C375.789 60.0735 377.692 60.067 379.594 60.0773C379.997 60.0794 380.444 60.0531 380.907 60.0259C381.894 59.9679 382.953 59.9056 383.804 60.1036C386.042 60.6233 386.095 64.1889 386.128 66.3348Z" fill="#89C5CC"/>
<path fill-rule="evenodd" clip-rule="evenodd" d="M400.121 60.4907C402.199 60.3807 404.277 60.3554 406.357 60.3477C408.559 60.3366 410.765 60.3762 412.966 60.444L413.017 60.4455C413.992 60.4748 419.413 60.6378 416.922 61.9895C416.777 62.0684 416.614 62.1343 416.435 62.189C416.541 62.8149 416.554 63.4612 416.537 63.7725C416.472 64.9532 416.43 66.1352 416.387 67.3171C416.359 68.1181 416.33 68.9191 416.294 69.7196C416.196 71.9317 416.103 74.1436 416.027 76.3567C416.018 76.6284 416.032 76.9836 416.048 77.3796C416.101 78.6889 416.172 80.4431 415.461 81.0916C414.838 81.661 414.412 81.5469 414.125 81.1602C412.34 81.6787 408.676 81.5101 406.833 81.4254C406.389 81.4049 406.051 81.3894 405.87 81.3895C405.547 81.3896 404.947 81.4299 404.189 81.4809C401.033 81.693 395.143 82.0888 395.131 80.5323C395.13 80.3825 395.179 80.2483 395.27 80.1281C395.02 79.8728 394.795 79.498 394.651 79.0304C394.132 77.3516 394.083 75.54 394.045 73.7992C393.99 71.341 393.99 68.8799 393.989 66.4194C393.989 65.1558 393.989 63.8923 393.981 62.6293C393.644 62.1761 393.844 61.6576 394.265 61.2959C395.161 60.5263 397.385 60.517 398.994 60.5103C399.427 60.5085 399.815 60.5069 400.121 60.4907ZM396.741 79.4453C398.743 79.0175 402.117 79.1552 403.924 79.229C404.398 79.2483 404.764 79.2632 404.969 79.2625C406.815 79.2552 408.662 79.2809 410.507 79.3547C410.698 79.3623 410.981 79.3552 411.314 79.3467C411.984 79.3299 412.857 79.3078 413.598 79.3901C413.588 79.2895 413.582 79.1975 413.578 79.1181C413.495 77.4752 413.555 75.8181 413.614 74.1702V74.1702L413.614 74.1689C413.627 73.819 413.64 73.4696 413.651 73.1209C413.691 71.8887 413.743 70.6573 413.796 69.4257L413.796 69.4249C413.829 68.6497 413.862 67.8745 413.892 67.0991C413.905 66.7589 413.885 66.2966 413.863 65.7766C413.819 64.7187 413.764 63.4215 413.953 62.4252C413.27 62.4122 412.571 62.3637 411.929 62.3193C411.31 62.2765 410.746 62.2374 410.302 62.2374C409.739 62.2373 409.176 62.2356 408.613 62.2339H408.613C407.053 62.2291 405.494 62.2243 403.934 62.2552L403.49 62.2638C401.342 62.3053 399.177 62.3471 397.047 62.6302C396.922 62.6468 396.772 62.6788 396.606 62.7177C396.84 63.6941 396.725 65.0703 396.625 66.2755C396.576 66.8609 396.531 67.406 396.531 67.8454C396.528 70.5777 396.6 73.2993 396.672 76.0182C396.699 77.0467 396.726 78.0748 396.749 79.103C396.752 79.2257 396.749 79.3397 396.741 79.4453Z" fill="#89C5CC"/>
<path fill-rule="evenodd" clip-rule="evenodd" d="M373.954 80.8554C372.589 81.6533 373.325 84.8453 373.798 85.9493C374.575 87.7646 376.153 89.185 377.855 90.1273C381.295 92.0317 386.255 91.5259 388.857 94.8276C388.884 94.8618 389.783 95.7528 389.988 94.599C390.156 93.652 388.477 92.206 387.826 91.7313C385.976 90.3816 383.603 89.9463 381.463 89.2721C379.18 88.553 376.676 87.2274 375.719 84.873C375.38 84.0391 376.026 79.6381 373.954 80.8554Z" fill="#C1DEE2"/>
<path fill-rule="evenodd" clip-rule="evenodd" d="M405.161 82.39C403.91 82.7351 404.737 84.4575 404.735 85.32C404.732 86.3959 404.389 87.5219 403.726 88.3805C402.046 90.5581 398.755 90.8844 396.288 91.5087C394.497 91.9623 390.211 92.9349 390.043 95.3591C389.856 98.0663 393.639 94.7718 393.959 94.6368C397.496 93.3387 402.071 93.088 404.801 90.2306C405.927 89.0511 406.593 87.4769 406.699 85.8521C406.759 84.9373 406.769 81.9503 405.161 82.39Z" fill="#C1DEE2"/>
<path fill-rule="evenodd" clip-rule="evenodd" d="M379.312 106.403C379.283 101.394 384.074 98.364 388.406 97.2241C393.612 95.8516 398.462 99.5021 399.076 104.754C399.724 110.296 395.55 114.757 390.045 115.002C385.202 115.217 379.343 111.748 379.312 106.403ZM390.943 99.6325C391.225 100.016 391.479 100.627 390.911 100.96C390.366 101.278 390.093 100.896 389.819 100.511C389.646 100.267 389.471 100.023 389.227 99.954C388.594 99.7757 387.577 100.442 387.05 100.83C386.836 100.988 386.531 101.327 386.175 101.724C385.042 102.987 383.388 104.831 382.473 103.244C378.826 109.546 387.919 114.263 393.089 111.878C398.768 109.258 397.663 99.6825 390.943 99.6325Z" fill="#89C5CC"/>
<path fill-rule="evenodd" clip-rule="evenodd" d="M386.177 104.726C386.177 105.876 387.992 105.876 387.992 104.726C387.992 103.589 386.177 103.541 386.177 104.726Z" fill="#89C5CC"/>
<path fill-rule="evenodd" clip-rule="evenodd" d="M389.37 104.51C389.37 105.918 391.593 105.918 391.593 104.51C391.593 103.118 389.37 103.058 389.37 104.51Z" fill="#89C5CC"/>
<path fill-rule="evenodd" clip-rule="evenodd" d="M387.085 107.792C385.267 108.862 390.467 110.989 390.672 108.816C390.761 107.878 389.854 108.131 389.249 108.062C388.67 107.996 387.634 107.472 387.085 107.792Z" fill="#89C5CC"/>
<path fill-rule="evenodd" clip-rule="evenodd" d="M386.297 115.385C386.376 118.119 386.338 120.851 386.856 123.546C386.954 124.058 387.023 125.915 387.427 126.296C388.422 127.231 388.438 125.438 388.477 124.751C388.615 122.29 388.357 119.752 388.3 117.285C388.287 116.754 388.428 115.655 388.177 115.141C387.78 114.325 386.258 114.083 386.297 115.385Z" fill="#C1DEE2"/>
<path fill-rule="evenodd" clip-rule="evenodd" d="M384.352 113.168C380.365 117.646 374.876 117.316 369.345 117.708C366.423 117.915 363.469 118.341 361.117 120.232C360.024 121.112 359.081 122.214 358.447 123.469C358.17 124.019 356.857 127.186 358.83 126.435C359.529 126.168 360.218 124.073 360.671 123.454C361.533 122.273 362.636 121.299 363.959 120.666C366.511 119.444 369.558 119.465 372.325 119.31C375.218 119.148 378.323 118.997 380.982 117.738C382.233 117.146 383.406 116.407 384.413 115.456C384.773 115.115 385.544 114.538 385.602 114.017C385.667 113.423 385.096 112.334 384.352 113.168Z" fill="#C1DEE2"/>
<path fill-rule="evenodd" clip-rule="evenodd" d="M364.227 126.91C360.482 127.036 356.742 127.187 353.003 127.424C352.237 127.473 349.682 127.318 350.332 128.889C350.854 130.149 353.97 129.315 355.001 129.254C358.897 129.023 362.81 128.942 366.698 128.592C367.572 128.513 371.52 128.544 369.89 126.995C369.114 126.258 365.299 126.874 364.227 126.91Z" fill="#89C5CC"/>
<path fill-rule="evenodd" clip-rule="evenodd" d="M347.955 128.718C346.774 130.269 347.317 134.039 347.406 135.904C347.492 137.711 347.141 141.015 349.499 141.295C348.75 141.197 350.067 141.341 350.281 141.353C350.76 141.378 351.241 141.386 351.72 141.392C352.827 141.404 353.935 141.389 355.042 141.367C357.55 141.317 360.064 141.244 362.568 141.105C363.621 141.047 369.332 141.095 369.558 140.001C369.847 138.603 364.371 139.394 363.391 139.438C361.004 139.548 358.613 139.571 356.224 139.602C355.039 139.618 353.854 139.63 352.67 139.606C352.181 139.597 350.244 139.798 349.947 139.471C349.693 139.193 349.891 136.638 349.886 136.248C349.868 134.974 349.87 133.696 349.915 132.423C349.946 131.566 350.409 129.934 350.031 129.129C349.664 128.346 348.594 128.079 347.955 128.718Z" fill="#89C5CC"/>
<path fill-rule="evenodd" clip-rule="evenodd" d="M367.237 128.79C367.305 131.628 367.326 134.523 367.996 137.299C368.219 138.222 368.531 140.127 369.459 140.605C370.432 141.107 371.272 140.39 371.336 139.426C371.416 138.212 370.767 136.62 370.634 135.375C370.478 133.923 370.388 132.469 370.334 131.009C370.294 129.912 370.627 128.266 369.582 127.558C368.643 126.923 367.206 127.563 367.237 128.79Z" fill="#89C5CC"/>
<path fill-rule="evenodd" clip-rule="evenodd" d="M374.689 128.097C373.524 129.258 374.045 132.933 374.19 134.425C374.297 135.518 375.492 140.892 377.282 138.089C378.074 136.85 377.068 133.572 377.075 132.126C377.08 131.206 377.406 130.042 377.248 129.157C377.041 127.988 375.745 127.042 374.689 128.097Z" fill="#89C5CC"/>
<path fill-rule="evenodd" clip-rule="evenodd" d="M382.753 127.139C386.251 126.778 389.753 126.507 393.271 126.474C393.44 126.472 393.617 126.47 393.802 126.468C396.212 126.437 399.835 126.391 401.457 128.202C402.342 129.189 402.742 130.715 403.091 132.045C403.156 132.293 403.219 132.534 403.284 132.764C403.339 132.96 403.41 133.184 403.487 133.425C403.852 134.567 404.345 136.112 403.845 137.068C403.571 137.593 403.129 138.04 402.459 137.854C402.303 137.811 402.18 137.755 402.084 137.69C402.341 137.967 402.454 138.363 402.288 138.751C401.966 139.499 400.948 139.515 400.146 139.528C399.952 139.531 399.77 139.534 399.614 139.547C396.943 139.769 394.26 139.918 391.58 139.941C390.304 139.953 389.027 139.942 387.751 139.932C386.437 139.921 385.124 139.91 383.81 139.923C382.857 139.933 381.886 140.023 380.914 140.114C379.688 140.229 378.461 140.343 377.269 140.294C376.376 140.257 375.423 139.965 375.65 138.811C375.834 137.869 376.72 137.787 377.514 137.713C377.583 137.707 377.652 137.701 377.719 137.694C380.247 137.436 382.777 137.345 385.318 137.354C390.657 137.373 395.991 137.345 401.33 137.317C401.549 137.335 401.756 137.419 401.926 137.547C401.734 137.314 401.738 137.003 401.742 136.672C401.743 136.522 401.745 136.368 401.729 136.215C401.696 135.908 401.666 135.603 401.637 135.297C401.538 134.289 401.44 133.288 401.248 132.273C401.219 132.12 401.191 131.952 401.161 131.774C400.986 130.72 400.755 129.325 399.918 128.756C399.077 128.185 397.427 128.212 396.141 128.234C395.794 128.239 395.473 128.245 395.202 128.238C391.771 128.149 388.32 128.393 384.904 128.704C384.642 128.727 384.379 128.75 384.116 128.773C382.816 128.887 381.51 129 380.229 129.233C379.995 129.276 379.637 129.401 379.226 129.544C378.133 129.926 376.668 130.437 376.17 129.874C374.521 128.007 381.769 127.241 382.753 127.139Z" fill="#89C5CC"/>
<path fill-rule="evenodd" clip-rule="evenodd" d="M419.969 122.889C420.122 123.085 420.122 123.085 419.969 122.889V122.889ZM396.297 111.326C394.172 112.575 398.105 116.242 399.106 116.809C401.36 118.085 404.458 118.277 406.975 118.636C410.16 119.091 413.627 119.258 416.688 120.303C417.993 120.748 418.822 121.442 419.676 122.51C420.108 123.05 421.15 125.382 422.099 124.83C424.01 123.718 418.862 119.055 417.727 118.553C415.148 117.413 412.1 117.094 409.343 116.651C406.779 116.24 404.159 115.934 401.659 115.208C400.284 114.809 399.306 114.165 398.514 112.933C398.02 112.165 397.615 110.554 396.297 111.326Z" fill="#C1DEE2"/>
<path fill-rule="evenodd" clip-rule="evenodd" d="M428.867 125.649C426.417 125.703 423.972 125.892 421.528 126.081C420.157 126.186 418.786 126.292 417.414 126.374C416.985 126.4 416.556 126.423 416.126 126.446L416.126 126.446C414.918 126.511 413.708 126.576 412.505 126.698C412.322 126.716 412.111 126.734 411.88 126.753C410.859 126.837 409.466 126.951 408.576 127.324C407.76 126.706 406.501 127.231 406.482 128.332C406.448 130.337 406.466 132.306 406.711 134.298C406.768 134.761 407.06 137.103 407.695 138.322C407.469 139.473 408.45 139.795 409.362 139.884C412.898 140.225 416.605 139.96 420.262 139.699C422.122 139.566 423.969 139.434 425.774 139.383C426.375 139.366 426.982 139.359 427.594 139.352C429.589 139.33 431.623 139.307 433.556 138.929C433.633 138.914 433.717 138.899 433.804 138.883C434.567 138.746 435.621 138.557 435.701 137.716C435.749 137.211 435.465 136.749 434.988 136.684C435.021 136.264 434.968 135.805 434.929 135.467C434.92 135.389 434.912 135.317 434.906 135.254C434.79 134.084 434.499 132.921 434.211 131.774C434.147 131.516 434.082 131.259 434.02 131.003C433.951 130.719 433.887 130.381 433.818 130.017C433.575 128.732 433.27 127.117 432.458 126.367C431.607 125.581 430.221 125.615 429.111 125.643C429.028 125.645 428.946 125.647 428.867 125.649ZM433.177 136.81C432.887 136.049 432.802 135.02 432.721 134.043C432.67 133.429 432.621 132.835 432.524 132.34C432.451 131.969 432.391 131.577 432.33 131.179C432.183 130.213 432.029 129.209 431.667 128.362C431.182 127.228 430.749 127.271 429.727 127.374C429.537 127.393 429.326 127.414 429.091 127.43C428.049 127.501 427.009 127.591 425.968 127.681L425.968 127.681L425.968 127.681C425.468 127.724 424.969 127.767 424.47 127.809C422.333 127.984 420.195 128.12 418.056 128.255L418.056 128.255L418.056 128.255C416.807 128.334 415.557 128.413 414.308 128.5C413.328 128.568 412.371 128.754 411.418 128.94L411.418 128.94C410.663 129.087 409.911 129.234 409.151 129.321C409.14 129.581 409.118 129.842 409.097 130.09C409.069 130.428 409.043 130.744 409.048 131.002C409.073 132.147 409.174 133.285 409.275 134.425L409.275 134.425C409.291 134.6 409.307 134.775 409.322 134.951C409.34 135.161 409.385 135.431 409.435 135.73C409.513 136.194 409.602 136.727 409.622 137.219C409.715 137.218 409.807 137.219 409.897 137.219C410.014 137.219 410.129 137.22 410.239 137.218C412.932 137.171 415.622 137.089 418.313 136.986C418.656 136.972 419 136.959 419.343 136.946C421.744 136.852 424.145 136.759 426.548 136.731C427.502 136.72 428.469 136.75 429.439 136.78C430.687 136.819 431.94 136.858 433.177 136.81Z" fill="#89C5CC"/>
</g>
<path fill-rule="evenodd" clip-rule="evenodd" d="M98.2393 248.569L126.065 346.215L146.367 418.185H161.174L139.6 248.569H98.2393Z" fill="#191847"/>
<path fill-rule="evenodd" clip-rule="evenodd" d="M90.7979 248.569C90.1543 298.897 87.9596 326.347 87.2839 330.919C86.6081 335.492 76.3904 364.58 56.6306 418.185H71.97C97.1257 366.761 111.168 337.672 114.098 330.919C117.027 324.167 126.067 296.717 139.684 248.569H90.7979Z" fill="#2F3676"/>
<path fill-rule="evenodd" clip-rule="evenodd" d="M55.2596 432L56.0271 415.883L72.1445 415.883C83.6081 423.941 102.077 428.93 102.077 428.93V432H72.912L62.9345 430.465V432H55.2596Z" fill="#191847"/>
<path fill-rule="evenodd" clip-rule="evenodd" d="M144.289 432L145.056 415.883L161.174 415.883C172.637 423.941 191.106 428.93 191.106 428.93V432H161.941L151.964 430.465V432H144.289Z" fill="#191847"/>
<path fill-rule="evenodd" clip-rule="evenodd" d="M115.075 149.75C120.045 152.745 124.928 154.193 127.22 153.602C132.968 152.12 133.497 131.092 129.049 122.803C124.602 114.513 101.738 110.9 100.585 127.324C100.185 133.025 102.579 138.112 106.116 142.263L99.7743 171.819H118.194L115.075 149.75Z" fill="#B28B67"/>
<path fill-rule="evenodd" clip-rule="evenodd" d="M104.7 145.961C102.388 135.675 95.8021 128.664 96.808 124.067C97.8138 119.47 102.17 118.35 102.17 118.35C102.17 118.35 104.423 109.236 116.702 110.597C128.981 111.958 136.475 117.057 133.239 128.278C130.264 128.278 126.672 127.202 121.706 129.045C119.342 129.923 118.325 134.487 118.325 134.487H116.08C116.08 134.487 112.813 129.07 109.637 130.506C106.461 131.942 108.193 137.481 108.193 137.481L107.088 145.961H104.7Z" fill="#37231F"/>
<path fill-rule="evenodd" clip-rule="evenodd" d="M188.312 154.906L159.221 163.639L166.649 176.012L189.268 162.7C199.826 162.072 204.815 161.03 204.234 159.576C203.744 158.35 202.578 158.142 201.504 157.949C200.668 157.799 199.887 157.659 199.525 157.057C198.698 155.68 201.595 152.096 204.49 148.812C207.384 145.529 205.068 145.376 203.669 145.639C198.858 147.592 193.739 150.681 188.312 154.906ZM181.133 232.906L156.651 214.928L151.239 228.306L175.482 238.359C182.339 246.413 186.173 249.771 186.984 248.432C187.668 247.303 187.134 246.246 186.641 245.273C186.257 244.514 185.899 243.806 186.163 243.155C186.765 241.666 191.371 241.823 195.735 242.158C200.099 242.494 198.827 240.552 197.775 239.593C193.32 236.926 187.773 234.697 181.133 232.906Z" fill="#B28B67"/>
<path fill-rule="evenodd" clip-rule="evenodd" d="M118.624 166.514C131.956 191.372 151.235 210.428 179.184 230.238L168.601 242.17C137.395 230.573 120.926 223.576 112.838 200.09C110.808 194.195 109.389 175.404 108.172 165.517L118.624 166.514Z" fill="#2026A2"/>
<path fill-rule="evenodd" clip-rule="evenodd" d="M81.3544 249.336H140.451C140.451 249.336 120.372 188.096 119.937 165.274C119.922 164.498 118.489 163.131 117.855 163.31C110.903 165.274 102.976 161.842 102.976 161.842C88.966 184.374 84.1211 212.116 81.3544 249.336Z" fill="#F2F2F2"/>
<path fill-rule="evenodd" clip-rule="evenodd" d="M117.8 196.219C127.03 235.811 126.604 268.221 106.227 268.221H74.7164C69.7118 234.588 82.8649 187.955 95.0587 164.433C95.5244 163.535 96.5158 161.842 98.851 161.842H108.007C108.011 161.854 108.015 161.866 108.019 161.878C110.774 161.901 113.809 162.002 117.095 162.111C134.011 162.672 157.598 163.455 184.139 154.935L187.269 170.571C163.313 185.978 139.055 197.913 117.8 196.219Z" fill="#1F28CF"/>
<path fill-rule="evenodd" clip-rule="evenodd" d="M397.233 161.111C392.233 164.126 387.321 165.582 385.015 164.987C379.232 163.497 378.701 142.337 383.175 133.995C387.649 125.654 410.65 122.018 411.81 138.545C412.212 144.282 409.804 149.401 406.246 153.578L412.626 183.319H394.095L397.233 161.111Z" fill="#B28B67"/>
<path fill-rule="evenodd" clip-rule="evenodd" d="M374.965 122.431C375.349 121.082 376.381 119.927 377.772 119.584C378.11 119.501 378.458 119.468 378.805 119.482C378.93 119.487 378.964 119.523 379.023 119.435C379.066 119.371 379.067 119.213 379.085 119.137C379.14 118.901 379.209 118.668 379.294 118.441C379.585 117.667 380.074 116.982 380.664 116.405C381.767 115.325 383.257 114.58 384.805 114.445C385.652 114.372 386.494 114.509 387.295 114.785C387.709 114.928 388.112 115.105 388.503 115.302C388.621 115.361 389.004 115.651 389.122 115.632C389.253 115.611 389.515 115.286 389.622 115.205C390.935 114.197 392.558 113.8 394.194 113.812C396.041 113.826 397.819 113.918 399.36 115.045C399.686 115.283 399.996 115.544 400.292 115.819C400.447 115.964 400.598 116.114 400.742 116.27C400.829 116.364 400.913 116.461 400.995 116.56C401.133 116.728 401.111 116.783 401.304 116.666C402.045 116.216 402.904 116.005 403.769 116.111C404.283 116.174 404.783 116.329 405.258 116.532C405.419 116.601 405.793 116.877 405.966 116.879C406.137 116.882 406.505 116.626 406.681 116.561C407.632 116.21 408.657 116.124 409.656 116.286C410.687 116.453 411.699 116.865 412.572 117.433C412.992 117.707 413.359 118.009 413.653 118.416C413.78 118.592 413.895 118.777 414.039 118.94C414.124 119.035 414.291 119.133 414.336 119.254C414.309 119.181 415.463 118.736 415.572 118.708C416.152 118.556 416.743 118.587 417.311 118.774C418.38 119.126 419.299 119.915 420.054 120.723C420.442 121.139 420.781 121.598 421.07 122.087C421.208 122.321 421.334 122.562 421.449 122.808C421.505 122.928 421.543 123.077 421.616 123.184C421.711 123.323 421.775 123.325 421.947 123.386C422.822 123.692 423.619 124.211 424.226 124.912C424.84 125.621 425.239 126.494 425.406 127.414C425.416 127.468 425.421 127.692 425.453 127.722C425.497 127.762 425.672 127.744 425.739 127.752C425.969 127.779 426.198 127.819 426.424 127.873C426.84 127.971 427.245 128.116 427.628 128.306C429.121 129.045 430.189 130.43 430.712 131.989C431.26 133.625 431.25 135.5 430.595 137.105C430.489 137.364 430.363 137.616 430.215 137.854C430.124 138 430.095 138.001 430.154 138.154C430.22 138.325 430.34 138.491 430.418 138.657C430.673 139.201 430.851 139.778 430.963 140.368C431.148 141.335 431.239 142.35 431.057 143.325C430.973 143.777 430.825 144.219 430.601 144.622C430.486 144.827 430.352 145.022 430.201 145.202C430.122 145.296 430.039 145.385 429.951 145.471C429.901 145.52 429.836 145.563 429.793 145.617C429.69 145.75 429.668 145.641 429.721 145.836C429.796 146.11 429.966 146.38 430.069 146.646C430.176 146.92 430.273 147.198 430.361 147.479C430.54 148.047 430.691 148.626 430.786 149.214C430.968 150.344 430.936 151.548 430.401 152.585C430.173 153.029 429.845 153.418 429.448 153.721C429.253 153.869 429.042 153.997 428.821 154.102C428.707 154.155 428.562 154.179 428.511 154.289C428.455 154.407 428.538 154.641 428.557 154.773C428.721 155.923 428.803 157.13 428.462 158.256C428.147 159.293 427.454 160.209 426.555 160.816C424.81 161.992 422.459 161.926 420.625 160.984C420.148 160.739 419.701 160.434 419.302 160.074C418.286 161.442 416.197 161.398 414.712 161.009C412.863 160.523 411.38 159.237 410.525 157.548C409.356 158.971 406.903 158.509 406.092 156.965C405.894 156.587 405.776 156.171 405.718 155.749C405.688 155.528 405.707 155.304 405.684 155.084C405.655 154.804 405.468 154.532 405.36 154.261C405.151 153.733 405.021 153.188 405.015 152.619C405.012 152.322 405.05 152.033 405.078 151.738C405.104 151.473 405.03 151.226 404.988 150.964C405.462 151.042 406.04 150.914 406.487 150.777C406.925 150.642 407.336 150.286 407.646 149.961C408.364 149.208 408.803 148.219 409.103 147.236C409.762 145.077 409.492 142.487 407.321 141.302C406.31 140.75 403.28 140.752 402.076 141.025C400.81 141.312 399.374 144.107 399.303 144.369C399.259 144.532 399.281 144.733 399.132 144.842C398.804 145.08 398.263 144.666 398.021 144.462C397.603 144.11 397.305 143.642 397.047 143.167C396.485 142.132 396.031 141.023 395.711 139.89C395.464 139.017 395.306 138.116 394.984 137.265C394.663 136.418 394.156 135.661 393.369 135.182C392.513 134.66 391.532 134.385 390.592 134.057C389.661 133.732 388.745 133.335 388.023 132.645C387.864 132.494 387.71 132.333 387.582 132.154C387.482 132.013 387.382 131.743 387.228 131.654C386.989 131.515 386.64 131.876 386.434 132.008C385.414 132.655 384.564 133.559 383.878 134.545C383.195 135.527 382.636 136.471 382.181 137.567C381.843 138.38 381.633 139.421 381.039 140.087C380.774 140.384 378.805 140.564 378.167 140.304C377.529 140.045 376.814 139.371 376.6 138.948C376.381 138.515 376.329 138.04 376.422 137.567C376.478 137.288 376.59 137.028 376.652 136.755C376.703 136.525 376.75 136.308 376.862 136.097C377.074 135.698 377.436 135.411 377.873 135.291C377.419 134.872 377.042 134.371 376.781 133.811C376.511 133.228 376.281 132.52 376.216 131.881C376.163 131.362 376.245 130.824 376.529 130.378C376.827 129.91 377.355 129.605 377.812 129.313C377.114 128.767 376.517 128.103 376.026 127.368C375.071 125.938 374.481 124.136 374.965 122.431Z" fill="#191847"/>
<path fill-rule="evenodd" clip-rule="evenodd" d="M418.802 247.42L381.678 345.678L355.657 418.099H340.82L376.588 247.42L418.802 247.42Z" fill="#1F28CF"/>
<path fill-rule="evenodd" clip-rule="evenodd" d="M427.978 247.42C428.381 281.134 428.089 326.525 429.03 328.627C429.97 330.728 487.52 376.516 487.52 376.516L479.872 389.523C479.872 389.523 411.547 345.451 408.054 339.579C404.561 333.707 387.011 279.674 377.881 247.42H427.978Z" fill="#2B44FF"/>
<path fill-rule="evenodd" clip-rule="evenodd" d="M500.975 385.269L488.057 375.436L477.635 387.86C476.433 401.909 468.334 419.372 468.334 419.372L470.7 421.358L489.56 398.876L494.829 390.192L496.012 391.185L500.975 385.269Z" fill="#191847"/>
<path fill-rule="evenodd" clip-rule="evenodd" d="M357.034 432L356.262 415.782L340.047 415.782C328.515 423.891 309.935 428.911 309.935 428.911V432H339.275L349.313 430.455V432H357.034Z" fill="#191847"/>
<path fill-rule="evenodd" clip-rule="evenodd" d="M321.916 212.609L352.401 216.768L346.932 230.43L322.196 220.62C311.534 221.672 306.378 221.419 306.729 219.86C307.025 218.546 308.158 218.149 309.202 217.784C310.015 217.499 310.774 217.234 311.041 216.568C311.649 215.048 308.183 211.897 304.767 209.049C301.352 206.2 303.645 205.676 305.086 205.718C310.208 206.919 315.818 209.216 321.916 212.609ZM470.226 287.509C467.964 282.917 448.166 223.826 448.166 223.826L431.259 223.89C431.259 223.89 459.067 286.485 460.258 289.438C461.806 293.273 459.177 298.846 457.395 302.624C457.12 303.209 456.864 303.75 456.648 304.236C459.12 305.343 460.308 304.005 461.561 302.595C462.975 301.002 464.472 299.316 467.995 300.956C469.356 301.589 470.644 302.338 471.903 303.07C476.25 305.597 480.243 307.919 485.675 304.566C486.537 304.034 487.48 302.033 485.2 300.469C479.519 296.573 471.332 289.754 470.226 287.509Z" fill="#997659"/>
<path fill-rule="evenodd" clip-rule="evenodd" d="M401.855 170.19L388.617 171.072C385.357 200.575 367.599 219.21 327.84 212.901L322.557 250.894C359.719 255.698 392.309 240.817 398.988 200.525C400.717 190.094 402.083 179.24 401.855 170.19Z" fill="#AFB9C5"/>
<path fill-rule="evenodd" clip-rule="evenodd" d="M467.907 279.857C458.716 230.942 439.317 193.1 409.71 166.329H408.44H408.397L408.386 166.341L388.329 170.936C388.329 195.034 382.969 213.041 377.816 230.352C375.591 237.828 373.404 245.175 371.704 252.826H425.872C426.635 261.593 427.104 270.603 427.348 279.857H467.907Z" fill="#C5CFD6"/>
<path fill-rule="evenodd" clip-rule="evenodd" d="M425.872 252.826C424.319 234.979 421.545 218.142 416.959 202.316C417.964 219.241 418.243 240.236 414.863 252.826H425.872Z" fill="black" fill-opacity="0.1"/>
</svg>
