<svg width="536" height="675" viewBox="0 0 536 675" fill="none" xmlns="http://www.w3.org/2000/svg">
<g clip-path="url(#clip0)">
<path d="M487.354 443.039C485.841 443.038 484.356 442.632 483.052 441.863L457.317 426.406L458.89 423.807L484.625 439.246C485.441 439.734 486.374 439.991 487.325 439.991C488.276 439.991 489.209 439.734 490.026 439.246L531.926 414.779C532.258 414.59 532.531 414.313 532.715 413.978C532.899 413.643 532.986 413.264 532.968 412.883C532.971 412.495 532.868 412.113 532.671 411.779C532.474 411.445 532.19 411.171 531.85 410.986L476.04 381.076L477.461 378.401L533.29 408.331C534.095 408.76 534.771 409.398 535.247 410.177C535.723 410.956 535.982 411.849 535.998 412.762C536.013 413.675 535.784 414.576 535.335 415.371C534.886 416.166 534.232 416.826 533.442 417.283L491.561 441.806C490.293 442.585 488.841 443.01 487.354 443.039Z" fill="#B2D3EA"/>
<path d="M383.258 675C381.414 675.002 379.6 674.532 377.989 673.634L275.296 616.412C274.562 616.003 273.95 615.405 273.525 614.679C273.099 613.954 272.874 613.128 272.874 612.287C272.874 611.446 273.099 610.62 273.525 609.895C273.95 609.17 274.562 608.571 275.296 608.162L321.782 581.931C322.032 581.793 322.24 581.59 322.384 581.343C322.528 581.095 322.601 580.814 322.597 580.528C322.597 580.243 322.522 579.962 322.379 579.716C322.236 579.469 322.03 579.265 321.782 579.124L270.103 549.442C269.413 549.041 268.837 548.468 268.432 547.78C268.027 547.091 267.806 546.31 267.791 545.511C267.776 544.712 267.967 543.923 268.345 543.219C268.724 542.516 269.277 541.922 269.952 541.495L290.949 528.066L292.579 530.627L271.449 544.017C271.213 544.165 271.02 544.372 270.89 544.619C270.76 544.865 270.698 545.142 270.71 545.421C270.712 545.698 270.787 545.97 270.927 546.209C271.066 546.449 271.266 546.648 271.506 546.786L323.222 576.507C323.936 576.91 324.53 577.495 324.943 578.204C325.356 578.912 325.574 579.717 325.574 580.537C325.574 581.357 325.356 582.163 324.943 582.871C324.53 583.579 323.936 584.165 323.222 584.568L276.755 610.817C276.49 610.963 276.27 611.177 276.116 611.437C275.962 611.698 275.881 611.994 275.881 612.297C275.881 612.599 275.962 612.896 276.116 613.156C276.27 613.416 276.49 613.63 276.755 613.776L379.468 670.979C380.672 671.648 382.031 671.988 383.408 671.965C384.785 671.942 386.132 671.556 387.313 670.846L426.37 646.816C426.479 646.748 426.569 646.653 426.629 646.54C426.688 646.426 426.717 646.299 426.712 646.171C426.712 646.044 426.679 645.919 426.616 645.81C426.552 645.7 426.461 645.608 426.352 645.545L398.096 628.342L399.669 625.763L427.924 642.947C428.473 643.287 428.925 643.761 429.239 644.326C429.553 644.89 429.718 645.525 429.718 646.171C429.718 646.817 429.553 647.452 429.239 648.016C428.925 648.58 428.473 649.055 427.924 649.395L388.867 673.426C387.175 674.45 385.236 674.995 383.258 675Z" fill="#B2D3EA"/>
<path d="M427.621 444.595L378.122 415.993C375.09 414.229 375.469 411.175 378.975 409.146L426.787 381.512C428.588 380.516 430.596 379.953 432.652 379.867C434.707 379.782 436.754 380.176 438.632 381.019L488.15 409.639C491.201 411.384 490.803 414.457 487.297 416.486L439.484 444.12C437.68 445.116 435.668 445.678 433.609 445.76C431.55 445.842 429.5 445.443 427.621 444.595Z" fill="#B2D3EA"/>
<path d="M504.561 387.847V366.433H456.597L440.015 356.855C436.225 354.655 429.554 354.959 425.158 357.481L409.694 366.414H361.673V388.435C361.664 389.276 361.901 390.102 362.356 390.81C362.811 391.518 363.463 392.077 364.231 392.418L426.238 428.245C430.028 430.427 436.68 430.142 441.076 427.62L500.941 393.025C503.481 391.507 504.713 389.611 504.561 387.847Z" fill="#396CAA"/>
<path d="M433.079 355.357C430.295 355.387 427.561 356.103 425.12 357.443L409.656 366.377H361.673V388.397C361.664 389.238 361.901 390.064 362.356 390.772C362.811 391.48 363.463 392.039 364.231 392.38L426.238 428.207C428.36 429.299 430.735 429.804 433.117 429.668L433.079 355.357Z" fill="#396CAA"/>
<path d="M367.112 366.358H361.673V388.378C361.664 389.219 361.901 390.045 362.356 390.753C362.811 391.461 363.463 392.02 364.231 392.361L367.112 394.011V366.358Z" fill="#5793CE"/>
<path d="M427.186 428.644C431.027 430.032 435.239 429.985 439.049 428.511V403.513H427.186V428.644Z" fill="#5793CE"/>
<path d="M426.238 406.244L364.231 370.416C360.441 368.216 360.896 364.366 365.293 361.825L425.158 327.23C429.554 324.688 436.206 324.423 440.015 326.623L502.003 362.45C505.793 364.651 505.338 368.482 500.941 371.023L441.076 405.618C436.68 408.16 430.028 408.444 426.238 406.244Z" fill="#D4ECFF"/>
<path d="M427.394 399.796L375.45 369.772C372.247 367.875 372.645 364.707 376.341 362.583L426.503 333.583C428.395 332.532 430.506 331.938 432.668 331.849C434.83 331.76 436.982 332.179 438.954 333.071L490.916 363.095C494.1 364.992 493.702 368.159 490.007 370.284L439.844 399.265C437.956 400.323 435.845 400.923 433.682 401.015C431.52 401.107 429.366 400.69 427.394 399.796Z" fill="#5793CE"/>
<path d="M481.763 393.499C481.703 394.367 481.445 395.211 481.008 395.964C480.571 396.717 479.967 397.359 479.243 397.842C477.859 398.639 476.741 397.975 476.741 396.382C476.788 395.512 477.038 394.665 477.473 393.91C477.907 393.156 478.514 392.514 479.243 392.038C480.626 391.242 481.763 391.887 481.763 393.499Z" fill="#D4ECFF"/>
<path d="M489.817 388.833C489.771 389.703 489.52 390.549 489.086 391.304C488.651 392.059 488.045 392.7 487.316 393.176C485.932 393.973 484.795 393.328 484.795 391.735C484.844 390.863 485.097 390.016 485.535 389.261C485.973 388.506 486.583 387.865 487.316 387.391C488.699 386.595 489.817 387.24 489.817 388.833Z" fill="#D4ECFF"/>
<path d="M497.871 384.186C497.822 385.055 497.57 385.901 497.136 386.655C496.701 387.409 496.097 388.051 495.37 388.53C493.986 389.326 492.868 388.681 492.868 387.069C492.915 386.199 493.165 385.353 493.6 384.598C494.035 383.843 494.641 383.202 495.37 382.726C496.753 381.929 497.871 382.536 497.871 384.186Z" fill="#D4ECFF"/>
<path d="M504.561 353.631V332.218H456.597L440.015 322.735C436.225 320.534 429.554 320.838 425.158 323.36L409.694 332.294H361.673V354.086C361.663 354.926 361.9 355.749 362.355 356.454C362.81 357.159 363.463 357.715 364.231 358.05L426.238 393.916C430.028 396.116 436.68 395.813 441.076 393.309L500.941 358.714C503.481 357.292 504.712 355.395 504.561 353.631Z" fill="#396CAA"/>
<path d="M433.079 321.122C430.295 321.168 427.563 321.89 425.12 323.228L409.656 332.161H361.635V354.086C361.625 354.926 361.862 355.749 362.317 356.454C362.772 357.159 363.425 357.715 364.193 358.05L426.238 393.916C428.358 395.015 430.733 395.525 433.117 395.395L433.079 321.122Z" fill="#396CAA"/>
<path d="M367.112 332.142H361.673V354.086C361.663 354.926 361.9 355.749 362.355 356.454C362.81 357.159 363.463 357.715 364.231 358.05L367.112 359.719V332.142Z" fill="#5793CE"/>
<path d="M427.186 394.428C431.027 395.816 435.239 395.769 439.049 394.295V369.259H427.186V394.428Z" fill="#5793CE"/>
<path d="M426.238 372.029L364.231 336.201C360.441 334.001 360.896 330.15 365.293 327.609L425.158 293.014C429.554 290.472 436.206 290.207 440.015 292.407L502.003 328.235C505.793 330.435 505.338 334.266 500.941 336.808L441.076 371.403C436.68 373.944 430.028 374.229 426.238 372.029Z" fill="#D4ECFF"/>
<path d="M427.394 365.58L375.45 335.556C372.247 333.659 372.645 330.492 376.341 328.368L426.503 299.368C428.395 298.316 430.506 297.723 432.668 297.634C434.83 297.545 436.982 297.963 438.954 298.856L490.916 328.88C494.1 330.776 493.702 333.944 490.007 336.068L439.844 365.049C437.956 366.107 435.845 366.707 433.682 366.799C431.52 366.891 429.366 366.474 427.394 365.58Z" fill="#5793CE"/>
<path d="M481.763 359.283C481.712 360.151 481.457 360.995 481.019 361.747C480.581 362.498 479.973 363.135 479.243 363.607C477.859 364.423 476.741 363.759 476.741 362.166C476.788 361.296 477.038 360.449 477.473 359.695C477.907 358.94 478.514 358.299 479.243 357.823C480.626 357.026 481.763 357.671 481.763 359.283Z" fill="#D4ECFF"/>
<path d="M489.817 354.617C489.771 355.487 489.52 356.334 489.086 357.088C488.651 357.843 488.045 358.485 487.316 358.961C485.932 359.757 484.795 359.112 484.795 357.519C484.844 356.648 485.097 355.8 485.535 355.045C485.973 354.29 486.583 353.65 487.316 353.176C488.699 352.379 489.817 353.024 489.817 354.617Z" fill="#D4ECFF"/>
<path d="M497.871 349.971C497.824 350.837 497.572 351.681 497.138 352.432C496.703 353.184 496.097 353.822 495.37 354.295C493.986 355.11 492.868 354.447 492.868 352.853C492.915 351.984 493.165 351.137 493.6 350.382C494.035 349.628 494.641 348.986 495.37 348.51C496.753 347.714 497.871 348.396 497.871 349.971Z" fill="#D4ECFF"/>
<path d="M504.561 319.415V298.002H456.597L440.015 288.519C436.225 286.319 429.554 286.622 425.158 289.126L409.694 298.078H361.673V319.946C361.659 320.789 361.894 321.617 362.35 322.326C362.805 323.034 363.46 323.593 364.231 323.929L426.238 359.776C430.028 361.976 436.68 361.673 441.076 359.169L500.941 324.574C503.481 323.076 504.712 321.179 504.561 319.415Z" fill="#396CAA"/>
<path d="M433.079 286.907C430.297 286.955 427.568 287.67 425.12 288.993L409.656 297.945H361.635V319.946C361.621 320.789 361.856 321.617 362.312 322.326C362.767 323.034 363.422 323.593 364.193 323.929L426.238 359.776C428.358 360.875 430.733 361.386 433.117 361.256L433.079 286.907Z" fill="#396CAA"/>
<path d="M367.112 297.926H361.673V319.946C361.659 320.789 361.894 321.617 362.35 322.326C362.805 323.034 363.46 323.593 364.231 323.929L367.112 325.599V297.926Z" fill="#5793CE"/>
<path d="M427.186 360.212C431.027 361.601 435.239 361.553 439.049 360.08V335.12H427.186V360.212Z" fill="#5793CE"/>
<path d="M426.238 337.794L364.231 301.966C360.441 299.785 360.896 295.935 365.293 293.393L425.158 258.798C429.554 256.257 436.206 255.991 440.015 258.191L502.003 294.019C505.793 296.219 505.338 300.051 500.941 302.592L441.076 337.187C436.68 339.729 430.028 339.994 426.238 337.794Z" fill="#D4ECFF"/>
<path d="M500.941 298.382L441.076 332.977C436.68 335.518 430.028 335.784 426.238 333.583L364.231 297.756C363.484 297.339 362.837 296.763 362.336 296.068C361.029 298.173 361.635 300.468 364.231 301.966L426.238 337.794C430.028 339.994 436.68 339.691 441.076 337.187L500.941 302.592C504.352 300.695 505.395 297.869 503.917 295.707C503.152 296.823 502.132 297.74 500.941 298.382Z" fill="white"/>
<path d="M481.763 325.048C481.715 325.92 481.461 326.768 481.023 327.523C480.585 328.277 479.975 328.918 479.243 329.392C477.859 330.188 476.741 329.544 476.741 327.95C476.788 327.081 477.038 326.234 477.473 325.479C477.907 324.725 478.514 324.083 479.243 323.607C480.626 322.81 481.763 323.455 481.763 325.048Z" fill="#D4ECFF"/>
<path d="M489.817 320.402C489.771 321.272 489.52 322.118 489.086 322.873C488.651 323.627 488.045 324.269 487.316 324.745C485.932 325.542 484.795 324.897 484.795 323.304C484.844 322.432 485.097 321.584 485.535 320.829C485.973 320.075 486.583 319.434 487.316 318.96C488.699 318.164 489.817 318.809 489.817 320.402Z" fill="#D4ECFF"/>
<path d="M497.871 315.736C497.827 316.606 497.576 317.453 497.142 318.208C496.707 318.963 496.1 319.604 495.37 320.079C493.986 320.876 492.868 320.231 492.868 318.638C492.915 317.768 493.165 316.921 493.6 316.167C494.035 315.412 494.641 314.771 495.37 314.294C496.753 313.498 497.871 314.143 497.871 315.736Z" fill="#D4ECFF"/>
<path d="M429.895 315.584L400.863 298.818C399.082 297.794 399.309 295.992 401.356 294.816L429.384 278.618C430.438 278.035 431.614 277.705 432.818 277.656C434.022 277.606 435.221 277.838 436.32 278.334L465.295 295.1C467.077 296.125 466.849 297.926 464.802 299.121L436.869 315.3C435.815 315.903 434.631 316.244 433.417 316.293C432.203 316.343 430.996 316.099 429.895 315.584Z" fill="#5793CE"/>
<path d="M432.681 301.549L428.664 299.235C428.417 299.083 428.436 298.837 428.664 298.685L432.548 296.428C432.7 296.358 432.865 296.322 433.032 296.322C433.199 296.322 433.363 296.358 433.515 296.428L437.513 298.761C437.76 298.894 437.741 299.14 437.513 299.311L433.723 301.549C433.567 301.646 433.386 301.698 433.202 301.698C433.018 301.698 432.837 301.646 432.681 301.549Z" fill="#D4ECFF"/>
<path d="M400.863 298.818C400.994 298.712 401.134 298.617 401.28 298.533L429.308 282.336C430.362 281.752 431.538 281.422 432.742 281.373C433.946 281.324 435.145 281.556 436.244 282.051L465.295 298.818C466.944 297.642 467.02 296.049 465.295 295.024L436.282 278.258C435.183 277.763 433.984 277.53 432.78 277.58C431.576 277.629 430.4 277.959 429.346 278.543L401.318 294.74C399.328 295.992 399.101 297.794 400.863 298.818Z" fill="#396CAA"/>
<path d="M316.078 547.279L209.064 486.207C205.16 483.931 205.633 479.986 210.163 477.369L271.733 441.787C276.262 439.189 283.104 438.905 287.008 441.162L394.022 502.234C397.945 504.491 397.452 508.455 392.923 511.053L331.352 546.634C326.823 549.252 320.001 549.536 316.078 547.279Z" fill="#B2D3EA"/>
<path d="M403.573 481.674V231.638L304.215 205.616L285.927 195.033C281.72 192.605 274.405 192.928 269.554 195.716L252.498 205.578H199.531L215.147 447.022C215.138 447.949 215.401 448.857 215.903 449.636C216.405 450.415 217.123 451.029 217.97 451.403L317.082 526.264C321.289 528.692 328.623 528.389 333.456 525.582L399.518 487.402C402.379 485.714 403.725 483.628 403.573 481.674Z" fill="#396CAA"/>
<path d="M278.347 193.421C275.28 193.468 272.271 194.255 269.573 195.716L252.517 205.578H199.531V456.278C199.519 457.203 199.778 458.111 200.276 458.89C200.775 459.669 201.491 460.284 202.336 460.659L317.139 526.188C319.478 527.389 322.094 527.946 324.719 527.801L325.913 275.546L278.347 193.421Z" fill="#D4ECFF"/>
<path d="M318.2 526.682C322.44 528.216 327.092 528.162 331.295 526.53V272.53H318.2V526.682Z" fill="#5793CE"/>
<path d="M317.139 275.546L202.336 210.035C198.129 207.608 198.66 203.378 203.511 200.552L269.573 162.373C274.424 159.584 281.739 159.281 285.946 161.709L400.749 227.219C404.956 229.647 404.426 233.876 399.574 236.702L333.512 274.863C328.68 277.67 321.27 277.974 317.139 275.546Z" fill="#D4ECFF"/>
<path d="M399.574 232.056L333.512 270.216C328.68 273.023 321.346 273.327 317.139 270.899L202.336 205.389C201.506 204.916 200.788 204.269 200.233 203.492C198.792 205.806 199.456 208.328 202.336 209.998L317.139 275.508C321.346 277.936 328.68 277.632 333.512 274.825L399.574 236.664C403.364 234.483 404.483 231.449 402.853 229.078C402.019 230.323 400.893 231.345 399.574 232.056Z" fill="#FAFDFF"/>
<path d="M320.38 248.993L243.952 204.649C242.057 203.511 242.227 201.538 244.501 200.23L275.41 182.363C276.575 181.714 277.876 181.346 279.209 181.29C280.542 181.234 281.869 181.491 283.085 182.041L359.513 226.385C361.408 227.523 361.237 229.514 358.963 230.823L328.055 248.67C326.891 249.324 325.589 249.694 324.256 249.75C322.922 249.806 321.594 249.546 320.38 248.993Z" fill="#173D7A"/>
<path d="M279.124 206.64L274.689 204.08C274.424 203.928 274.462 203.663 274.689 203.473L278.972 201.007C279.137 200.924 279.319 200.881 279.503 200.881C279.687 200.881 279.869 200.924 280.033 201.007L284.468 203.568C284.733 203.739 284.695 204.004 284.468 204.194L280.185 206.659C280.021 206.744 279.837 206.787 279.652 206.784C279.467 206.781 279.285 206.731 279.124 206.64Z" fill="#D4ECFF"/>
<path d="M293.924 215.156L289.49 212.596C289.225 212.444 289.244 212.179 289.49 211.989L293.773 209.523C293.937 209.44 294.119 209.397 294.303 209.397C294.488 209.397 294.67 209.44 294.834 209.523L299.25 212.084C299.534 212.255 299.496 212.52 299.25 212.71L294.986 215.175C294.82 215.256 294.637 215.296 294.453 215.293C294.268 215.289 294.087 215.243 293.924 215.156Z" fill="#D4ECFF"/>
<path d="M308.725 223.672L304.215 221.112C303.93 220.96 303.968 220.695 304.215 220.505L308.497 218.039C308.659 217.956 308.837 217.913 309.019 217.913C309.2 217.913 309.379 217.956 309.54 218.039L313.974 220.6C314.258 220.77 314.221 221.036 313.974 221.226L309.71 223.691C309.554 223.756 309.385 223.788 309.216 223.785C309.046 223.781 308.879 223.743 308.725 223.672Z" fill="#D4ECFF"/>
<path d="M323.506 232.188L319.091 229.628C318.807 229.476 318.845 229.192 319.091 229.021L323.355 226.555C323.519 226.472 323.701 226.428 323.885 226.428C324.07 226.428 324.252 226.472 324.416 226.555L328.851 229.116C329.116 229.286 329.097 229.552 328.851 229.742L324.568 232.207C324.401 232.283 324.219 232.321 324.035 232.318C323.851 232.315 323.671 232.27 323.506 232.188Z" fill="#D4ECFF"/>
<path d="M243.952 204.649H244.046L244.501 204.326L275.41 186.479C276.575 185.83 277.876 185.462 279.209 185.406C280.542 185.35 281.869 185.607 283.085 186.157L359.418 230.443C361.313 229.154 361.313 227.39 359.513 226.328L283.085 181.984C281.869 181.434 280.542 181.177 279.209 181.233C277.876 181.289 276.575 181.657 275.41 182.306L244.501 200.173C242.227 201.538 241.981 203.511 243.952 204.649Z" fill="#5793CE"/>
<path d="M346.418 325.086L389.872 300.183C391.222 299.22 392.326 297.952 393.097 296.483C393.867 295.014 394.281 293.383 394.306 291.724V276.172C394.306 272.909 392.316 271.411 389.872 272.815L346.418 297.718C345.067 298.685 343.963 299.956 343.192 301.429C342.422 302.901 342.008 304.534 341.983 306.196V321.843C341.983 325.011 344.011 326.509 346.418 325.086Z" fill="#173D7A"/>
<path d="M392.032 272.34C392.424 272.779 392.724 273.292 392.913 273.85C393.102 274.407 393.176 274.997 393.131 275.584V291.136C393.109 292.794 392.697 294.423 391.93 295.892C391.163 297.362 390.062 298.63 388.716 299.595L345.243 324.498C344.61 324.91 343.849 325.078 343.101 324.973C343.556 325.373 344.135 325.603 344.739 325.623C345.344 325.644 345.937 325.454 346.418 325.086L389.872 300.183C391.222 299.22 392.326 297.952 393.097 296.483C393.867 295.014 394.281 293.383 394.306 291.724V276.172C394.306 273.953 393.377 272.53 392.032 272.34Z" fill="white"/>
<path d="M359.494 308.187L363.473 305.892C363.774 305.677 364.019 305.392 364.187 305.062C364.356 304.732 364.442 304.366 364.44 303.996V299.728C364.44 299.007 364.004 298.685 363.473 298.988L359.494 301.302C359.193 301.518 358.948 301.803 358.779 302.133C358.611 302.463 358.525 302.829 358.527 303.199V307.467C358.527 308.168 358.963 308.567 359.494 308.187Z" fill="#396CAA"/>
<path d="M372.816 300.487L376.796 298.192C377.1 297.98 377.348 297.696 377.516 297.365C377.685 297.034 377.769 296.667 377.762 296.295V292.028C377.762 291.307 377.345 290.985 376.796 291.288L372.816 293.602C372.515 293.818 372.27 294.102 372.102 294.432C371.934 294.762 371.847 295.128 371.85 295.499V299.766C371.85 300.468 372.285 300.809 372.816 300.487Z" fill="white"/>
<path d="M346.418 437.539L389.872 412.636C391.222 411.673 392.326 410.405 393.097 408.936C393.867 407.466 394.281 405.836 394.306 404.177V388.624C394.306 385.362 392.316 383.864 389.872 385.267L346.418 410.17C345.067 411.138 343.963 412.409 343.192 413.881C342.422 415.354 342.008 416.986 341.983 418.648V434.201C341.983 437.406 344.011 438.905 346.418 437.539Z" fill="#173D7A"/>
<path d="M392.032 384.736C392.424 385.175 392.724 385.688 392.913 386.245C393.102 386.803 393.176 387.393 393.131 387.979V403.532C393.107 405.192 392.695 406.823 391.928 408.295C391.162 409.767 390.061 411.04 388.716 412.01L345.243 436.913C344.605 437.312 343.847 437.473 343.101 437.368C343.556 437.768 344.135 437.998 344.739 438.019C345.344 438.04 345.937 437.85 346.418 437.482L389.872 412.579C391.222 411.616 392.326 410.348 393.097 408.879C393.867 407.409 394.281 405.779 394.306 404.12V388.567C394.306 386.329 393.377 384.983 392.032 384.736Z" fill="white"/>
<path d="M359.494 420.583L363.473 418.288C363.774 418.072 364.019 417.787 364.187 417.457C364.356 417.127 364.442 416.762 364.44 416.391V412.124C364.44 411.403 364.004 411.081 363.473 411.384L359.494 413.698C359.193 413.914 358.948 414.198 358.779 414.528C358.611 414.859 358.525 415.224 358.527 415.595V419.862C358.527 420.564 358.963 420.905 359.494 420.583Z" fill="#396CAA"/>
<path d="M372.816 412.882L376.796 410.588C377.1 410.375 377.348 410.091 377.516 409.76C377.685 409.43 377.769 409.062 377.762 408.691V404.423C377.762 403.703 377.345 403.38 376.796 403.684L372.816 405.998C372.515 406.213 372.27 406.498 372.102 406.828C371.934 407.158 371.847 407.524 371.85 407.894V412.162C371.85 412.882 372.285 413.205 372.816 412.882Z" fill="#396CAA"/>
<path d="M346.418 493.68L389.872 468.777C391.222 467.813 392.326 466.546 393.097 465.077C393.867 463.607 394.281 461.977 394.306 460.318V444.765C394.306 441.503 392.316 440.005 389.872 441.408L346.418 466.311C345.067 467.279 343.963 468.55 343.192 470.022C342.422 471.495 342.008 473.127 341.983 474.789V490.342C341.983 493.604 344.011 495.102 346.418 493.68Z" fill="#173D7A"/>
<path d="M392.032 440.934C392.424 441.372 392.724 441.886 392.913 442.443C393.102 443 393.176 443.59 393.131 444.177V459.73C393.107 461.39 392.695 463.021 391.928 464.493C391.162 465.965 390.061 467.237 388.716 468.208L345.243 493.111C344.605 493.51 343.847 493.671 343.101 493.566C343.556 493.966 344.135 494.196 344.739 494.217C345.344 494.238 345.937 494.048 346.418 493.68L389.872 468.777C391.222 467.813 392.326 466.546 393.097 465.077C393.867 463.607 394.281 461.977 394.306 460.318V444.765C394.306 442.546 393.377 441.181 392.032 440.934Z" fill="white"/>
<path d="M359.494 476.781L363.473 474.486C363.774 474.27 364.019 473.985 364.187 473.655C364.356 473.325 364.442 472.96 364.44 472.589V468.322C364.44 467.601 364.004 467.279 363.473 467.582L359.494 469.896C359.193 470.111 358.948 470.396 358.779 470.726C358.611 471.056 358.525 471.422 358.527 471.793V476.06C358.527 476.762 358.963 477.103 359.494 476.781Z" fill="white"/>
<path d="M372.816 469.08L376.796 466.785C377.1 466.573 377.348 466.289 377.516 465.958C377.685 465.627 377.769 465.26 377.762 464.889V460.678C377.762 459.957 377.345 459.635 376.796 459.938L372.816 462.195C372.515 462.411 372.27 462.696 372.102 463.026C371.934 463.356 371.847 463.722 371.85 464.092V468.36C371.85 469.061 372.285 469.403 372.816 469.08Z" fill="#396CAA"/>
<path d="M346.418 381.284L389.872 356.381C391.222 355.418 392.326 354.15 393.097 352.681C393.867 351.211 394.281 349.581 394.306 347.922V332.37C394.306 329.107 392.316 327.609 389.872 329.012L346.418 353.916C345.067 354.883 343.963 356.154 343.192 357.626C342.422 359.099 342.008 360.732 341.983 362.394V377.946C341.983 381.208 344.011 382.707 346.418 381.284Z" fill="#173D7A"/>
<path d="M392.032 328.538C392.424 328.977 392.724 329.49 392.913 330.047C393.102 330.605 393.176 331.195 393.131 331.782V347.334C393.107 348.994 392.695 350.625 391.928 352.097C391.162 353.57 390.061 354.842 388.716 355.812L345.243 380.639C344.61 381.051 343.849 381.219 343.101 381.114C343.556 381.514 344.135 381.744 344.739 381.764C345.344 381.785 345.937 381.595 346.418 381.227L389.872 356.324C391.222 355.361 392.326 354.093 393.097 352.624C393.867 351.155 394.281 349.524 394.306 347.865V332.313C394.306 330.15 393.377 328.766 392.032 328.538Z" fill="white"/>
<path d="M359.494 364.385L363.473 362.09C363.774 361.875 364.019 361.59 364.187 361.26C364.356 360.93 364.442 360.564 364.44 360.193V355.983C364.44 355.262 364.004 354.94 363.473 355.243L359.494 357.557C359.193 357.773 358.948 358.058 358.779 358.388C358.611 358.718 358.525 359.083 358.527 359.454V363.721C358.527 364.366 358.963 364.708 359.494 364.385Z" fill="white"/>
<path d="M372.816 356.685L376.796 354.39C377.1 354.178 377.348 353.893 377.516 353.563C377.685 353.232 377.769 352.864 377.762 352.493V348.226C377.762 347.505 377.345 347.182 376.796 347.486L372.816 349.8C372.515 350.015 372.27 350.3 372.102 350.63C371.934 350.96 371.847 351.326 371.85 351.696V355.983C371.85 356.666 372.285 357.007 372.816 356.685Z" fill="white"/>
<path d="M308.782 309.174L208.514 251.231C207.28 250.344 206.271 249.18 205.567 247.833C204.863 246.486 204.483 244.993 204.458 243.473V224.336C204.458 221.339 206.354 219.955 208.514 221.264L308.782 279.187C310.016 280.078 311.025 281.245 311.729 282.595C312.433 283.945 312.812 285.441 312.837 286.964V306.101C312.837 309.098 311.018 310.463 308.782 309.174Z" fill="#5793CE"/>
<path opacity="0.4" d="M305.901 302.459L211.357 247.874C210.729 247.422 210.216 246.83 209.857 246.146C209.499 245.461 209.305 244.702 209.291 243.929V229.552C209.291 228.016 210.219 227.333 211.357 227.978L305.863 282.601C306.492 283.047 307.007 283.634 307.366 284.317C307.725 284.999 307.918 285.756 307.929 286.527V300.98C308.005 302.421 307.038 303.123 305.901 302.459Z" fill="#D4ECFF"/>
<path d="M231.084 251.951L217.042 243.815C216.438 243.38 215.942 242.811 215.594 242.153C215.245 241.495 215.053 240.766 215.033 240.022C215.033 238.542 215.943 237.859 217.042 238.504L231.141 246.66C231.75 247.089 232.25 247.657 232.599 248.316C232.948 248.975 233.137 249.707 233.15 250.453C233.093 251.914 232.202 252.596 231.084 251.951Z" fill="#D4ECFF"/>
<path d="M243.099 256.238C243.099 257.717 242.075 258.305 240.787 257.566C240.115 257.127 239.556 256.536 239.154 255.841C238.752 255.145 238.52 254.365 238.475 253.564C238.475 252.084 239.517 251.496 240.787 252.217C241.462 252.657 242.024 253.25 242.426 253.949C242.828 254.648 243.058 255.432 243.099 256.238Z" fill="#173D7A"/>
<path d="M251.267 260.942C251.267 262.421 250.224 263.028 248.955 262.288C248.279 261.849 247.717 261.255 247.316 260.556C246.914 259.857 246.683 259.073 246.643 258.267C246.643 256.807 247.666 256.2 248.955 256.94C249.626 257.379 250.186 257.969 250.587 258.665C250.989 259.36 251.222 260.14 251.267 260.942Z" fill="#173D7A"/>
<path d="M259.415 265.664C259.415 267.125 258.373 267.732 257.103 266.992C256.431 266.553 255.872 265.962 255.47 265.267C255.069 264.572 254.836 263.792 254.791 262.99C254.791 261.511 255.834 260.904 257.103 261.643C257.776 262.086 258.335 262.681 258.736 263.379C259.138 264.077 259.37 264.86 259.415 265.664Z" fill="#D4ECFF"/>
<path d="M267.564 270.368C267.564 271.847 266.541 272.435 265.252 271.715C264.58 271.272 264.021 270.677 263.619 269.979C263.218 269.281 262.985 268.498 262.94 267.694C262.94 266.214 263.982 265.626 265.252 266.366C265.927 266.802 266.489 267.392 266.891 268.088C267.293 268.783 267.524 269.565 267.564 270.368Z" fill="#173D7A"/>
<path d="M301.922 294.455L297.165 291.705C296.777 291.421 296.461 291.05 296.24 290.622C296.02 290.194 295.902 289.721 295.895 289.24V284.213C295.895 283.265 296.464 282.829 297.165 283.246L301.922 285.996C302.316 286.272 302.639 286.637 302.863 287.063C303.087 287.489 303.206 287.962 303.21 288.443V293.393C303.21 294.417 302.642 294.854 301.922 294.455Z" fill="#173D7A"/>
<path d="M308.782 342.915L208.514 284.972C207.28 284.085 206.271 282.922 205.567 281.575C204.863 280.228 204.483 278.735 204.458 277.215V258.078C204.458 255.081 206.354 253.696 208.514 255.005L308.782 312.929C310.016 313.82 311.025 314.987 311.729 316.337C312.433 317.687 312.812 319.183 312.837 320.705V339.842C312.837 342.839 311.018 344.205 308.782 342.915Z" fill="#5793CE"/>
<path opacity="0.4" d="M305.901 336.201L211.357 281.596C210.729 281.145 210.216 280.553 209.857 279.868C209.499 279.183 209.305 278.424 209.291 277.651V263.274C209.291 261.738 210.219 261.055 211.357 261.7L305.863 316.324C306.492 316.769 307.007 317.357 307.366 318.039C307.725 318.721 307.918 319.479 307.929 320.25V334.645C308.005 336.163 307.038 336.865 305.901 336.201Z" fill="#D4ECFF"/>
<path d="M231.084 285.693L217.042 277.556C216.438 277.121 215.942 276.553 215.594 275.895C215.245 275.237 215.053 274.507 215.033 273.763C215.033 272.284 215.943 271.601 217.042 272.246L231.141 280.401C231.75 280.831 232.25 281.398 232.599 282.057C232.948 282.716 233.137 283.449 233.15 284.195C233.093 285.655 232.202 286.338 231.084 285.693Z" fill="#D4ECFF"/>
<path d="M243.099 289.979C243.099 291.459 242.075 292.047 240.787 291.307C240.115 290.868 239.556 290.277 239.154 289.582C238.752 288.887 238.52 288.107 238.475 287.305C238.475 285.826 239.517 285.238 240.787 285.958C241.462 286.398 242.024 286.992 242.426 287.691C242.828 288.39 243.058 289.174 243.099 289.979Z" fill="white"/>
<path d="M251.267 294.683C251.267 296.162 250.224 296.769 248.955 296.03C248.279 295.59 247.717 294.996 247.316 294.297C246.914 293.599 246.683 292.814 246.643 292.009C246.643 290.548 247.666 289.941 248.955 290.681C249.626 291.12 250.186 291.711 250.587 292.406C250.989 293.101 251.222 293.881 251.267 294.683Z" fill="#173D7A"/>
<path d="M259.415 299.406C259.415 300.866 258.373 301.473 257.103 300.733C256.431 300.294 255.872 299.704 255.47 299.008C255.069 298.313 254.836 297.533 254.791 296.731C254.791 295.252 255.834 294.645 257.103 295.385C257.776 295.828 258.335 296.422 258.736 297.12C259.138 297.819 259.37 298.601 259.415 299.406Z" fill="#D4ECFF"/>
<path d="M267.564 304.109C267.564 305.589 266.541 306.177 265.252 305.437C264.578 305 264.017 304.41 263.615 303.714C263.213 303.019 262.982 302.238 262.94 301.435C262.94 299.956 263.982 299.368 265.252 300.107C265.927 300.543 266.489 301.133 266.891 301.829C267.293 302.525 267.524 303.307 267.564 304.109Z" fill="#173D7A"/>
<path d="M301.922 328.197L297.165 325.447C296.777 325.162 296.461 324.791 296.24 324.363C296.02 323.936 295.902 323.462 295.895 322.981V318.05C295.895 317.101 296.464 316.665 297.165 317.083L301.922 319.833C302.316 320.108 302.639 320.474 302.863 320.899C303.087 321.325 303.206 321.798 303.21 322.279V327.305C303.21 328.159 302.642 328.595 301.922 328.197Z" fill="#173D7A"/>
<path d="M308.782 376.656L208.514 318.714C207.28 317.827 206.271 316.663 205.567 315.316C204.863 313.969 204.483 312.476 204.458 310.956V291.819C204.458 288.822 206.354 287.438 208.514 288.747L308.782 346.67C310.016 347.561 311.025 348.728 311.729 350.078C312.433 351.428 312.812 352.924 312.837 354.447V373.584C312.837 376.58 311.018 377.946 308.782 376.656Z" fill="#5793CE"/>
<path opacity="0.4" d="M305.901 369.942L211.357 315.338C210.729 314.886 210.216 314.295 209.857 313.61C209.499 312.925 209.305 312.166 209.291 311.393V297.016C209.291 295.48 210.219 294.797 211.357 295.442L305.863 350.046C306.517 350.499 307.053 351.102 307.426 351.805C307.799 352.508 307.997 353.29 308.005 354.086V368.482C308.005 369.904 307.038 370.606 305.901 369.942Z" fill="#D4ECFF"/>
<path d="M231.084 319.434L217.042 311.298C216.438 310.863 215.942 310.294 215.594 309.636C215.245 308.978 215.053 308.249 215.033 307.504C215.033 306.025 215.943 305.342 217.042 305.987L231.141 314.143C231.75 314.572 232.25 315.14 232.599 315.799C232.948 316.458 233.137 317.19 233.15 317.936C233.093 319.396 232.202 320.079 231.084 319.434Z" fill="#D4ECFF"/>
<path d="M243.099 323.74C243.099 325.219 242.075 325.807 240.787 325.067C240.115 324.629 239.556 324.038 239.154 323.342C238.752 322.647 238.52 321.867 238.475 321.066C238.475 319.586 239.517 318.998 240.787 319.719C241.462 320.159 242.024 320.752 242.426 321.451C242.828 322.15 243.058 322.934 243.099 323.74Z" fill="white"/>
<path d="M251.267 328.424C251.267 329.904 250.224 330.511 248.955 329.771C248.279 329.331 247.717 328.738 247.316 328.039C246.914 327.34 246.683 326.556 246.643 325.75C246.643 324.29 247.666 323.683 248.955 324.423C249.626 324.861 250.186 325.452 250.587 326.148C250.989 326.843 251.222 327.623 251.267 328.424Z" fill="#173D7A"/>
<path d="M259.415 333.223C259.415 334.684 258.373 335.29 257.103 334.551C256.431 334.112 255.872 333.521 255.47 332.826C255.069 332.131 254.836 331.351 254.791 330.549C254.791 329.069 255.834 328.462 257.103 329.202C257.776 329.645 258.335 330.24 258.736 330.938C259.138 331.636 259.37 332.419 259.415 333.223Z" fill="#D4ECFF"/>
<path d="M267.564 337.851C267.564 339.33 266.541 339.918 265.252 339.197C264.58 338.754 264.021 338.16 263.619 337.462C263.218 336.764 262.985 335.981 262.94 335.177C262.94 333.697 263.982 333.109 265.252 333.849C265.927 334.284 266.489 334.875 266.891 335.57C267.293 336.266 267.524 337.048 267.564 337.851Z" fill="#173D7A"/>
<path d="M301.922 361.938L297.165 359.188C296.777 358.904 296.461 358.533 296.24 358.105C296.02 357.677 295.902 357.204 295.895 356.723V351.696C295.895 350.748 296.464 350.312 297.165 350.729L301.922 353.479C302.316 353.755 302.639 354.12 302.863 354.546C303.087 354.972 303.206 355.445 303.21 355.926V360.952C303.21 361.9 302.642 362.337 301.922 361.938Z" fill="#173D7A"/>
<path d="M308.782 410.398L208.514 352.455C207.278 351.566 206.267 350.4 205.563 349.049C204.859 347.699 204.48 346.202 204.458 344.679V325.636C204.458 322.64 206.354 321.255 208.514 322.564L308.782 380.488C310.016 381.379 311.025 382.546 311.729 383.896C312.433 385.246 312.812 386.741 312.837 388.264V407.401C312.837 410.322 311.018 411.688 308.782 410.398Z" fill="#5793CE"/>
<path opacity="0.4" d="M305.901 403.684L211.357 349.079C210.729 348.628 210.216 348.036 209.857 347.351C209.499 346.666 209.305 345.907 209.291 345.134V330.757C209.291 329.221 210.219 328.538 211.357 329.183L305.863 383.788C306.491 384.239 307.004 384.831 307.363 385.516C307.721 386.201 307.915 386.96 307.929 387.733V402.128C308.005 403.646 307.038 404.348 305.901 403.684Z" fill="#D4ECFF"/>
<path d="M231.084 353.176L217.042 345.039C216.438 344.604 215.942 344.036 215.594 343.378C215.245 342.72 215.053 341.99 215.033 341.246C215.033 339.766 215.943 339.084 217.042 339.729L231.141 347.884C231.75 348.314 232.25 348.881 232.599 349.54C232.948 350.199 233.137 350.932 233.15 351.677C233.093 353.138 232.202 353.821 231.084 353.176Z" fill="#D4ECFF"/>
<path d="M243.099 357.462C243.099 358.942 242.075 359.53 240.787 358.79C240.115 358.351 239.556 357.76 239.154 357.065C238.752 356.37 238.52 355.59 238.475 354.788C238.475 353.309 239.517 352.721 240.787 353.441C241.462 353.881 242.024 354.475 242.426 355.174C242.828 355.873 243.058 356.657 243.099 357.462Z" fill="#173D7A"/>
<path d="M251.267 362.166C251.267 363.645 250.224 364.233 248.955 363.513C248.279 363.073 247.717 362.479 247.316 361.78C246.914 361.081 246.683 360.297 246.643 359.492C246.643 358.031 247.666 357.424 248.955 358.164C249.626 358.603 250.186 359.194 250.587 359.889C250.989 360.584 251.222 361.364 251.267 362.166Z" fill="#173D7A"/>
<path d="M259.415 366.889C259.415 368.349 258.373 368.956 257.103 368.216C256.431 367.777 255.872 367.186 255.47 366.491C255.069 365.796 254.836 365.016 254.791 364.214C254.791 362.735 255.834 362.128 257.103 362.868C257.776 363.311 258.335 363.905 258.736 364.603C259.138 365.302 259.37 366.084 259.415 366.889Z" fill="#D4ECFF"/>
<path d="M267.564 371.592C267.564 373.072 266.541 373.66 265.252 372.92C264.578 372.483 264.017 371.893 263.615 371.197C263.213 370.502 262.982 369.721 262.94 368.918C262.94 367.439 263.982 366.851 265.252 367.59C265.927 368.026 266.489 368.616 266.891 369.312C267.293 370.008 267.524 370.79 267.564 371.592Z" fill="#173D7A"/>
<path d="M301.922 395.68L297.165 392.93C296.777 392.645 296.461 392.274 296.24 391.846C296.02 391.418 295.902 390.945 295.895 390.464V385.438C295.895 384.49 296.464 384.053 297.165 384.471L301.922 387.221C302.316 387.496 302.639 387.862 302.863 388.287C303.087 388.713 303.206 389.186 303.21 389.667V394.694C303.21 395.642 302.642 396.078 301.922 395.68Z" fill="#D4ECFF"/>
<path d="M308.782 444.139L208.514 386.197C207.278 385.308 206.267 384.141 205.563 382.791C204.859 381.44 204.48 379.943 204.458 378.42V359.302C204.458 356.305 206.354 354.921 208.514 356.229L308.782 414.153C310.018 415.042 311.029 416.209 311.733 417.559C312.437 418.909 312.815 420.406 312.837 421.929V441.067C312.837 444.063 311.018 445.429 308.782 444.139Z" fill="#5793CE"/>
<path opacity="0.4" d="M305.901 437.425L211.357 382.82C210.729 382.369 210.216 381.777 209.857 381.093C209.499 380.408 209.305 379.649 209.291 378.875V364.499C209.291 362.963 210.219 362.28 211.357 362.925L305.863 417.529C306.491 417.981 307.004 418.572 307.363 419.257C307.721 419.942 307.915 420.701 307.929 421.474V435.87C308.005 437.387 307.038 438.089 305.901 437.425Z" fill="#D4ECFF"/>
<path d="M231.084 386.917L217.042 378.743C216.438 378.308 215.942 377.739 215.594 377.081C215.245 376.423 215.053 375.694 215.033 374.949C215.033 373.47 215.943 372.787 217.042 373.432L231.141 381.588C231.75 382.017 232.25 382.585 232.599 383.244C232.948 383.903 233.137 384.635 233.15 385.381C233.093 386.879 232.202 387.562 231.084 386.917Z" fill="#D4ECFF"/>
<path d="M243.099 391.204C243.099 392.683 242.075 393.271 240.787 392.531C240.115 392.093 239.556 391.502 239.154 390.806C238.752 390.111 238.52 389.331 238.475 388.529C238.475 387.05 239.517 386.462 240.787 387.183C241.462 387.622 242.024 388.216 242.426 388.915C242.828 389.614 243.058 390.398 243.099 391.204Z" fill="#173D7A"/>
<path d="M251.267 395.907C251.267 397.387 250.224 397.975 248.955 397.254C248.279 396.814 247.717 396.221 247.316 395.522C246.914 394.823 246.683 394.039 246.643 393.233C246.643 391.773 247.666 391.166 248.955 391.906C249.626 392.344 250.186 392.935 250.587 393.631C250.989 394.326 251.222 395.106 251.267 395.907Z" fill="white"/>
<path d="M259.415 400.63C259.415 402.09 258.373 402.697 257.103 401.958C256.431 401.519 255.872 400.928 255.47 400.233C255.069 399.538 254.836 398.758 254.791 397.956C254.791 396.476 255.834 395.869 257.103 396.609C257.776 397.052 258.335 397.647 258.736 398.345C259.138 399.043 259.37 399.826 259.415 400.63Z" fill="#D4ECFF"/>
<path d="M267.564 405.296C267.564 406.775 266.541 407.363 265.252 406.624C264.578 406.187 264.017 405.597 263.615 404.901C263.213 404.205 262.982 403.424 262.94 402.622C262.94 401.142 263.982 400.554 265.252 401.294C265.927 401.729 266.489 402.32 266.891 403.015C267.293 403.711 267.524 404.493 267.564 405.296Z" fill="white"/>
<path d="M301.922 429.421L297.165 426.671C296.777 426.387 296.461 426.016 296.24 425.588C296.02 425.16 295.902 424.687 295.895 424.206V419.179C295.895 418.231 296.464 417.795 297.165 418.212L301.922 420.962C302.316 421.238 302.639 421.603 302.863 422.029C303.087 422.455 303.206 422.928 303.21 423.409V428.435C303.21 429.383 302.642 429.82 301.922 429.421Z" fill="#D4ECFF"/>
<path d="M308.782 477.881L208.514 419.938C207.278 419.049 206.267 417.883 205.563 416.532C204.859 415.182 204.48 413.685 204.458 412.162V393.044C204.458 390.047 206.354 388.662 208.514 389.971L308.782 447.895C310.018 448.784 311.029 449.95 311.733 451.301C312.437 452.651 312.815 454.148 312.837 455.671V474.808C312.837 477.805 311.018 479.265 308.782 477.881Z" fill="#5793CE"/>
<path opacity="0.4" d="M305.901 471.167L211.357 416.562C210.729 416.111 210.216 415.519 209.857 414.834C209.499 414.149 209.305 413.39 209.291 412.617V398.24C209.291 396.704 210.219 396.021 211.357 396.666L305.863 451.271C306.491 451.722 307.004 452.314 307.363 452.999C307.721 453.684 307.915 454.443 307.929 455.216V469.611C308.005 471.129 307.038 471.831 305.901 471.167Z" fill="#D4ECFF"/>
<path d="M231.084 420.659L217.042 412.522C216.438 412.087 215.942 411.519 215.594 410.861C215.245 410.203 215.053 409.473 215.033 408.729C215.033 407.249 215.943 406.567 217.042 407.211L231.141 415.367C231.75 415.797 232.25 416.364 232.599 417.023C232.948 417.682 233.137 418.415 233.15 419.16C233.093 420.621 232.202 421.304 231.084 420.659Z" fill="#D4ECFF"/>
<path d="M243.099 424.945C243.099 426.425 242.075 427.013 240.787 426.273C240.115 425.834 239.556 425.243 239.154 424.548C238.752 423.853 238.52 423.073 238.475 422.271C238.475 420.792 239.517 420.204 240.787 420.924C241.462 421.364 242.024 421.958 242.426 422.657C242.828 423.356 243.058 424.14 243.099 424.945Z" fill="#173D7A"/>
<path d="M251.267 429.649C251.267 431.128 250.224 431.716 248.955 430.996C248.279 430.556 247.717 429.962 247.316 429.263C246.914 428.564 246.683 427.78 246.643 426.975C246.643 425.514 247.666 424.907 248.955 425.647C249.626 426.086 250.186 426.677 250.587 427.372C250.989 428.067 251.222 428.847 251.267 429.649Z" fill="#173D7A"/>
<path d="M259.415 434.372C259.415 435.832 258.373 436.439 257.103 435.699C256.431 435.26 255.872 434.669 255.47 433.974C255.069 433.279 254.836 432.499 254.791 431.697C254.791 430.218 255.834 429.611 257.103 430.351C257.776 430.794 258.335 431.388 258.736 432.086C259.138 432.785 259.37 433.567 259.415 434.372Z" fill="#D4ECFF"/>
<path d="M267.564 439.075C267.564 440.555 266.541 441.143 265.252 440.403C264.578 439.966 264.017 439.376 263.615 438.68C263.213 437.985 262.982 437.203 262.94 436.401C262.94 434.922 263.982 434.334 265.252 435.073C265.927 435.509 266.489 436.099 266.891 436.795C267.293 437.491 267.524 438.272 267.564 439.075Z" fill="#173D7A"/>
<path d="M301.922 463.163L297.165 460.413C296.777 460.128 296.461 459.757 296.24 459.329C296.02 458.901 295.902 458.428 295.895 457.947V452.921C295.895 451.972 296.464 451.536 297.165 451.954L301.922 454.704C302.316 454.979 302.639 455.345 302.863 455.77C303.087 456.196 303.206 456.669 303.21 457.15V462.195C303.21 463.125 302.642 463.561 301.922 463.163Z" fill="#173D7A"/>
<path d="M308.782 511.622L208.514 453.68C207.278 452.791 206.267 451.624 205.563 450.274C204.859 448.923 204.48 447.426 204.458 445.903V426.785C204.458 423.788 206.354 422.404 208.514 423.712L308.782 481.636C310.018 482.525 311.029 483.692 311.733 485.042C312.437 486.392 312.815 487.889 312.837 489.412V508.55C312.837 511.508 311.018 512.912 308.782 511.622Z" fill="#5793CE"/>
<path opacity="0.4" d="M305.901 504.908L211.357 450.303C210.729 449.852 210.216 449.26 209.857 448.576C209.499 447.891 209.305 447.131 209.291 446.358V431.982C209.291 430.445 210.219 429.763 211.357 430.408L305.901 484.955C306.529 485.407 307.042 485.998 307.4 486.683C307.759 487.368 307.953 488.127 307.967 488.9V503.296C308.005 504.87 307.038 505.572 305.901 504.908Z" fill="#D4ECFF"/>
<path d="M231.084 454.4L217.042 446.264C216.438 445.829 215.942 445.26 215.594 444.602C215.245 443.944 215.053 443.215 215.033 442.47C215.033 440.991 215.943 440.308 217.042 440.953L231.141 449.109C231.75 449.538 232.25 450.106 232.599 450.765C232.948 451.424 233.137 452.156 233.15 452.902C233.093 454.362 232.202 455.045 231.084 454.4Z" fill="#D4ECFF"/>
<path d="M243.099 458.687C243.099 460.166 242.075 460.754 240.787 460.014C240.115 459.575 239.556 458.984 239.154 458.289C238.752 457.594 238.52 456.814 238.475 456.012C238.475 454.533 239.517 453.945 240.787 454.666C241.462 455.105 242.024 455.699 242.426 456.398C242.828 457.097 243.058 457.881 243.099 458.687Z" fill="white"/>
<path d="M251.267 463.39C251.267 464.87 250.224 465.458 248.955 464.737C248.279 464.297 247.717 463.704 247.316 463.005C246.914 462.306 246.683 461.521 246.643 460.716C246.643 459.256 247.666 458.649 248.955 459.388C249.626 459.827 250.186 460.418 250.587 461.113C250.989 461.809 251.222 462.589 251.267 463.39Z" fill="#173D7A"/>
<path d="M259.415 468.113C259.415 469.573 258.373 470.18 257.103 469.441C256.431 469.002 255.872 468.411 255.47 467.716C255.069 467.02 254.836 466.241 254.791 465.439C254.791 463.959 255.834 463.352 257.103 464.092C257.776 464.535 258.335 465.13 258.736 465.828C259.138 466.526 259.37 467.309 259.415 468.113Z" fill="#D4ECFF"/>
<path d="M267.564 472.817C267.564 474.296 266.541 474.884 265.252 474.144C264.578 473.708 264.017 473.117 263.615 472.422C263.213 471.726 262.982 470.945 262.94 470.143C262.94 468.663 263.982 468.075 265.252 468.815C265.927 469.25 266.489 469.84 266.891 470.536C267.293 471.232 267.524 472.014 267.564 472.817Z" fill="#173D7A"/>
<path d="M301.922 496.904L297.165 494.154C296.777 493.869 296.461 493.499 296.24 493.071C296.02 492.643 295.902 492.17 295.895 491.688V486.662C295.895 485.714 296.464 485.278 297.165 485.695L301.922 488.445C302.316 488.72 302.639 489.086 302.863 489.512C303.087 489.937 303.206 490.411 303.21 490.892V495.918C303.21 496.866 302.642 497.302 301.922 496.904Z" fill="#D4ECFF"/>
<path d="M279.579 204.251C279.177 204.251 278.791 204.091 278.507 203.806C278.222 203.522 278.063 203.136 278.063 202.733V140.371C278.063 139.969 278.222 139.583 278.507 139.298C278.791 139.014 279.177 138.854 279.579 138.854C279.981 138.854 280.366 139.014 280.651 139.298C280.935 139.583 281.095 139.969 281.095 140.371V202.752C281.09 203.151 280.928 203.532 280.644 203.813C280.36 204.093 279.978 204.251 279.579 204.251Z" fill="#5793CE"/>
<path d="M285.037 136.464H274.216V159.85H285.037V136.464Z" fill="#5793CE"/>
<path d="M283.369 162.05C282.194 162.645 280.896 162.955 279.579 162.955C278.262 162.955 276.964 162.645 275.789 162.05C275.327 161.894 274.926 161.596 274.642 161.2C274.358 160.804 274.206 160.328 274.206 159.84C274.206 159.353 274.358 158.877 274.642 158.481C274.926 158.085 275.327 157.787 275.789 157.631C276.966 157.045 278.264 156.739 279.579 156.739C280.894 156.739 282.192 157.045 283.369 157.631C283.831 157.787 284.232 158.085 284.516 158.481C284.8 158.877 284.952 159.353 284.952 159.84C284.952 160.328 284.8 160.804 284.516 161.2C284.232 161.596 283.831 161.894 283.369 162.05Z" fill="#5793CE"/>
<path d="M288.391 103.861H270.843V140.542H288.391V103.861Z" fill="#5793CE"/>
<path d="M274.197 140.295V148.223C275.915 148.937 277.757 149.305 279.617 149.305C281.477 149.305 283.319 148.937 285.037 148.223V140.295C283.319 139.582 281.477 139.214 279.617 139.214C277.757 139.214 275.915 139.582 274.197 140.295Z" fill="#396CAA"/>
<path d="M285.814 144.127C283.893 145.1 281.77 145.607 279.617 145.607C277.464 145.607 275.341 145.1 273.42 144.127C269.99 142.23 269.99 138.93 273.42 136.957C275.341 135.984 277.464 135.477 279.617 135.477C281.77 135.477 283.893 135.984 285.814 136.957C289.244 138.93 289.244 142.154 285.814 144.127Z" fill="#5793CE"/>
<path d="M294.417 213.108C294.218 213.108 294.021 213.069 293.837 212.992C293.653 212.916 293.486 212.804 293.345 212.664C293.205 212.523 293.093 212.355 293.017 212.171C292.94 211.987 292.901 211.79 292.901 211.591V149.248C292.901 148.845 293.061 148.459 293.345 148.175C293.63 147.89 294.015 147.73 294.417 147.73C294.819 147.73 295.205 147.89 295.489 148.175C295.774 148.459 295.933 148.845 295.933 149.248V211.61C295.928 212.009 295.766 212.39 295.483 212.67C295.199 212.951 294.816 213.108 294.417 213.108Z" fill="#5793CE"/>
<path d="M299.818 145.303H288.997V168.688H299.818V145.303Z" fill="#5793CE"/>
<path d="M298.245 170.888C297.07 171.483 295.772 171.793 294.455 171.793C293.138 171.793 291.84 171.483 290.665 170.888C290.203 170.732 289.802 170.435 289.518 170.038C289.234 169.642 289.082 169.167 289.082 168.679C289.082 168.191 289.234 167.716 289.518 167.319C289.802 166.923 290.203 166.626 290.665 166.469C291.843 165.883 293.14 165.578 294.455 165.578C295.77 165.578 297.068 165.883 298.245 166.469C298.707 166.626 299.108 166.923 299.392 167.319C299.676 167.716 299.829 168.191 299.829 168.679C299.829 169.167 299.676 169.642 299.392 170.038C299.108 170.435 298.707 170.732 298.245 170.888Z" fill="#5793CE"/>
<path d="M303.191 112.718H285.643V149.399H303.191V112.718Z" fill="#5793CE"/>
<path d="M289.054 149.248V157.157C290.767 157.879 292.606 158.251 294.465 158.251C296.323 158.251 298.163 157.879 299.875 157.157V149.248C298.163 148.525 296.323 148.153 294.465 148.153C292.606 148.153 290.767 148.525 289.054 149.248Z" fill="#396CAA"/>
<path d="M300.614 153.041C298.693 154.023 296.566 154.535 294.408 154.535C292.25 154.535 290.123 154.023 288.201 153.041C284.79 151.144 284.79 147.863 288.201 145.872C290.126 144.9 292.252 144.393 294.408 144.393C296.564 144.393 298.689 144.9 300.614 145.872C304.044 147.787 304.044 150.993 300.614 153.041Z" fill="#5793CE"/>
<path d="M309.218 221.965C309.019 221.965 308.821 221.926 308.638 221.85C308.454 221.774 308.286 221.662 308.146 221.521C308.005 221.38 307.893 221.213 307.817 221.029C307.741 220.845 307.702 220.647 307.702 220.448V158.067C307.678 157.855 307.699 157.64 307.764 157.437C307.829 157.233 307.936 157.046 308.078 156.886C308.22 156.727 308.394 156.6 308.589 156.513C308.784 156.425 308.995 156.38 309.208 156.38C309.422 156.38 309.633 156.425 309.827 156.513C310.022 156.6 310.196 156.727 310.338 156.886C310.481 157.046 310.588 157.233 310.653 157.437C310.717 157.64 310.739 157.855 310.715 158.067V220.448C310.717 220.646 310.68 220.843 310.606 221.027C310.532 221.211 310.422 221.379 310.283 221.52C310.144 221.661 309.978 221.773 309.795 221.849C309.612 221.926 309.416 221.965 309.218 221.965Z" fill="#5793CE"/>
<path d="M314.619 154.141H303.798V177.527H314.619V154.141Z" fill="#5793CE"/>
<path d="M313.046 179.746C311.868 180.332 310.571 180.637 309.256 180.637C307.94 180.637 306.643 180.332 305.465 179.746C304.997 179.594 304.589 179.297 304.299 178.898C304.01 178.5 303.854 178.02 303.854 177.527C303.854 177.034 304.01 176.554 304.299 176.155C304.589 175.756 304.997 175.46 305.465 175.308C306.643 174.721 307.94 174.416 309.256 174.416C310.571 174.416 311.868 174.721 313.046 175.308C313.505 175.469 313.903 175.769 314.184 176.167C314.466 176.564 314.617 177.039 314.617 177.527C314.617 178.014 314.466 178.489 314.184 178.887C313.903 179.284 313.505 179.584 313.046 179.746Z" fill="#5793CE"/>
<path d="M317.992 121.556H300.444V158.238H317.992V121.556Z" fill="#5793CE"/>
<path d="M303.798 157.991V165.9C305.51 166.623 307.35 166.995 309.208 166.995C311.067 166.995 312.906 166.623 314.619 165.9V157.991C312.906 157.269 311.067 156.897 309.208 156.897C307.35 156.897 305.51 157.269 303.798 157.991Z" fill="#396CAA"/>
<path d="M315.414 161.803C313.493 162.786 311.366 163.298 309.208 163.298C307.05 163.298 304.923 162.786 303.002 161.803C299.572 159.907 299.572 156.626 303.002 154.634C304.926 153.662 307.052 153.156 309.208 153.156C311.364 153.156 313.49 153.662 315.414 154.634C318.845 156.626 318.845 159.831 315.414 161.803Z" fill="#5793CE"/>
<path d="M323.999 230.804C323.597 230.804 323.212 230.644 322.927 230.359C322.643 230.075 322.483 229.689 322.483 229.286V166.905C322.483 166.503 322.643 166.117 322.927 165.833C323.212 165.548 323.597 165.388 323.999 165.388C324.401 165.388 324.787 165.548 325.071 165.833C325.356 166.117 325.515 166.503 325.515 166.905V229.286C325.515 229.689 325.356 230.075 325.071 230.359C324.787 230.644 324.401 230.804 323.999 230.804Z" fill="#5793CE"/>
<path d="M329.419 162.998H318.598V186.384H329.419V162.998Z" fill="#5793CE"/>
<path d="M327.827 188.584C326.65 189.171 325.352 189.476 324.037 189.476C322.722 189.476 321.424 189.171 320.247 188.584C319.785 188.428 319.384 188.13 319.1 187.734C318.816 187.338 318.664 186.862 318.664 186.375C318.664 185.887 318.816 185.411 319.1 185.015C319.384 184.619 319.785 184.321 320.247 184.165C321.422 183.57 322.72 183.26 324.037 183.26C325.354 183.26 326.652 183.57 327.827 184.165C328.289 184.321 328.69 184.619 328.974 185.015C329.258 185.411 329.41 185.887 329.41 186.375C329.41 186.862 329.258 187.338 328.974 187.734C328.69 188.13 328.289 188.428 327.827 188.584Z" fill="#5793CE"/>
<path d="M332.792 130.395H315.244V167.076H332.792V130.395Z" fill="#5793CE"/>
<path d="M318.598 166.83V174.739C320.311 175.461 322.15 175.833 324.009 175.833C325.867 175.833 327.706 175.461 329.419 174.739V166.83C327.704 166.117 325.866 165.749 324.009 165.749C322.152 165.749 320.313 166.117 318.598 166.83Z" fill="#396CAA"/>
<path d="M330.215 170.661C328.29 171.633 326.164 172.139 324.009 172.139C321.853 172.139 319.727 171.633 317.802 170.661C314.372 168.669 314.372 165.464 317.802 163.492C319.724 162.509 321.851 161.997 324.009 161.997C326.166 161.997 328.293 162.509 330.215 163.492C333.626 165.464 333.626 168.669 330.215 170.661Z" fill="#5793CE"/>
<path d="M392.771 197.461L416.308 183.596L393.908 155.601L388.014 165.236L392.771 197.461Z" fill="#5793CE"/>
<path d="M221.95 43.8506L259.51 22.1719C259.51 22.1719 258.089 43.7558 258.089 43.7937C258.089 43.8317 236.523 50.6217 236.523 50.6217L221.95 43.8506Z" fill="#5793CE"/>
<path d="M399.309 127.076C396.814 125.58 394.064 124.558 391.198 124.06C387.408 104.145 373.555 82.9976 357.087 73.4574C352.842 70.8602 348.07 69.2466 343.12 68.7347C340.865 44.5903 324.17 17.1647 303.741 5.40547C293.11 -0.739689 283.464 -1.46042 276.338 2.29496L275.997 2.50359L275.448 2.80705L253.313 15.894L260.628 21.6977C254.033 24.5806 249.845 31.9965 249.845 42.9592C249.845 63.1586 264.02 87.7202 281.512 97.8294L399.309 182.022C412.442 189.608 423.092 183.463 423.092 168.29C423.092 153.117 412.442 134.662 399.309 127.076Z" fill="#5793CE"/>
<path d="M250.944 34.0449L301.751 4.34332C291.897 -0.815576 282.99 -1.23284 276.3 2.29494L275.959 2.50357L275.41 2.80703L253.275 15.8939L260.628 21.6977C258.174 22.8715 256.023 24.5963 254.344 26.7379C252.664 28.8794 251.501 31.38 250.944 34.0449Z" fill="#5793CE"/>
<path d="M344.788 121.462L381.912 99.6881C375.507 88.6875 366.752 79.0715 357.049 73.3815C355.818 72.6865 354.553 72.0535 353.259 71.4849L306.11 99.1191L344.788 121.462Z" fill="#5793CE"/>
<path d="M263.717 18.3786L280.242 27.8619L310.563 10.0144C308.396 8.33403 306.124 6.79458 303.76 5.40548C300.458 3.44243 296.899 1.94872 293.185 0.967316L263.717 18.3786Z" fill="#D4ECFF"/>
<path d="M377.781 93.2774L348.18 110.746L358.47 122.126L385.342 106.251C383.2 101.716 380.67 97.3756 377.781 93.2774Z" fill="#D4ECFF"/>
<path d="M376.076 140.77C373.566 139.311 370.811 138.328 367.946 137.868C364.156 117.953 350.322 96.8052 333.835 87.265C329.586 84.671 324.816 83.0516 319.868 82.5234C317.613 58.3979 300.917 30.9723 280.47 19.2131C258.582 6.54343 240.825 16.8043 240.825 42.1057C240.825 42.9781 240.825 43.8316 240.825 44.7041C224.811 37.2692 212.304 45.6524 212.304 64.6379C212.361 84.7614 226.517 109.418 244.009 119.413L376.076 195.735C389.208 203.321 399.84 197.157 399.84 181.984C399.84 166.811 389.208 148.356 376.076 140.77Z" fill="#D4ECFF"/>
<path d="M240.882 44.6093C240.882 43.7368 240.882 42.8833 240.882 42.0109V41.916C232.051 38.4641 224.433 40.0194 219.676 45.5007C224.774 41.1384 232.316 40.6453 240.882 44.6093Z" fill="white"/>
<path d="M378.008 138.892C375.5 137.429 372.744 136.439 369.879 135.971C366.088 116.056 352.255 94.9085 335.767 85.3873C331.527 82.777 326.753 81.1564 321.801 80.6457C319.546 56.5203 302.85 29.0757 282.402 17.3165C268.777 9.44534 256.743 10.4506 249.599 18.4544C256.876 12.2334 268 11.9869 280.469 19.2131C300.841 30.9724 317.613 58.398 319.868 82.5234C324.816 83.0517 329.586 84.671 333.835 87.265C350.341 96.7483 364.156 117.953 367.946 137.868C370.817 138.357 373.573 139.373 376.076 140.864C389.208 148.451 399.84 166.906 399.84 182.079C400.078 186.614 398.739 191.091 396.049 194.748C399.612 191.998 401.735 187.01 401.735 180.201C401.773 164.933 391.141 146.479 378.008 138.892Z" fill="white"/>
<path d="M238.077 50.6217L248.007 55.2305L247.514 44.2869C247.514 43.5282 247.514 42.7506 247.514 41.9919C247.514 32.2431 250.471 25.1496 255.815 22.0581C261.159 18.9665 268.758 19.9528 277.21 24.8462C295.384 35.3347 311.321 60.8826 313.311 83.0355L313.69 88.5547L319.375 88.991C323.33 89.4143 327.142 90.7098 330.537 92.7843C344.959 101.13 357.978 120.513 361.465 138.873L362.336 143.463L366.96 144.203C369.024 144.571 371.003 145.316 372.797 146.403C383.807 153.041 393.283 169.181 393.283 181.984C393.283 186.782 391.956 190.31 389.644 191.638C387.332 192.966 383.618 192.378 379.468 189.969L247.363 113.666C232.013 104.79 218.937 82.2958 218.937 64.5431C218.937 57.5634 220.983 52.2718 224.622 49.9768C226.206 49.0097 228.036 48.5222 229.89 48.5733C232.735 48.6571 235.528 49.3559 238.077 50.6217Z" fill="#396CAA"/>
<path d="M304.006 133.486L307.474 131.723L304.044 129.124L304.006 133.486Z" fill="#5793CE"/>
<path d="M293.545 86.3736L296.919 84.6666L296.976 86.4495L293.545 86.3736Z" fill="#5793CE"/>
<path d="M313.936 122.467L317.461 120.684L310.677 114.235L313.936 122.467Z" fill="#5793CE"/>
<path d="M306.451 131.609L289.964 121.898C289.513 121.582 289.142 121.166 288.879 120.682C288.616 120.198 288.468 119.66 288.448 119.11V100.01L308.005 111.504V130.622C308.005 131.666 307.285 132.178 306.451 131.609Z" fill="#5793CE"/>
<path d="M296.881 84.7614L279.067 96.1414C278.309 96.6345 278.916 98.4363 280.072 99.1191L298.264 109.835L316.457 120.57C317.594 121.234 318.219 120.153 317.461 118.674L299.78 86.2788C299.022 84.989 297.639 84.1924 296.881 84.7614Z" fill="#5793CE"/>
<path d="M302.926 133.392L286.42 123.681C285.968 123.367 285.598 122.951 285.337 122.466C285.077 121.982 284.935 121.443 284.923 120.893V101.793L304.499 113.211V132.329C304.442 133.449 303.76 133.885 302.926 133.392Z" fill="#D4ECFF"/>
<path d="M293.337 86.4684L275.523 97.8483C274.765 98.3415 275.372 100.143 276.528 100.826L294.72 111.542L312.913 122.277C314.069 122.941 314.675 121.86 313.936 120.381L296.237 88.1754C295.478 86.7719 294.114 85.9753 293.337 86.4684Z" fill="#D4ECFF"/>
<path d="M362.488 472.229H360.479V359.245L373.801 351.545V295.935H375.829V352.702L362.488 360.421V472.229Z" fill="white"/>
<path d="M42.0326 496.62C40.8385 496.617 39.6647 496.31 38.6215 495.728L1.78143 474.865C1.24223 474.554 0.794438 474.106 0.483082 473.567C0.171727 473.027 0.0078125 472.415 0.0078125 471.793C0.0078125 471.17 0.171727 470.558 0.483082 470.018C0.794438 469.479 1.24223 469.031 1.78143 468.72L93.6542 415.614C96.2501 414.125 99.19 413.341 102.182 413.341C105.174 413.341 108.114 414.125 110.71 415.614L215.715 476.307L214.199 478.943L109.194 418.25C107.054 417.02 104.63 416.373 102.163 416.373C99.6958 416.373 97.2718 417.02 95.1323 418.25L3.25958 471.356C3.18039 471.402 3.11541 471.469 3.07191 471.549C3.02841 471.629 3.00808 471.72 3.01321 471.811C3.00947 471.9 3.03056 471.988 3.07411 472.065C3.11765 472.142 3.1819 472.205 3.25958 472.248L40.0996 493.111C40.7206 493.459 41.4249 493.631 42.1363 493.608C42.8478 493.584 43.5393 493.367 44.1361 492.978L59.6946 482.907L61.3433 485.448L45.7848 495.539C44.6625 496.249 43.3607 496.624 42.0326 496.62Z" fill="#B2D3EA"/>
<path d="M90.0724 504.699L40.5544 476.079C37.5223 474.315 37.9013 471.261 41.4072 469.232L89.2196 441.598C91.0228 440.599 93.0338 440.034 95.093 439.949C97.1522 439.863 99.203 440.259 101.083 441.105L150.525 469.782C153.557 471.527 153.178 474.599 149.672 476.629L101.86 504.263C100.062 505.241 98.062 505.789 96.0172 505.865C93.9723 505.94 91.9377 505.542 90.0724 504.699Z" fill="#B2D3EA"/>
<path d="M166.936 447.933V426.519H118.972L102.39 417.036C98.6002 414.836 91.9486 415.139 87.552 417.662L72.0693 426.595H24.0674V448.615C24.059 449.454 24.2946 450.277 24.7455 450.985C25.1964 451.692 25.8431 452.253 26.6067 452.598L88.6132 488.426C92.4034 490.626 99.074 490.323 103.452 487.8L163.336 453.205C165.875 451.593 167.088 449.697 166.936 447.933Z" fill="#396CAA"/>
<path d="M95.5112 415.443C92.7268 415.47 89.9923 416.187 87.552 417.529L72.0693 426.463H24.0674V448.483C24.059 449.322 24.2946 450.145 24.7455 450.852C25.1964 451.559 25.8431 452.12 26.6067 452.466L88.6132 488.293C90.7426 489.384 93.1232 489.888 95.5112 489.754V415.443Z" fill="#396CAA"/>
<path d="M29.4303 426.443H24.0105V448.464C24.0021 449.303 24.2377 450.126 24.6886 450.833C25.1394 451.54 25.7862 452.101 26.5498 452.447L29.4303 454.116V426.443Z" fill="#5793CE"/>
<path d="M89.5608 488.749C93.4067 490.147 97.629 490.1 101.443 488.616V463.599H89.5608V488.749Z" fill="#5793CE"/>
<path d="M88.6133 466.33L26.6068 430.502C22.8166 428.302 23.2904 424.452 27.668 421.911L87.5521 387.316C91.9486 384.793 98.5813 384.509 102.39 386.709L164.397 422.536C168.187 424.737 167.732 428.568 163.336 431.109L103.452 465.704C99.074 468.246 92.4224 468.53 88.6133 466.33Z" fill="#D4ECFF"/>
<path d="M89.7313 459.882L37.7686 429.952C34.5849 428.056 34.9829 424.888 38.6593 422.764L88.8406 393.764C90.7289 392.713 92.8369 392.119 94.9957 392.03C97.1545 391.942 99.3041 392.36 101.272 393.252L153.235 423.276C156.419 425.173 156.021 428.34 152.344 430.464L102.163 459.464C100.267 460.5 98.1554 461.078 95.9966 461.15C93.8379 461.223 91.6922 460.788 89.7313 459.882Z" fill="#5793CE"/>
<path d="M144.139 453.585C144.092 454.454 143.842 455.301 143.407 456.056C142.972 456.811 142.366 457.452 141.637 457.928C140.254 458.725 139.136 458.08 139.136 456.468C139.185 455.598 139.437 454.753 139.871 453.999C140.306 453.244 140.91 452.603 141.637 452.124C143.02 451.328 144.139 451.972 144.139 453.585Z" fill="#D4ECFF"/>
<path d="M152.193 448.919C152.148 449.789 151.898 450.636 151.463 451.391C151.028 452.146 150.421 452.787 149.691 453.262C148.308 454.059 147.19 453.414 147.19 451.821C147.236 450.951 147.487 450.104 147.921 449.35C148.356 448.595 148.962 447.953 149.691 447.477C151.075 446.681 152.193 447.326 152.193 448.919Z" fill="#D4ECFF"/>
<path d="M160.19 444.272C160.143 445.142 159.893 445.989 159.458 446.743C159.024 447.498 158.417 448.139 157.688 448.615C156.305 449.412 155.187 448.767 155.187 447.155C155.234 446.288 155.486 445.445 155.921 444.693C156.355 443.942 156.961 443.304 157.688 442.831C159.129 442.015 160.19 442.679 160.19 444.272Z" fill="#D4ECFF"/>
<path d="M166.936 413.717V392.304H118.972L102.39 382.821C98.6002 380.62 91.9486 380.924 87.552 383.446L72.0693 392.38H24.0674V414.4C24.059 415.239 24.2946 416.062 24.7455 416.769C25.1964 417.476 25.8431 418.037 26.6067 418.383L88.6132 454.211C92.4034 456.411 99.074 456.107 103.452 453.585L163.336 418.99C165.875 417.378 167.088 415.481 166.936 413.717Z" fill="#396CAA"/>
<path d="M95.5112 381.227C92.7268 381.255 89.9923 381.971 87.552 383.314L72.0693 392.247H24.0674V414.267C24.059 415.106 24.2946 415.929 24.7455 416.636C25.1964 417.344 25.8431 417.904 26.6067 418.25L88.6132 454.078C90.7426 455.168 93.1232 455.672 95.5112 455.538V381.227Z" fill="#396CAA"/>
<path d="M29.4303 392.228H24.0105V414.248C24.0021 415.087 24.2377 415.91 24.6886 416.617C25.1394 417.324 25.7862 417.885 26.5498 418.231L29.4303 419.881V392.228Z" fill="#5793CE"/>
<path d="M89.5608 454.609C93.4093 455.992 97.6261 455.944 101.443 454.476V429.383H89.5608V454.609Z" fill="#5793CE"/>
<path d="M88.6133 432.115L26.6068 396.287C22.8166 394.087 23.2904 390.236 27.668 387.695L87.5521 353.1C91.9486 350.577 98.5813 350.293 102.39 352.493L164.397 388.321C168.187 390.521 167.732 394.352 163.336 396.894L103.452 431.489C99.074 434.03 92.4224 434.315 88.6133 432.115Z" fill="#D4ECFF"/>
<path d="M89.7313 425.666L37.7686 395.642C34.5849 393.745 34.9829 390.578 38.6593 388.454L88.8406 359.454C90.7289 358.403 92.8369 357.809 94.9957 357.72C97.1545 357.631 99.3041 358.049 101.272 358.942L153.235 388.966C156.419 390.862 156.021 394.03 152.344 396.154L102.163 425.154C100.275 426.205 98.1667 426.799 96.0079 426.888C93.8491 426.977 91.6995 426.558 89.7313 425.666Z" fill="#5793CE"/>
<path d="M144.139 419.369C144.089 420.238 143.837 421.084 143.403 421.838C142.969 422.592 142.364 423.234 141.637 423.712C140.254 424.509 139.136 423.864 139.136 422.252C139.185 421.383 139.437 420.537 139.871 419.783C140.306 419.029 140.91 418.387 141.637 417.909C143.02 417.112 144.139 417.757 144.139 419.369Z" fill="#D4ECFF"/>
<path d="M152.193 414.779C152.146 415.649 151.896 416.496 151.461 417.25C151.026 418.005 150.42 418.646 149.691 419.122C148.308 419.919 147.19 419.274 147.19 417.681C147.236 416.811 147.487 415.965 147.921 415.21C148.356 414.455 148.962 413.814 149.691 413.338C151.075 412.465 152.193 413.11 152.193 414.779Z" fill="#D4ECFF"/>
<path d="M160.19 410.056C160.14 410.926 159.889 411.771 159.454 412.525C159.02 413.28 158.415 413.922 157.688 414.4C156.305 415.196 155.187 414.552 155.187 412.939C155.236 412.07 155.488 411.225 155.922 410.471C156.357 409.716 156.961 409.074 157.688 408.596C159.129 407.799 160.19 408.444 160.19 410.056Z" fill="#D4ECFF"/>
<path d="M166.936 379.501V358.088H118.972L102.39 348.396C98.6002 346.196 91.9485 346.5 87.552 349.022L72.0693 357.955H24.0673V379.976C24.0554 380.813 24.2897 381.635 24.7413 382.34C25.1928 383.045 25.8416 383.601 26.6067 383.94L88.6132 419.767C92.4034 421.968 99.074 421.664 103.452 419.16L163.336 384.566C165.875 383.162 167.088 381.265 166.936 379.501Z" fill="#396CAA"/>
<path d="M95.5112 346.993C92.7262 347.034 89.9935 347.756 87.552 349.098L72.0693 358.031H24.0673V380.051C24.0554 380.889 24.2897 381.711 24.7413 382.416C25.1928 383.121 25.8416 383.677 26.6067 384.015L88.6132 419.843C90.7408 420.94 93.1215 421.45 95.5112 421.323V346.993Z" fill="#396CAA"/>
<path d="M29.4303 358.012H24.0104V380.032C23.9985 380.87 24.2328 381.692 24.6844 382.397C25.1359 383.102 25.7847 383.658 26.5498 383.996L29.4303 385.666V358.012Z" fill="#5793CE"/>
<path d="M89.5608 420.298C93.4093 421.681 97.6261 421.634 101.443 420.166V395.168H89.5608V420.298Z" fill="#5793CE"/>
<path d="M88.6133 397.899L26.6068 362.071C22.8166 359.871 23.2904 356.021 27.668 353.479L87.5521 318.884C91.9486 316.343 98.5813 316.077 102.39 318.277L164.397 354.086C168.187 356.286 167.732 360.118 163.336 362.659L103.452 397.254C99.074 399.815 92.4224 400.099 88.6133 397.899Z" fill="#D4ECFF"/>
<path d="M163.336 358.467L103.452 393.062C99.074 395.604 92.4224 395.869 88.6133 393.669L26.6068 357.88C25.8551 357.477 25.2065 356.905 24.7117 356.21C23.4041 358.316 23.9916 360.592 26.6068 362.109L88.6133 397.937C92.4034 400.137 99.074 399.833 103.452 397.311L163.336 362.716C166.747 360.819 167.789 357.993 166.292 355.831C165.53 356.933 164.517 357.837 163.336 358.467Z" fill="white"/>
<path d="M144.139 385.153C144.091 386.02 143.839 386.864 143.405 387.615C142.97 388.367 142.364 389.005 141.637 389.478C140.254 390.293 139.136 389.629 139.136 388.036C139.182 387.166 139.433 386.32 139.867 385.565C140.302 384.81 140.908 384.169 141.637 383.693C143.02 382.896 144.139 383.541 144.139 385.153Z" fill="#D4ECFF"/>
<path d="M152.193 380.488C152.146 381.358 151.896 382.204 151.461 382.959C151.026 383.714 150.42 384.355 149.691 384.831C148.308 385.628 147.19 384.983 147.19 383.39C147.234 382.519 147.484 381.672 147.919 380.917C148.354 380.162 148.961 379.521 149.691 379.046C151.075 378.25 152.193 378.894 152.193 380.488Z" fill="#D4ECFF"/>
<path d="M160.19 375.841C160.14 376.71 159.889 377.556 159.454 378.31C159.02 379.064 158.415 379.706 157.688 380.184C156.305 380.981 155.187 380.317 155.187 378.724C155.233 377.854 155.484 377.007 155.918 376.253C156.353 375.498 156.959 374.856 157.688 374.38C159.129 373.584 160.19 374.229 160.19 375.841Z" fill="#D4ECFF"/>
<path d="M92.2706 375.67L63.2572 358.923C61.4759 357.879 61.7032 356.078 63.7689 354.902L91.7779 338.704C92.8357 338.12 94.0148 337.791 95.2219 337.741C96.4289 337.692 97.6309 337.924 98.7328 338.42L127.746 355.186C129.528 356.21 129.3 358.012 127.235 359.207L99.2255 375.386C98.1732 375.986 96.9927 376.325 95.7827 376.374C94.5726 376.424 93.3683 376.182 92.2706 375.67Z" fill="#5793CE"/>
<path d="M95.0564 361.673L91.0389 359.359C90.7925 359.226 90.8304 358.961 91.0389 358.809L94.829 356.571C94.9777 356.491 95.1437 356.449 95.3123 356.449C95.4809 356.449 95.6468 356.491 95.7955 356.571L99.8131 358.885C100.059 359.018 100.022 359.264 99.8131 359.435L96.0229 361.673C95.8743 361.753 95.7083 361.794 95.5397 361.794C95.3711 361.794 95.205 361.753 95.0564 361.673Z" fill="#D4ECFF"/>
<path d="M63.2572 358.923C63.3901 358.819 63.5293 358.724 63.6742 358.638L91.6832 342.441C92.741 341.857 93.92 341.527 95.1271 341.478C96.3342 341.428 97.5362 341.661 98.6381 342.156L127.557 358.885C129.205 357.709 129.3 356.097 127.651 355.091L98.6381 338.325C97.5362 337.829 96.3342 337.597 95.1271 337.646C93.92 337.696 92.741 338.026 91.6832 338.61L63.6742 354.807C61.6464 356.078 61.4759 357.88 63.2572 358.923Z" fill="#396CAA"/>
<path d="M84.6147 404.158C84.6147 405.22 83.8567 405.656 82.9281 405.125C82.4409 404.801 82.0351 404.369 81.7425 403.863C81.4499 403.356 81.2784 402.788 81.2415 402.204C81.2415 401.123 81.9995 400.687 82.9281 401.218C83.4178 401.544 83.825 401.979 84.1178 402.489C84.4105 402.999 84.5806 403.57 84.6147 404.158Z" fill="#D4ECFF"/>
<path d="M79.3842 401.142C79.3842 402.223 78.6262 402.66 77.6976 402.128C77.2104 401.805 76.8046 401.373 76.512 400.866C76.2195 400.359 76.0479 399.792 76.011 399.208C76.011 398.126 76.769 397.69 77.6976 398.221C78.1848 398.545 78.5906 398.977 78.8832 399.484C79.1758 399.991 79.3472 400.558 79.3842 401.142Z" fill="#D4ECFF"/>
<path d="M84.6147 410.455C84.6147 411.536 83.8567 411.972 82.9281 411.441C82.4409 411.117 82.0351 410.685 81.7425 410.179C81.4499 409.672 81.2784 409.104 81.2415 408.52C81.2415 407.439 81.9995 407.003 82.9281 407.534C83.4153 407.858 83.8211 408.29 84.1137 408.796C84.4063 409.303 84.5777 409.871 84.6147 410.455Z" fill="#D4ECFF"/>
<path d="M79.3842 407.458C79.3842 408.539 78.6262 408.975 77.6976 408.444C77.2104 408.121 76.8046 407.689 76.512 407.182C76.2195 406.675 76.0479 406.108 76.011 405.523C76.011 404.442 76.769 404.006 77.6976 404.537C78.1848 404.861 78.5906 405.293 78.8832 405.8C79.1758 406.306 79.3472 406.874 79.3842 407.458Z" fill="#D4ECFF"/>
<path d="M84.6147 438.203C84.6147 439.265 83.8567 439.701 82.9281 439.17C82.4409 438.847 82.0351 438.414 81.7425 437.908C81.4499 437.401 81.2784 436.833 81.2415 436.249C81.2415 435.168 81.9995 434.732 82.9281 435.282C83.4153 435.606 83.8211 436.038 84.1137 436.544C84.4063 437.051 84.5777 437.619 84.6147 438.203Z" fill="#D4ECFF"/>
<path d="M79.3842 435.187C79.3842 436.268 78.6262 436.704 77.6976 436.173C77.2104 435.85 76.8046 435.418 76.512 434.911C76.2195 434.404 76.0479 433.837 76.011 433.253C76.011 432.171 76.769 431.735 77.6976 432.266C78.1848 432.59 78.5906 433.022 78.8832 433.529C79.1758 434.035 79.3472 434.603 79.3842 435.187Z" fill="#D4ECFF"/>
<path d="M84.6147 444.519C84.6147 445.581 83.8567 446.017 82.9281 445.486C82.4409 445.162 82.0351 444.73 81.7425 444.223C81.4499 443.717 81.2784 443.149 81.2415 442.565C81.2415 441.484 81.9995 441.048 82.9281 441.598C83.4153 441.921 83.8211 442.353 84.1137 442.86C84.4063 443.367 84.5777 443.935 84.6147 444.519Z" fill="#D4ECFF"/>
<path d="M79.3842 441.503C79.3842 442.584 78.6262 443.02 77.6976 442.489C77.2104 442.166 76.8046 441.734 76.512 441.227C76.2195 440.72 76.0479 440.152 76.011 439.568C76.011 438.487 76.769 438.051 77.6976 438.582C78.1848 438.906 78.5906 439.338 78.8832 439.845C79.1758 440.351 79.3472 440.919 79.3842 441.503Z" fill="#D4ECFF"/>
<path d="M84.6147 472.248C84.6147 473.329 83.8567 473.765 82.9281 473.215C82.4409 472.891 82.0351 472.459 81.7425 471.953C81.4499 471.446 81.2784 470.878 81.2415 470.294C81.2415 469.213 81.9995 468.777 82.9281 469.327C83.4153 469.651 83.8211 470.083 84.1137 470.589C84.4063 471.096 84.5777 471.664 84.6147 472.248Z" fill="#D4ECFF"/>
<path d="M79.3842 469.251C79.3842 470.313 78.6262 470.749 77.6976 470.218C77.2104 469.895 76.8046 469.463 76.512 468.956C76.2195 468.449 76.0479 467.882 76.011 467.297C76.011 466.216 76.769 465.78 77.6976 466.33C78.1848 466.654 78.5906 467.086 78.8832 467.593C79.1758 468.099 79.3472 468.667 79.3842 469.251Z" fill="#D4ECFF"/>
<path d="M84.6147 478.564C84.6147 479.626 83.8567 480.062 82.9281 479.531C82.4409 479.207 82.0351 478.775 81.7425 478.268C81.4499 477.762 81.2784 477.194 81.2415 476.61C81.2415 475.529 81.9995 475.093 82.9281 475.643C83.4153 475.966 83.8211 476.398 84.1137 476.905C84.4063 477.412 84.5777 477.98 84.6147 478.564Z" fill="#D4ECFF"/>
<path d="M79.3842 475.567C79.3842 476.629 78.6262 477.065 77.6976 476.534C77.2104 476.211 76.8046 475.778 76.512 475.272C76.2195 474.765 76.0479 474.197 76.011 473.613C76.011 472.532 76.769 472.096 77.6976 472.627C78.1873 472.953 78.5946 473.388 78.8873 473.898C79.18 474.408 79.3501 474.98 79.3842 475.567Z" fill="#D4ECFF"/>
<path d="M96.3072 530.153C94.5055 530.154 92.7348 529.683 91.1715 528.787L59.9409 510.636C59.4209 510.339 58.9886 509.91 58.688 509.392C58.3873 508.874 58.2289 508.286 58.2289 507.687C58.2289 507.088 58.3873 506.499 58.688 505.981C58.9886 505.463 59.4209 505.034 59.9409 504.737L80.4834 492.807L81.9994 495.425L61.4569 507.355C61.4002 507.388 61.3529 507.434 61.3197 507.491C61.2865 507.547 61.2685 507.612 61.2674 507.677C61.2651 507.746 61.2815 507.814 61.3149 507.874C61.3483 507.934 61.3974 507.984 61.4569 508.019L92.7066 526.151C93.7974 526.774 95.0319 527.102 96.2882 527.102C97.5445 527.102 98.7791 526.774 99.8699 526.151L161.062 491.252C162.613 490.362 164.371 489.894 166.159 489.894C167.948 489.894 169.705 490.362 171.257 491.252L222.518 520.992C223.615 521.63 224.86 521.966 226.129 521.966C227.397 521.966 228.642 521.63 229.739 520.992L254.375 506.691L255.891 509.308L231.255 523.609C229.696 524.508 227.928 524.981 226.129 524.981C224.329 524.981 222.562 524.508 221.002 523.609L169.836 493.964C168.742 493.339 167.504 493.01 166.245 493.01C164.985 493.01 163.747 493.339 162.653 493.964L101.443 528.825C99.8769 529.711 98.1058 530.169 96.3072 530.153Z" fill="#B2D3EA"/>
<path d="M367.737 645.621L318.219 617C315.168 615.236 315.566 612.183 319.072 610.153L366.884 582.519C368.685 581.523 370.693 580.96 372.748 580.875C374.804 580.789 376.851 581.183 378.729 582.026L428.247 610.647C431.279 612.391 430.9 615.464 427.394 617.493L379.581 645.128C377.781 646.124 375.773 646.686 373.717 646.772C371.662 646.858 369.614 646.463 367.737 645.621Z" fill="#B2D3EA"/>
<path d="M444.677 588.854V567.441H396.694L380.112 557.863C376.322 555.663 369.67 555.966 365.274 558.489L349.81 567.422H301.789V589.442C301.78 590.283 302.017 591.109 302.472 591.817C302.927 592.525 303.579 593.084 304.347 593.425L366.335 629.253C370.125 631.453 376.796 631.149 381.192 628.627L441.057 594.032C443.597 592.515 444.81 590.618 444.677 588.854Z" fill="#396CAA"/>
<path d="M373.233 556.364C370.449 556.394 367.715 557.11 365.274 558.451L349.81 567.384H301.789V589.404C301.78 590.245 302.017 591.071 302.472 591.779C302.927 592.487 303.579 593.046 304.347 593.387L366.335 629.215C368.464 630.305 370.845 630.809 373.233 630.675V556.364Z" fill="#396CAA"/>
<path d="M307.228 567.365H301.789V589.385C301.78 590.226 302.017 591.052 302.472 591.76C302.927 592.468 303.579 593.027 304.347 593.368L307.228 595.018V567.365Z" fill="#5793CE"/>
<path d="M367.302 629.651C371.143 631.039 375.355 630.992 379.165 629.518V604.444H367.302V629.651Z" fill="#5793CE"/>
<path d="M366.335 607.252L304.347 571.424C300.557 569.224 301.012 565.373 305.409 562.832L365.274 528.237C369.67 525.714 376.322 525.43 380.112 527.63L442.118 563.458C445.909 565.658 445.454 569.489 441.057 572.031L381.192 606.626C376.796 609.167 370.144 609.452 366.335 607.252Z" fill="#D4ECFF"/>
<path d="M367.453 600.803L315.585 570.779C312.401 568.882 312.799 565.715 316.495 563.591L366.657 534.591C368.549 533.539 370.66 532.946 372.822 532.857C374.984 532.768 377.136 533.186 379.108 534.079L431.051 564.103C434.254 565.999 433.856 569.167 430.161 571.291L379.998 600.291C378.095 601.357 375.967 601.96 373.787 602.049C371.607 602.138 369.437 601.711 367.453 600.803Z" fill="#5793CE"/>
<path d="M421.86 594.506C421.811 595.375 421.559 596.221 421.125 596.975C420.69 597.729 420.086 598.371 419.359 598.849C417.975 599.646 416.857 599.001 416.857 597.389C416.907 596.52 417.158 595.674 417.593 594.92C418.027 594.166 418.632 593.524 419.359 593.046C420.742 592.249 421.86 592.894 421.86 594.506Z" fill="#D4ECFF"/>
<path d="M429.933 589.84C429.883 590.711 429.629 591.559 429.191 592.313C428.753 593.068 428.144 593.709 427.413 594.184C426.048 594.98 424.911 594.335 424.911 592.742C424.969 591.875 425.225 591.033 425.658 590.28C426.092 589.527 426.692 588.884 427.413 588.399C428.796 587.602 429.933 588.247 429.933 589.84Z" fill="#D4ECFF"/>
<path d="M437.987 585.193C437.938 586.063 437.686 586.908 437.252 587.662C436.817 588.417 436.213 589.058 435.486 589.537C434.102 590.333 432.984 589.688 432.984 588.076C433.034 587.207 433.286 586.362 433.72 585.607C434.154 584.853 434.759 584.211 435.486 583.733C436.869 582.936 437.987 583.581 437.987 585.193Z" fill="#D4ECFF"/>
<path d="M444.677 554.638V533.225H396.694L380.112 523.647C376.322 521.447 369.67 521.75 365.274 524.273L349.81 533.206H301.789V555.131C301.779 555.971 302.016 556.795 302.471 557.5C302.926 558.205 303.579 558.76 304.347 559.095L366.335 594.961C370.125 597.161 376.796 596.858 381.192 594.354L441.057 559.759C443.597 558.299 444.809 556.402 444.677 554.638Z" fill="#396CAA"/>
<path d="M373.233 522.13C370.448 522.175 367.717 522.898 365.274 524.235L349.81 533.168H301.789V555.132C301.779 555.971 302.016 556.795 302.471 557.5C302.926 558.205 303.579 558.76 304.347 559.096L366.335 594.961C368.462 596.058 370.843 596.568 373.233 596.441V522.13Z" fill="#396CAA"/>
<path d="M307.228 533.149H301.789V555.131C301.779 555.971 302.016 556.795 302.471 557.5C302.926 558.205 303.579 558.76 304.347 559.095L307.228 560.765V533.149Z" fill="#5793CE"/>
<path d="M367.302 595.435C371.143 596.824 375.355 596.776 379.165 595.303V570.305H367.302V595.435Z" fill="#5793CE"/>
<path d="M366.335 573.036L304.347 537.208C300.557 535.008 301.012 531.158 305.409 528.616L365.274 494.021C369.67 491.48 376.322 491.214 380.112 493.414L442.118 529.242C445.909 531.442 445.454 535.274 441.057 537.815L381.192 572.41C376.796 574.951 370.144 575.236 366.335 573.036Z" fill="#D4ECFF"/>
<path d="M367.453 566.511L315.585 536.563C312.401 534.667 312.799 531.499 316.495 529.375L366.657 500.375C368.549 499.324 370.66 498.73 372.822 498.641C374.984 498.552 377.136 498.971 379.108 499.863L431.051 529.887C434.254 531.784 433.856 534.951 430.161 537.075L379.998 566.056C378.092 567.118 375.961 567.713 373.78 567.792C371.6 567.871 369.431 567.433 367.453 566.511Z" fill="#5793CE"/>
<path d="M421.86 560.29C421.813 561.157 421.561 562.001 421.127 562.752C420.692 563.504 420.086 564.142 419.359 564.615C417.975 565.43 416.857 564.766 416.857 563.173C416.904 562.303 417.154 561.457 417.589 560.702C418.024 559.947 418.63 559.306 419.359 558.83C420.742 558.033 421.86 558.678 421.86 560.29Z" fill="#D4ECFF"/>
<path d="M429.933 555.625C429.883 556.496 429.629 557.343 429.191 558.098C428.753 558.852 428.144 559.493 427.413 559.968C426.048 560.765 424.911 560.12 424.911 558.527C424.957 557.659 425.205 556.814 425.637 556.059C426.068 555.305 426.67 554.662 427.394 554.183C428.796 553.387 429.933 554.031 429.933 555.625Z" fill="#D4ECFF"/>
<path d="M437.987 550.978C437.938 551.847 437.686 552.692 437.252 553.447C436.817 554.201 436.213 554.843 435.486 555.321C434.102 556.118 432.984 555.454 432.984 553.861C433.031 552.991 433.281 552.144 433.716 551.39C434.151 550.635 434.757 549.993 435.486 549.517C436.869 548.721 437.987 549.442 437.987 550.978Z" fill="#D4ECFF"/>
<path d="M444.677 520.423V499.01H396.694L380.112 489.431C376.322 487.231 369.67 487.535 365.274 490.057L349.81 498.991H301.789V520.992C301.775 521.834 302.01 522.662 302.466 523.371C302.921 524.08 303.576 524.638 304.347 524.975L366.335 560.821C370.125 563.022 376.796 562.718 381.192 560.214L441.057 525.62C443.597 524.083 444.81 522.187 444.677 520.423Z" fill="#396CAA"/>
<path d="M373.233 487.914C370.449 487.959 367.717 488.682 365.274 490.019L349.81 498.953H301.789V520.992C301.775 521.834 302.01 522.662 302.466 523.371C302.921 524.08 303.576 524.638 304.347 524.975L366.335 560.821C368.463 561.918 370.843 562.429 373.233 562.301V487.914Z" fill="#396CAA"/>
<path d="M307.228 498.934H301.789V520.992C301.775 521.834 302.01 522.662 302.466 523.371C302.921 524.08 303.576 524.638 304.347 524.975L307.228 526.644V498.934Z" fill="#5793CE"/>
<path d="M367.302 561.22C371.143 562.608 375.355 562.561 379.165 561.087V536.165H367.302V561.22Z" fill="#5793CE"/>
<path d="M366.335 538.82L304.347 502.993C300.557 500.792 301.012 496.942 305.409 494.401L365.274 459.806C369.67 457.264 376.322 456.999 380.112 459.199L442.118 495.027C445.909 497.227 445.454 501.058 441.057 503.599L381.192 538.194C376.796 540.736 370.144 541.001 366.335 538.82Z" fill="#D4ECFF"/>
<path d="M441.057 499.389L381.192 533.984C376.796 536.525 370.144 536.791 366.335 534.591L304.347 498.763C303.597 498.35 302.949 497.773 302.452 497.075C301.145 499.18 301.751 501.475 304.347 502.993L366.335 538.82C370.125 541.001 376.796 540.717 381.192 538.194L441.057 503.599C444.468 501.703 445.511 498.877 444.033 496.715C443.268 497.83 442.248 498.747 441.057 499.389Z" fill="white"/>
<path d="M421.86 526.056C421.815 526.926 421.565 527.773 421.131 528.528C420.696 529.283 420.089 529.924 419.359 530.399C417.975 531.215 416.857 530.551 416.857 528.958C416.904 528.088 417.154 527.241 417.589 526.487C418.024 525.732 418.63 525.09 419.359 524.614C420.742 523.818 421.86 524.463 421.86 526.056Z" fill="#D4ECFF"/>
<path d="M429.933 521.409C429.883 522.28 429.629 523.127 429.191 523.882C428.753 524.636 428.144 525.277 427.413 525.752C426.048 526.549 424.911 525.904 424.911 524.311C424.959 523.441 425.21 522.595 425.645 521.841C426.079 521.086 426.685 520.445 427.413 519.967C428.796 519.095 429.933 519.816 429.933 521.409Z" fill="#D4ECFF"/>
<path d="M437.987 516.762C437.94 517.629 437.688 518.472 437.254 519.224C436.819 519.975 436.213 520.613 435.486 521.087C434.102 521.902 432.984 521.238 432.984 519.645C433.031 518.775 433.281 517.929 433.716 517.174C434.151 516.419 434.757 515.778 435.486 515.302C436.869 514.505 437.987 515.15 437.987 516.762Z" fill="#D4ECFF"/>
<path d="M370.011 516.591L340.998 499.825C339.216 498.801 339.444 496.999 341.491 495.823L369.519 479.626C370.573 479.042 371.749 478.712 372.953 478.663C374.157 478.613 375.356 478.846 376.454 479.341L405.468 496.108C407.249 497.132 407.022 498.934 404.975 500.129L376.947 516.307C375.897 516.904 374.72 517.241 373.514 517.291C372.307 517.34 371.106 517.1 370.011 516.591Z" fill="#5793CE"/>
<path d="M372.778 502.556L368.78 500.242C368.533 500.091 368.552 499.844 368.78 499.692L372.57 497.454C372.72 497.381 372.885 497.342 373.053 497.342C373.22 497.342 373.386 497.381 373.536 497.454L377.535 499.787C377.781 499.92 377.762 500.166 377.535 500.337L373.65 502.575C373.512 502.637 373.363 502.667 373.212 502.663C373.061 502.66 372.913 502.624 372.778 502.556Z" fill="#D4ECFF"/>
<path d="M340.998 499.825L341.415 499.541L369.443 483.343C370.497 482.759 371.673 482.43 372.877 482.38C374.081 482.331 375.28 482.563 376.379 483.059L405.316 499.787C406.946 498.611 407.041 496.999 405.316 495.994L376.454 479.265C375.356 478.77 374.157 478.538 372.953 478.587C371.749 478.636 370.573 478.966 369.519 479.55L341.491 495.747C339.444 496.999 339.216 498.801 340.998 499.825Z" fill="#396CAA"/>
<path d="M277.949 155.791C277.949 156.872 277.191 157.308 276.263 156.758C275.775 156.435 275.37 156.003 275.077 155.496C274.784 154.989 274.613 154.422 274.576 153.838C274.576 152.756 275.334 152.32 276.263 152.87C276.75 153.194 277.156 153.626 277.448 154.133C277.741 154.639 277.912 155.207 277.949 155.791Z" fill="#D4ECFF"/>
<path d="M292.844 164.8C292.844 165.881 292.086 166.318 291.158 165.767C290.663 165.452 290.252 165.021 289.958 164.513C289.665 164.005 289.498 163.433 289.471 162.847C289.471 161.766 290.21 161.329 291.158 161.879C291.645 162.203 292.051 162.635 292.343 163.142C292.636 163.649 292.807 164.216 292.844 164.8Z" fill="#D4ECFF"/>
<path d="M307.645 173.904C307.645 174.985 306.887 175.421 305.958 174.871C305.471 174.548 305.065 174.116 304.773 173.609C304.48 173.102 304.309 172.535 304.272 171.951C304.272 170.87 305.03 170.433 305.958 170.983C306.445 171.307 306.851 171.739 307.144 172.246C307.436 172.752 307.608 173.32 307.645 173.904Z" fill="#D4ECFF"/>
<path d="M322.483 182.818C322.483 183.9 321.725 184.336 320.796 183.786C320.309 183.462 319.904 183.03 319.611 182.523C319.318 182.017 319.147 181.449 319.11 180.865C319.11 179.784 319.868 179.348 320.796 179.898C321.284 180.221 321.689 180.653 321.982 181.16C322.275 181.667 322.446 182.234 322.483 182.818Z" fill="#D4ECFF"/>
<path d="M288.296 173.771C288.296 174.071 288.207 174.365 288.041 174.614C287.874 174.864 287.637 175.058 287.36 175.173C287.083 175.288 286.778 175.318 286.484 175.26C286.19 175.201 285.92 175.056 285.708 174.844C285.496 174.632 285.352 174.362 285.293 174.067C285.235 173.773 285.265 173.468 285.379 173.191C285.494 172.913 285.688 172.676 285.938 172.51C286.187 172.343 286.48 172.254 286.78 172.254C287.182 172.254 287.568 172.414 287.852 172.698C288.136 172.983 288.296 173.369 288.296 173.771Z" fill="#D4ECFF"/>
<path d="M302.13 182.06C302.13 182.36 302.041 182.653 301.874 182.903C301.708 183.152 301.471 183.347 301.194 183.462C300.917 183.576 300.612 183.606 300.318 183.548C300.024 183.489 299.754 183.345 299.542 183.133C299.33 182.92 299.186 182.65 299.127 182.356C299.069 182.061 299.099 181.756 299.213 181.479C299.328 181.202 299.522 180.965 299.772 180.798C300.021 180.631 300.314 180.542 300.614 180.542C301.016 180.542 301.402 180.702 301.686 180.987C301.97 181.271 302.13 181.657 302.13 182.06Z" fill="#D4ECFF"/>
<path d="M314.467 191.884C315.304 191.884 315.983 191.205 315.983 190.367C315.983 189.529 315.304 188.85 314.467 188.85C313.63 188.85 312.951 189.529 312.951 190.367C312.951 191.205 313.63 191.884 314.467 191.884Z" fill="#D4ECFF"/>
<path d="M329.817 198.333C329.817 198.633 329.728 198.927 329.562 199.176C329.395 199.426 329.158 199.62 328.881 199.735C328.604 199.85 328.299 199.88 328.005 199.821C327.711 199.763 327.441 199.618 327.229 199.406C327.017 199.194 326.873 198.923 326.814 198.629C326.756 198.335 326.786 198.03 326.9 197.752C327.015 197.475 327.209 197.238 327.459 197.071C327.708 196.905 328.001 196.816 328.301 196.816C328.5 196.816 328.697 196.855 328.881 196.931C329.065 197.007 329.232 197.119 329.373 197.26C329.514 197.401 329.625 197.568 329.702 197.752C329.778 197.936 329.817 198.134 329.817 198.333Z" fill="#D4ECFF"/>
</g>
<path fill-rule="evenodd" clip-rule="evenodd" d="M155.149 278.994C160.222 282.055 165.206 283.533 167.546 282.93C173.412 281.416 173.952 259.935 169.412 251.467C164.873 242.998 141.537 239.307 140.361 256.086C139.953 261.909 142.396 267.106 146.006 271.347L139.533 301.54H158.333L155.149 278.994Z" fill="#B28B67"/>
<path fill-rule="evenodd" clip-rule="evenodd" d="M156.089 257.939C157.715 255.515 159.277 253.667 161.307 252.593C169.572 252.724 170.54 251.241 170.54 246.242C169.205 245.286 164.495 243.676 159.22 243.224C156.529 242.453 153.342 242.598 150.271 243.884C146.48 244.96 143.27 247.278 141.852 251.619C136.723 260.479 140.616 269.702 145.863 272.853C147.26 271.197 148.478 269.592 149.566 268.055C148.692 267.201 148.15 266.009 148.15 264.69C148.15 262.092 150.254 259.986 152.85 259.986C153.041 259.986 153.229 259.997 153.414 260.019C153.531 263.268 154.011 274.257 155.274 278.075C156.763 282.575 165.449 283.68 168.478 283.68C171.095 283.68 171.006 281.2 170.942 279.423C170.933 279.167 170.924 278.925 170.924 278.708C170.924 278.254 170.334 278.255 169.667 278.257C168.802 278.258 167.807 278.26 167.807 277.266C167.807 276.183 169.303 275.351 170.642 274.607C171.477 274.143 172.251 273.713 172.563 273.277C173.545 271.902 173.875 270.046 172.394 270.046C171.584 270.046 170.473 270.513 169.136 271.075C167.118 271.924 164.586 272.989 161.8 272.989C157.197 272.989 156.103 258.125 156.089 257.939Z" fill="#191847"/>
<path fill-rule="evenodd" clip-rule="evenodd" d="M133.267 366.615L161.666 466.366L182.387 539.887H197.5L175.481 366.615H133.267Z" fill="#191847"/>
<path fill-rule="evenodd" clip-rule="evenodd" d="M125.672 366.615C125.015 418.028 122.775 446.07 122.085 450.741C121.395 455.412 110.967 485.127 90.7993 539.887H106.455C132.13 487.354 146.462 457.639 149.452 450.741C152.442 443.842 161.669 415.801 175.567 366.615H125.672Z" fill="#2F3676"/>
<path fill-rule="evenodd" clip-rule="evenodd" d="M89.4 554L90.1834 537.535L106.633 537.535C118.334 545.768 137.183 550.864 137.183 550.864V554H107.417L97.2334 552.432V554H89.4Z" fill="#191847"/>
<path fill-rule="evenodd" clip-rule="evenodd" d="M180.267 554L181.05 537.535L197.5 537.535C209.2 545.768 228.05 550.864 228.05 550.864V554H198.283L188.1 552.432V554H180.267Z" fill="#191847"/>
<path fill-rule="evenodd" clip-rule="evenodd" d="M72.4521 395.063C75.3734 390.767 92.2726 345.082 92.2726 345.082L106.147 347.099C106.147 347.099 83.8077 395.611 82.1942 398.411C80.0984 402.048 81.9522 408.021 83.2093 412.072C83.4037 412.699 83.5839 413.279 83.733 413.798C81.0924 414.561 80.0879 413.048 79.0288 411.454C77.8326 409.652 76.5669 407.746 72.7957 408.896C71.3387 409.341 69.9389 409.912 68.5713 410.469C63.8473 412.396 59.5076 414.166 54.5232 410.027C53.733 409.371 53.0673 407.226 55.579 405.976C61.8365 402.862 71.0239 397.163 72.4521 395.063ZM222.994 373.829L199.348 353.765L192.885 367.012L216.853 378.985C223.26 387.681 226.925 391.376 227.846 390.069C228.623 388.967 228.154 387.852 227.722 386.825C227.385 386.025 227.071 385.278 227.386 384.632C228.105 383.158 232.783 383.646 237.202 384.299C241.622 384.952 240.465 382.883 239.462 381.83C235.116 378.795 229.627 376.129 222.994 373.829Z" fill="#B28B67"/>
<path fill-rule="evenodd" clip-rule="evenodd" d="M150.261 288.472L158.858 285.626C170.52 314.785 187.912 342.997 216.971 366.827L209.785 379.235C184.247 364.178 160.071 352.481 150.261 329.887C146.968 322.303 149.992 297.539 150.261 288.472Z" fill="#C5CFD6"/>
<path fill-rule="evenodd" clip-rule="evenodd" d="M120.733 370.535C120.733 370.535 157.673 374.455 178.885 370.535C180.637 370.211 180.913 367.276 180.101 365.283C167.448 334.253 158.772 307.178 158.772 285.626C155.29 287.383 146.583 286.153 146.583 286.153C130.984 308.363 123.814 333.847 120.733 370.535Z" fill="#323337"/>
<path fill-rule="evenodd" clip-rule="evenodd" d="M142.113 284.291C142.516 284.019 142.728 283.884 142.728 283.884L142.705 284.291H149.206C149.533 286.214 150.011 293.341 150.709 303.734C153.244 341.499 158.675 422.381 170.233 453.334H90.4851C92.1677 418.143 105.131 376.06 118.559 340.326C108.65 350.194 97.0776 366.735 87.725 394.27L72.7875 390.432C88.0102 324.777 132.61 290.917 141.264 284.874C141.349 284.679 141.433 284.484 141.516 284.291H142.113Z" fill="#DDE3E9"/>
<defs>
<clipPath id="clip0">
<rect width="536" height="675" fill="white"/>
</clipPath>
</defs>
</svg>
