<svg width="274" height="344" viewBox="0 0 274 344" fill="none" xmlns="http://www.w3.org/2000/svg">
<path fill-rule="evenodd" clip-rule="evenodd" d="M57.5167 189.862C48.6801 189.862 41.5167 197.025 41.5167 205.862V270.883C41.5167 279.719 48.6801 286.883 57.5167 286.883H140.667C149.503 286.883 156.667 279.719 156.667 270.883V205.862C156.667 197.025 149.503 189.862 140.667 189.862H57.5167ZM67.45 211.77C65.2409 211.77 63.45 213.561 63.45 215.77V260.975C63.45 263.184 65.2408 264.975 67.45 264.975H130.733C132.942 264.975 134.733 263.184 134.733 260.975V215.77C134.733 213.561 132.942 211.77 130.733 211.77H67.45Z" fill="#C5CFD6"/>
<path fill-rule="evenodd" clip-rule="evenodd" d="M234.341 282.971C218.897 264.133 208.447 250.168 202.992 241.075C193.65 225.505 186.005 211.651 183.592 206.359C177.839 193.739 196.837 187.83 201.137 193.716C207.645 202.625 221.544 230.66 242.833 277.82L234.341 282.971Z" fill="#B28B67"/>
<path fill-rule="evenodd" clip-rule="evenodd" d="M202.693 277.494L173.951 205.226C167.804 192.052 197.491 183.393 202.009 189.524C212.266 203.443 236.644 258.351 239.7 262.498L202.693 277.494Z" fill="#444657"/>
<path fill-rule="evenodd" clip-rule="evenodd" d="M126.143 263.004C131.742 254.846 152.109 227.4 163.201 216.043C166.389 212.78 169.499 209.648 172.441 206.729C181.185 198.053 198.593 212.632 189.866 220.534C168.13 240.214 136.417 266.781 133.767 269.15C130.054 272.47 122.624 268.13 126.143 263.004Z" fill="#B28B67"/>
<path fill-rule="evenodd" clip-rule="evenodd" d="M130.051 260.021C129.346 259.087 128.004 258.862 127.115 259.624C125.871 260.69 124.292 262.156 123.688 263.202C122.628 265.035 121.207 268.904 121.207 268.904C123.336 270.131 159.47 290.969 159.47 290.969C159.47 290.969 163.808 286.904 160.821 284.658C157.835 282.412 155.892 280.87 155.892 280.87L142.817 262.876C142.486 262.42 141.844 262.328 141.397 262.671L138.83 264.646C138.83 264.646 135.054 264.317 133.194 263.244C132.173 262.655 130.949 261.207 130.051 260.021Z" fill="#E4E4E4"/>
<path fill-rule="evenodd" clip-rule="evenodd" d="M230.301 279.467C229.223 279.011 227.949 279.486 227.56 280.59C227.017 282.134 226.383 284.193 226.383 285.401C226.383 287.517 227.089 291.577 227.089 291.577C229.547 291.577 271.271 291.577 271.271 291.577C271.271 291.577 272.993 285.891 269.282 285.437C265.572 284.984 263.118 284.618 263.118 284.618L242.786 275.565C242.271 275.336 241.669 275.576 241.454 276.097L240.219 279.089C240.219 279.089 236.785 280.69 234.637 280.69C233.458 280.69 231.672 280.047 230.301 279.467Z" fill="#E4E4E4"/>
<path fill-rule="evenodd" clip-rule="evenodd" d="M163.609 208.836C163.609 208.836 127.775 203.005 115.605 200.861C92.4784 196.788 85.7345 184.358 89.7218 157.236L132.332 157.236C140.79 159.676 203.015 187.414 203.015 187.414C210.478 191.115 209.088 202.027 207.724 205.622C207.641 205.842 169.977 270.227 169.977 270.227L135.12 248.047L163.674 211.449C163.674 211.449 164.805 209.174 163.609 208.836Z" fill="#63657C"/>
<path fill-rule="evenodd" clip-rule="evenodd" d="M111.075 57.7496C116.045 60.7452 120.928 62.1926 123.22 61.6017C128.968 60.1201 129.497 39.0923 125.049 30.8025C120.602 22.5127 97.7378 18.8995 96.5854 35.3242C96.1854 41.0248 98.579 46.1121 102.116 50.2633L95.7743 79.8194H114.194L111.075 57.7496Z" fill="#B28B67"/>
<path fill-rule="evenodd" clip-rule="evenodd" d="M100.7 53.9606C98.3883 43.6754 91.8021 36.6643 92.808 32.0672C93.8138 27.4702 98.1698 26.3497 98.1698 26.3497C98.1698 26.3497 100.423 17.2358 112.702 18.5967C124.981 19.9576 132.475 25.057 129.239 36.2778C126.264 36.2778 122.672 35.2019 117.706 37.0453C115.342 37.9227 114.325 42.4869 114.325 42.4869H112.08C112.08 42.4869 108.813 37.0704 105.637 38.5061C102.461 39.9418 104.193 45.4806 104.193 45.4806L103.088 53.9606H100.7Z" fill="#37231F"/>
<path d="M187.713 12.9485L246.597 42.457C247.087 42.7023 247.493 43.0862 247.764 43.5605C248.036 44.0349 248.161 44.5786 248.124 45.1236L244.703 95.6345C244.688 95.861 244.617 96.0803 244.496 96.2726C244.374 96.465 244.207 96.6244 244.01 96.7368C243.812 96.8492 243.589 96.9109 243.361 96.9166C243.133 96.9222 242.908 96.8715 242.704 96.7691L182.478 66.1323L185.57 14.1799C185.584 13.9358 185.66 13.6992 185.788 13.4913C185.917 13.2833 186.096 13.1105 186.309 12.9885C186.521 12.8664 186.761 12.7988 187.006 12.7919C187.251 12.7849 187.494 12.8387 187.713 12.9485Z" fill="#D0CDE1"/>
<path d="M188.391 13.9778L245.828 42.7614C246.306 43.0008 246.702 43.3752 246.967 43.8379C247.232 44.3006 247.354 44.831 247.318 45.3626L243.981 94.6328C243.966 94.8538 243.897 95.0676 243.778 95.2552C243.66 95.4429 243.498 95.5984 243.304 95.708C243.111 95.8176 242.894 95.8779 242.672 95.8834C242.45 95.8889 242.23 95.8394 242.031 95.7395L183.284 65.8553L186.3 15.1789C186.314 14.9409 186.388 14.7101 186.513 14.5072C186.639 14.3044 186.814 14.1358 187.021 14.0168C187.228 13.8977 187.462 13.8318 187.701 13.825C187.94 13.8182 188.177 13.8707 188.391 13.9778Z" fill="#3F3D56"/>
<path d="M190.908 17.801L242.974 43.8925C243.406 44.1094 243.765 44.4489 244.006 44.8683C244.246 45.2877 244.357 45.7685 244.324 46.2503L241.299 90.9123C241.286 91.1127 241.222 91.3065 241.115 91.4766C241.008 91.6467 240.861 91.7877 240.686 91.887C240.511 91.9864 240.314 92.041 240.112 92.046C239.911 92.0509 239.711 92.0062 239.532 91.9156L186.279 64.8264L189.013 18.8897C189.026 18.674 189.092 18.4647 189.206 18.2809C189.32 18.097 189.478 17.9442 189.666 17.8363C189.854 17.7283 190.066 17.6686 190.283 17.6625C190.5 17.6563 190.714 17.7039 190.908 17.801Z" fill="white"/>
<path d="M137.185 90.9867L196.144 120.583C196.692 120.858 197.298 121.001 197.912 121C198.526 120.999 199.132 120.855 199.68 120.578L243.296 98.5092C243.807 97.9994 243.736 97.244 243.572 96.6768C243.493 96.4022 243.385 96.1367 243.25 95.8846L237.306 92.7686L187.334 67.9165L184.348 66.3367C183.558 65.9195 182.678 65.6996 181.784 65.696C180.889 65.6924 180.007 65.9052 179.214 66.316L137.166 88.0866C136.899 88.2245 136.675 88.4335 136.519 88.6904C136.363 88.9473 136.282 89.2421 136.283 89.5423C136.285 89.8425 136.371 90.1363 136.53 90.3912C136.689 90.6461 136.915 90.8523 137.185 90.9867Z" fill="#D0CDE1"/>
<path opacity="0.1" d="M137.185 90.9868L196.144 120.583C196.692 120.858 197.298 121.001 197.912 121C198.526 120.999 199.132 120.855 199.68 120.578L243.296 98.5093C243.807 97.9995 243.736 97.244 243.572 96.6768L200.086 119.206C199.556 119.481 198.968 119.627 198.37 119.632C197.772 119.637 197.181 119.502 196.646 119.236L136.305 89.2715C136.248 89.6136 136.303 89.9649 136.461 90.2736C136.619 90.5824 136.873 90.8323 137.185 90.9868Z" fill="black"/>
<path opacity="0.1" d="M193.146 99.8544L174.052 90.2369C173.668 90.0433 173.242 89.9448 172.811 89.9496C172.381 89.9545 171.958 90.0627 171.578 90.265L160.501 96.1633C160.373 96.2315 160.267 96.3334 160.193 96.4578C160.119 96.5823 160.081 96.7246 160.082 96.8693C160.084 97.0139 160.126 97.1552 160.202 97.278C160.279 97.4007 160.388 97.5 160.518 97.5651L179.986 107.351C180.309 107.513 180.668 107.594 181.03 107.585C181.392 107.577 181.746 107.48 182.061 107.303L193.182 101.058C193.29 100.997 193.38 100.908 193.441 100.8C193.502 100.692 193.533 100.569 193.529 100.445C193.525 100.321 193.488 100.201 193.42 100.097C193.353 99.9925 193.258 99.9087 193.146 99.8544Z" fill="black"/>
<path opacity="0.1" d="M238.115 98.2459L217.568 109.126C217.332 109.251 217.069 109.318 216.801 109.321C216.533 109.323 216.269 109.262 216.03 109.141L157.977 79.8788C157.813 79.7964 157.676 79.6702 157.58 79.5143C157.484 79.3585 157.434 79.1792 157.435 78.9965C157.436 78.8138 157.487 78.6349 157.584 78.4799C157.681 78.3248 157.82 78.1998 157.984 78.1188L178.049 68.2201C178.351 68.0709 178.684 67.9939 179.021 67.9951C179.359 67.9963 179.691 68.0757 179.993 68.227L238.106 97.4122C238.183 97.4509 238.248 97.51 238.294 97.5831C238.34 97.6561 238.364 97.7403 238.365 97.8263C238.366 97.9124 238.343 97.997 238.299 98.071C238.255 98.1451 238.192 98.2056 238.115 98.2459Z" fill="black"/>
<path d="M205.336 43.9858L205.233 44.1912L224.124 53.6057L224.227 53.4003L205.336 43.9858Z" fill="#6C63FF"/>
<path d="M205.335 46.7468L205.23 46.9511L224.125 56.5853L224.23 56.381L205.335 46.7468Z" fill="#6C63FF"/>
<path d="M208.793 52.0217L208.688 52.2262L219.515 57.74L219.619 57.5354L208.793 52.0217Z" fill="#6C63FF"/>
<path d="M187.751 30.3519L186.083 34.3075L200.166 41.6761L204.911 27.8359" fill="#F2F2F2"/>
<path d="M199.842 39.2493L206.064 24.6571L191.764 17.6433L185.758 31.8807L199.842 39.2493Z" fill="#6C63FF"/>
<path d="M191.426 23.2234L191.321 23.4279L202.147 28.9417L202.252 28.7372L191.426 23.2234Z" fill="white"/>
<path d="M190.614 25.1649L190.509 25.3694L201.335 30.8831L201.44 30.6786L190.614 25.1649Z" fill="white"/>
<path fill-rule="evenodd" clip-rule="evenodd" d="M152.99 88.3557L127.5 102.283L136.913 112.362L155.434 95.4441C165.192 92.7615 169.654 90.7991 168.821 89.5568C168.118 88.5094 166.985 88.5458 165.942 88.5793C165.129 88.6054 164.37 88.6297 163.912 88.1387C162.864 87.0172 164.863 83.0959 166.919 79.4556C168.975 75.8153 166.776 76.1322 165.519 76.6557C161.405 79.4341 157.229 83.3341 152.99 88.3557ZM178.619 107.898L167.422 114.034L168.059 125.243C168.059 125.243 175.311 120.022 181.55 118.287C189.505 116.074 192.723 114.384 196.611 109.443C198.69 106.799 200.456 101.484 198.476 99.7536C197.717 99.0897 194.887 100.658 192 102.259C189.8 103.478 187.566 104.717 186.19 104.999C184.337 105.38 184.554 102.984 184.727 101.07C184.852 99.6965 184.954 98.5707 184.253 98.8962C180.975 98.9522 178.619 107.898 178.619 107.898Z" fill="#997659"/>
<path fill-rule="evenodd" clip-rule="evenodd" d="M115.086 99.1805C124.014 99.0864 135.92 97.2052 148.624 89.1607L153.613 100.26C144.85 108.935 132.529 116.063 121.756 115.761C113.266 115.524 108.926 105.279 115.086 99.1805Z" fill="#2026A2"/>
<path fill-rule="evenodd" clip-rule="evenodd" d="M91.0062 175.221C82.5183 174.118 74.7191 173.103 70.0972 174.011C64.9115 157.21 69.2176 146.631 73.1927 136.866C75.5885 130.98 77.8641 125.39 77.8689 118.911C77.8831 100.043 93.0697 71 95.3041 71H95.9454H113.653H115.681C116.592 82.676 120.48 95.3179 124.393 108.041C125.307 111.012 126.222 113.988 127.101 116.957C141.91 120.31 174.792 108.637 174.792 108.637C174.792 108.637 183.093 125.77 182.467 133.065C163.327 143.039 146.923 147.486 133.408 147.78C133.838 155.78 132.861 163.392 129.582 170.348C125.189 179.667 106.892 177.288 91.0062 175.221Z" fill="#1F28CF"/>
</svg>
