<svg width="458" height="442" viewBox="0 0 458 442" fill="none" xmlns="http://www.w3.org/2000/svg">
<g opacity="0.6">
<path opacity="0.6" fill-rule="evenodd" clip-rule="evenodd" d="M399.621 248.369C404.381 280.551 288.95 301.542 189.597 286.893C90.2426 272.244 44.6639 215.037 92.0738 184.555C139.484 154.073 394.861 216.187 399.621 248.369Z" fill="#DDE3E9"/>
</g>
<path d="M196.547 37.4412H126.014C123.834 37.4412 122.068 39.2057 122.068 41.3823V182.279C122.068 184.456 123.834 186.221 126.014 186.221H196.547C198.727 186.221 200.493 184.456 200.493 182.279V41.3823C200.493 39.2057 198.727 37.4412 196.547 37.4412Z" fill="#F2F2F2"/>
<path fill-rule="evenodd" clip-rule="evenodd" d="M161.034 176.86C165.12 176.86 168.432 173.552 168.432 169.471C168.432 165.389 165.12 162.081 161.034 162.081C156.948 162.081 153.635 165.389 153.635 169.471C153.635 173.552 156.948 176.86 161.034 176.86Z" fill="white"/>
<path fill-rule="evenodd" clip-rule="evenodd" d="M154.622 47.2941C155.167 47.2941 155.608 46.853 155.608 46.3088C155.608 45.7647 155.167 45.3235 154.622 45.3235C154.077 45.3235 153.635 45.7647 153.635 46.3088C153.635 46.853 154.077 47.2941 154.622 47.2941Z" fill="white"/>
<path d="M167.446 45.3235H159.061C158.516 45.3235 158.074 45.7647 158.074 46.3088C158.074 46.853 158.516 47.2941 159.061 47.2941H167.446C167.991 47.2941 168.432 46.853 168.432 46.3088C168.432 45.7647 167.991 45.3235 167.446 45.3235Z" fill="white"/>
<path d="M191.615 51.2353H130.946C129.856 51.2353 128.973 52.1176 128.973 53.2059V75.8676C128.973 76.956 129.856 77.8382 130.946 77.8382H191.615C192.705 77.8382 193.588 76.956 193.588 75.8676V53.2059C193.588 52.1176 192.705 51.2353 191.615 51.2353Z" fill="white"/>
<path d="M182.737 59.2162H149.689C148.872 59.2162 148.209 59.8779 148.209 60.6941V61.7287C148.209 62.5449 148.872 63.2066 149.689 63.2066H182.737C183.554 63.2066 184.216 62.5449 184.216 61.7287V60.6941C184.216 59.8779 183.554 59.2162 182.737 59.2162Z" fill="#DDE3E9"/>
<path d="M170.899 65.8669H149.689C148.872 65.8669 148.209 66.5286 148.209 67.3449V68.3794C148.209 69.1957 148.872 69.8574 149.689 69.8574H170.899C171.716 69.8574 172.378 69.1957 172.378 68.3794V67.3449C172.378 66.5286 171.716 65.8669 170.899 65.8669Z" fill="#DDE3E9"/>
<path fill-rule="evenodd" clip-rule="evenodd" d="M139.331 70.4485C142.6 70.4485 145.25 67.8015 145.25 64.5368C145.25 61.272 142.6 58.625 139.331 58.625C136.062 58.625 133.412 61.272 133.412 64.5368C133.412 67.8015 136.062 70.4485 139.331 70.4485Z" fill="#C5CFD6"/>
<path d="M191.615 81.7794H130.946C129.856 81.7794 128.973 82.6617 128.973 83.75V100.5C128.973 101.588 129.856 102.471 130.946 102.471H191.615C192.705 102.471 193.588 101.588 193.588 100.5V83.75C193.588 82.6617 192.705 81.7794 191.615 81.7794Z" fill="white"/>
<path d="M182.737 87.9868H149.689C148.872 87.9868 148.209 88.6485 148.209 89.4648V89.6125C148.209 90.4288 148.872 91.0905 149.689 91.0905H182.737C183.554 91.0905 184.216 90.4288 184.216 89.6125V89.4648C184.216 88.6485 183.554 87.9868 182.737 87.9868Z" fill="#DDE3E9"/>
<path d="M170.899 93.1595H149.689C148.872 93.1595 148.209 93.8212 148.209 94.6375V94.7853C148.209 95.6015 148.872 96.2632 149.689 96.2632H170.899C171.716 96.2632 172.378 95.6015 172.378 94.7853V94.6375C172.378 93.8212 171.716 93.1595 170.899 93.1595Z" fill="#DDE3E9"/>
<path fill-rule="evenodd" clip-rule="evenodd" d="M139.331 98.0368C142.6 98.0368 145.25 95.3898 145.25 92.125C145.25 88.8603 142.6 86.2133 139.331 86.2133C136.062 86.2133 133.412 88.8603 133.412 92.125C133.412 95.3898 136.062 98.0368 139.331 98.0368Z" fill="#C5CFD6"/>
<path d="M191.615 106.412H130.946C129.856 106.412 128.973 107.294 128.973 108.382V125.132C128.973 126.221 129.856 127.103 130.946 127.103H191.615C192.705 127.103 193.588 126.221 193.588 125.132V108.382C193.588 107.294 192.705 106.412 191.615 106.412Z" fill="white"/>
<path d="M182.737 112.619H149.689C148.872 112.619 148.209 113.281 148.209 114.097V114.245C148.209 115.061 148.872 115.723 149.689 115.723H182.737C183.554 115.723 184.216 115.061 184.216 114.245V114.097C184.216 113.281 183.554 112.619 182.737 112.619Z" fill="#DDE3E9"/>
<path d="M170.899 117.792H149.689C148.872 117.792 148.209 118.454 148.209 119.27V119.418C148.209 120.234 148.872 120.896 149.689 120.896H170.899C171.716 120.896 172.378 120.234 172.378 119.418V119.27C172.378 118.454 171.716 117.792 170.899 117.792Z" fill="#DDE3E9"/>
<path fill-rule="evenodd" clip-rule="evenodd" d="M139.331 122.669C142.6 122.669 145.25 120.022 145.25 116.757C145.25 113.493 142.6 110.846 139.331 110.846C136.062 110.846 133.412 113.493 133.412 116.757C133.412 120.022 136.062 122.669 139.331 122.669Z" fill="#AFB9C5"/>
<path d="M191.615 131.044H130.946C129.856 131.044 128.973 131.926 128.973 133.015V149.765C128.973 150.853 129.856 151.735 130.946 151.735H191.615C192.705 151.735 193.588 150.853 193.588 149.765V133.015C193.588 131.926 192.705 131.044 191.615 131.044Z" fill="white"/>
<path d="M182.737 137.251H149.689C148.872 137.251 148.209 137.913 148.209 138.729V138.877C148.209 139.693 148.872 140.355 149.689 140.355H182.737C183.554 140.355 184.216 139.693 184.216 138.877V138.729C184.216 137.913 183.554 137.251 182.737 137.251Z" fill="#DDE3E9"/>
<path d="M170.899 142.424H149.689C148.872 142.424 148.209 143.086 148.209 143.902V144.05C148.209 144.866 148.872 145.528 149.689 145.528H170.899C171.716 145.528 172.378 144.866 172.378 144.05V143.902C172.378 143.086 171.716 142.424 170.899 142.424Z" fill="#DDE3E9"/>
<path fill-rule="evenodd" clip-rule="evenodd" d="M139.331 147.301C142.6 147.301 145.25 144.654 145.25 141.39C145.25 138.125 142.6 135.478 139.331 135.478C136.062 135.478 133.412 138.125 133.412 141.39C133.412 144.654 136.062 147.301 139.331 147.301Z" fill="#C5CFD6"/>
<path d="M229.101 50.25H158.568C156.388 50.25 154.622 52.0145 154.622 54.1912V195.088C154.622 197.265 156.388 199.029 158.568 199.029H229.101C231.281 199.029 233.047 197.265 233.047 195.088V54.1912C233.047 52.0145 231.281 50.25 229.101 50.25Z" fill="#DDE3E9"/>
<path fill-rule="evenodd" clip-rule="evenodd" d="M193.588 189.669C197.674 189.669 200.986 186.36 200.986 182.279C200.986 178.198 197.674 174.89 193.588 174.89C189.502 174.89 186.189 178.198 186.189 182.279C186.189 186.36 189.502 189.669 193.588 189.669Z" fill="white"/>
<path fill-rule="evenodd" clip-rule="evenodd" d="M187.176 60.1029C187.721 60.1029 188.162 59.662 188.162 59.1176C188.162 58.5732 187.721 58.1323 187.176 58.1323C186.631 58.1323 186.189 58.5732 186.189 59.1176C186.189 59.662 186.631 60.1029 187.176 60.1029Z" fill="white"/>
<path d="M200 58.1323H191.615C191.07 58.1323 190.628 58.5735 190.628 59.1176C190.628 59.6618 191.07 60.1029 191.615 60.1029H200C200.545 60.1029 200.986 59.6618 200.986 59.1176C200.986 58.5735 200.545 58.1323 200 58.1323Z" fill="white"/>
<path d="M224.169 64.0441H163.5C162.41 64.0441 161.527 64.9264 161.527 66.0147V88.6765C161.527 89.7648 162.41 90.6471 163.5 90.6471H224.169C225.259 90.6471 226.142 89.7648 226.142 88.6765V66.0147C226.142 64.9264 225.259 64.0441 224.169 64.0441Z" fill="white"/>
<path d="M200.493 72.025H167.446C166.629 72.025 165.966 72.6867 165.966 73.503V74.5375C165.966 75.3538 166.629 76.0155 167.446 76.0155H200.493C201.31 76.0155 201.973 75.3538 201.973 74.5375V73.503C201.973 72.6867 201.31 72.025 200.493 72.025Z" fill="#DDE3E9"/>
<path d="M188.655 78.6757H167.446C166.629 78.6757 165.966 79.3374 165.966 80.1537V81.1882C165.966 82.0045 166.629 82.6662 167.446 82.6662H188.655C189.473 82.6662 190.135 82.0045 190.135 81.1882V80.1537C190.135 79.3374 189.473 78.6757 188.655 78.6757Z" fill="#DDE3E9"/>
<path fill-rule="evenodd" clip-rule="evenodd" d="M219.236 80.7941C221.143 80.7941 222.689 79.2501 222.689 77.3456C222.689 75.441 221.143 73.897 219.236 73.897C217.33 73.897 215.784 75.441 215.784 77.3456C215.784 79.2501 217.33 80.7941 219.236 80.7941Z" fill="#DDE3E9"/>
<path fill-rule="evenodd" clip-rule="evenodd" d="M219.237 78.8235C220.054 78.8235 220.716 78.1619 220.716 77.3456C220.716 76.5292 220.054 75.8676 219.237 75.8676C218.419 75.8676 217.757 76.5292 217.757 77.3456C217.757 78.1619 218.419 78.8235 219.237 78.8235Z" fill="#F2F2F2"/>
<path d="M224.169 94.5883H163.5C162.41 94.5883 161.527 95.4705 161.527 96.5588V113.309C161.527 114.397 162.41 115.279 163.5 115.279H224.169C225.259 115.279 226.142 114.397 226.142 113.309V96.5588C226.142 95.4705 225.259 94.5883 224.169 94.5883Z" fill="white"/>
<path d="M215.291 100.796H182.243C181.426 100.796 180.764 101.457 180.764 102.274V102.421C180.764 103.238 181.426 103.899 182.243 103.899H215.291C216.108 103.899 216.77 103.238 216.77 102.421V102.274C216.77 101.457 216.108 100.796 215.291 100.796Z" fill="#DDE3E9"/>
<path d="M203.453 105.968H182.243C181.426 105.968 180.764 106.63 180.764 107.446V107.594C180.764 108.41 181.426 109.072 182.243 109.072H203.453C204.27 109.072 204.932 108.41 204.932 107.594V107.446C204.932 106.63 204.27 105.968 203.453 105.968Z" fill="#DDE3E9"/>
<path fill-rule="evenodd" clip-rule="evenodd" d="M171.885 110.846C175.154 110.846 177.804 108.199 177.804 104.934C177.804 101.669 175.154 99.0221 171.885 99.0221C168.616 99.0221 165.966 101.669 165.966 104.934C165.966 108.199 168.616 110.846 171.885 110.846Z" fill="#C5CFD6"/>
<path d="M224.169 119.221H163.5C162.41 119.221 161.527 120.103 161.527 121.191V137.941C161.527 139.03 162.41 139.912 163.5 139.912H224.169C225.259 139.912 226.142 139.03 226.142 137.941V121.191C226.142 120.103 225.259 119.221 224.169 119.221Z" fill="white"/>
<path d="M200.493 125.428H167.446C166.629 125.428 165.966 126.09 165.966 126.906V127.054C165.966 127.87 166.629 128.532 167.446 128.532H200.493C201.31 128.532 201.973 127.87 201.973 127.054V126.906C201.973 126.09 201.31 125.428 200.493 125.428Z" fill="#DDE3E9"/>
<path d="M188.655 130.601H167.446C166.629 130.601 165.966 131.262 165.966 132.079V132.226C165.966 133.043 166.629 133.704 167.446 133.704H188.655C189.473 133.704 190.135 133.043 190.135 132.226V132.079C190.135 131.262 189.473 130.601 188.655 130.601Z" fill="#AFB9C5"/>
<path fill-rule="evenodd" clip-rule="evenodd" d="M219.236 133.015C221.143 133.015 222.689 131.471 222.689 129.566C222.689 127.662 221.143 126.118 219.236 126.118C217.33 126.118 215.784 127.662 215.784 129.566C215.784 131.471 217.33 133.015 219.236 133.015Z" fill="#DDE3E9"/>
<path fill-rule="evenodd" clip-rule="evenodd" d="M219.237 131.044C220.054 131.044 220.716 130.383 220.716 129.566C220.716 128.75 220.054 128.088 219.237 128.088C218.419 128.088 217.757 128.75 217.757 129.566C217.757 130.383 218.419 131.044 219.237 131.044Z" fill="#F2F2F2"/>
<path d="M224.169 143.853H163.5C162.41 143.853 161.527 144.735 161.527 145.823V162.573C161.527 163.662 162.41 164.544 163.5 164.544H224.169C225.259 164.544 226.142 163.662 226.142 162.573V145.823C226.142 144.735 225.259 143.853 224.169 143.853Z" fill="white"/>
<path d="M215.291 150.06H182.243C181.426 150.06 180.764 150.722 180.764 151.538V151.686C180.764 152.502 181.426 153.164 182.243 153.164H215.291C216.108 153.164 216.77 152.502 216.77 151.686V151.538C216.77 150.722 216.108 150.06 215.291 150.06Z" fill="#DDE3E9"/>
<path d="M203.453 155.233H182.243C181.426 155.233 180.764 155.895 180.764 156.711V156.859C180.764 157.675 181.426 158.337 182.243 158.337H203.453C204.27 158.337 204.932 157.675 204.932 156.859V156.711C204.932 155.895 204.27 155.233 203.453 155.233Z" fill="#DDE3E9"/>
<path fill-rule="evenodd" clip-rule="evenodd" d="M171.885 160.11C175.154 160.11 177.804 157.463 177.804 154.199C177.804 150.934 175.154 148.287 171.885 148.287C168.616 148.287 165.966 150.934 165.966 154.199C165.966 157.463 168.616 160.11 171.885 160.11Z" fill="#C5CFD6"/>
<path d="M348.466 62.5662H191.122C188.942 62.5662 187.176 64.3307 187.176 66.5073V229.081C187.176 231.258 188.942 233.022 191.122 233.022H348.466C350.645 233.022 352.412 231.258 352.412 229.081V66.5073C352.412 64.3307 350.645 62.5662 348.466 62.5662Z" fill="#F2F2F2"/>
<path d="M340.574 83.75H313.939C311.76 83.75 309.993 85.5145 309.993 87.6912V119.713C309.993 121.89 311.76 123.654 313.939 123.654H340.574C342.754 123.654 344.52 121.89 344.52 119.713V87.6912C344.52 85.5145 342.754 83.75 340.574 83.75Z" fill="white"/>
<path fill-rule="evenodd" clip-rule="evenodd" d="M327.257 106.904C331.616 106.904 335.149 103.376 335.149 99.0221C335.149 94.6685 331.616 91.1397 327.257 91.1397C322.898 91.1397 319.365 94.6685 319.365 99.0221C319.365 103.376 322.898 106.904 327.257 106.904Z" fill="#DDE3E9"/>
<path d="M338.108 108.875H316.405C315.588 108.875 314.926 109.537 314.926 110.353C314.926 111.169 315.588 111.831 316.405 111.831H338.108C338.925 111.831 339.588 111.169 339.588 110.353C339.588 109.537 338.925 108.875 338.108 108.875Z" fill="#DDE3E9"/>
<path d="M334.162 113.801H320.351C319.534 113.801 318.872 114.463 318.872 115.279C318.872 116.096 319.534 116.757 320.351 116.757H334.162C334.979 116.757 335.642 116.096 335.642 115.279C335.642 114.463 334.979 113.801 334.162 113.801Z" fill="#DDE3E9"/>
<path d="M187.176 66.5073C187.176 64.3308 188.942 62.5662 191.122 62.5662H348.466C350.645 62.5662 352.412 64.3308 352.412 66.5073V75.8676H187.176V66.5073Z" fill="#C5CFD6"/>
<path fill-rule="evenodd" clip-rule="evenodd" d="M193.588 71.4339C194.677 71.4339 195.561 70.5515 195.561 69.4633C195.561 68.375 194.677 67.4927 193.588 67.4927C192.498 67.4927 191.615 68.375 191.615 69.4633C191.615 70.5515 192.498 71.4339 193.588 71.4339Z" fill="#F2F2F2"/>
<path fill-rule="evenodd" clip-rule="evenodd" d="M199.507 71.4339C200.596 71.4339 201.48 70.5515 201.48 69.4633C201.48 68.375 200.596 67.4927 199.507 67.4927C198.417 67.4927 197.534 68.375 197.534 69.4633C197.534 70.5515 198.417 71.4339 199.507 71.4339Z" fill="#F2F2F2"/>
<path fill-rule="evenodd" clip-rule="evenodd" d="M205.426 71.4339C206.515 71.4339 207.399 70.5515 207.399 69.4633C207.399 68.375 206.515 67.4927 205.426 67.4927C204.336 67.4927 203.453 68.375 203.453 69.4633C203.453 70.5515 204.336 71.4339 205.426 71.4339Z" fill="#F2F2F2"/>
<path d="M340.574 127.596H313.939C311.76 127.596 309.993 129.36 309.993 131.537V219.228C309.993 221.405 311.76 223.169 313.939 223.169H340.574C342.754 223.169 344.52 221.405 344.52 219.228V131.537C344.52 129.36 342.754 127.596 340.574 127.596Z" fill="white"/>
<path d="M333.669 136.463H320.845C319.755 136.463 318.872 137.346 318.872 138.434V147.301C318.872 148.39 319.755 149.272 320.845 149.272H333.669C334.759 149.272 335.642 148.39 335.642 147.301V138.434C335.642 137.346 334.759 136.463 333.669 136.463Z" fill="#DDE3E9"/>
<path d="M333.669 153.213H320.845C319.755 153.213 318.872 154.096 318.872 155.184V163.559C318.872 164.647 319.755 165.529 320.845 165.529H333.669C334.759 165.529 335.642 164.647 335.642 163.559V155.184C335.642 154.096 334.759 153.213 333.669 153.213Z" fill="#AFB9C5"/>
<path d="M333.669 169.471H320.845C319.755 169.471 318.872 170.353 318.872 171.441V179.816C318.872 180.905 319.755 181.787 320.845 181.787H333.669C334.759 181.787 335.642 180.905 335.642 179.816V171.441C335.642 170.353 334.759 169.471 333.669 169.471Z" fill="#DDE3E9"/>
<path d="M333.669 201.985H320.845C319.755 201.985 318.872 202.868 318.872 203.956V212.331C318.872 213.419 319.755 214.301 320.845 214.301H333.669C334.759 214.301 335.642 213.419 335.642 212.331V203.956C335.642 202.868 334.759 201.985 333.669 201.985Z" fill="#DDE3E9"/>
<path d="M333.669 185.728H320.845C319.755 185.728 318.872 186.61 318.872 187.698V196.073C318.872 197.162 319.755 198.044 320.845 198.044H333.669C334.759 198.044 335.642 197.162 335.642 196.073V187.698C335.642 186.61 334.759 185.728 333.669 185.728Z" fill="#C5CFD6"/>
<path d="M304.074 84.2426H197.041C195.951 84.2426 195.068 85.1249 195.068 86.2132V105.426C195.068 106.515 195.951 107.397 197.041 107.397H304.074C305.164 107.397 306.047 106.515 306.047 105.426V86.2132C306.047 85.1249 305.164 84.2426 304.074 84.2426Z" fill="white"/>
<path d="M280.399 91.189H200.987C200.169 91.189 199.507 91.8507 199.507 92.6669V93.1842C199.507 94.0004 200.169 94.6621 200.987 94.6621H280.399C281.216 94.6621 281.878 94.0004 281.878 93.1842V92.6669C281.878 91.8507 281.216 91.189 280.399 91.189Z" fill="#DDE3E9"/>
<path d="M253.318 96.9776H200.987C200.169 96.9776 199.507 97.6393 199.507 98.4555V98.9728C199.507 99.789 200.169 100.451 200.987 100.451H253.318C254.135 100.451 254.797 99.789 254.797 98.9728V98.4555C254.797 97.6393 254.135 96.9776 253.318 96.9776Z" fill="#DDE3E9"/>
<path fill-rule="evenodd" clip-rule="evenodd" d="M294.187 99.2684C296.094 99.2684 297.639 97.7244 297.639 95.8199C297.639 93.9153 296.094 92.3713 294.187 92.3713C292.28 92.3713 290.734 93.9153 290.734 95.8199C290.734 97.7244 292.28 99.2684 294.187 99.2684Z" fill="#DDE3E9"/>
<path fill-rule="evenodd" clip-rule="evenodd" d="M294.187 97.2978C295.004 97.2978 295.666 96.6362 295.666 95.8199C295.666 95.0035 295.004 94.3419 294.187 94.3419C293.369 94.3419 292.707 95.0035 292.707 95.8199C292.707 96.6362 293.369 97.2978 294.187 97.2978Z" fill="#F2F2F2"/>
<path d="M304.074 111.338H197.041C195.951 111.338 195.068 112.221 195.068 113.309V128.581C195.068 129.669 195.951 130.551 197.041 130.551H304.074C305.164 130.551 306.047 129.669 306.047 128.581V113.309C306.047 112.221 305.164 111.338 304.074 111.338Z" fill="white"/>
<path d="M280.436 117.102H200.95C200.153 117.102 199.507 117.747 199.507 118.543C199.507 119.339 200.153 119.984 200.95 119.984H280.436C281.232 119.984 281.878 119.339 281.878 118.543C281.878 117.747 281.232 117.102 280.436 117.102Z" fill="#DDE3E9"/>
<path d="M253.355 121.906H200.95C200.153 121.906 199.507 122.551 199.507 123.347C199.507 124.142 200.153 124.788 200.95 124.788H253.355C254.151 124.788 254.797 124.142 254.797 123.347C254.797 122.551 254.151 121.906 253.355 121.906Z" fill="#DDE3E9"/>
<path fill-rule="evenodd" clip-rule="evenodd" d="M294.187 124.393C296.094 124.393 297.639 122.849 297.639 120.945C297.639 119.04 296.094 117.496 294.187 117.496C292.28 117.496 290.734 119.04 290.734 120.945C290.734 122.849 292.28 124.393 294.187 124.393Z" fill="#DDE3E9"/>
<path fill-rule="evenodd" clip-rule="evenodd" d="M294.187 122.423C295.004 122.423 295.666 121.761 295.666 120.945C295.666 120.129 295.004 119.467 294.187 119.467C293.369 119.467 292.707 120.129 292.707 120.945C292.707 121.761 293.369 122.423 294.187 122.423Z" fill="#F2F2F2"/>
<path d="M304.074 134.493H197.041C195.951 134.493 195.068 135.375 195.068 136.463V151.735C195.068 152.824 195.951 153.706 197.041 153.706H304.074C305.164 153.706 306.047 152.824 306.047 151.735V136.463C306.047 135.375 305.164 134.493 304.074 134.493Z" fill="white"/>
<path d="M280.436 140.257H200.95C200.153 140.257 199.507 140.902 199.507 141.698C199.507 142.493 200.153 143.139 200.95 143.139H280.436C281.232 143.139 281.878 142.493 281.878 141.698C281.878 140.902 281.232 140.257 280.436 140.257Z" fill="#DDE3E9"/>
<path d="M253.355 145.06H200.95C200.153 145.06 199.507 145.705 199.507 146.501C199.507 147.297 200.153 147.942 200.95 147.942H253.355C254.151 147.942 254.797 147.297 254.797 146.501C254.797 145.705 254.151 145.06 253.355 145.06Z" fill="#DDE3E9"/>
<path fill-rule="evenodd" clip-rule="evenodd" d="M294.187 147.548C296.094 147.548 297.639 146.004 297.639 144.099C297.639 142.195 296.094 140.651 294.187 140.651C292.28 140.651 290.734 142.195 290.734 144.099C290.734 146.004 292.28 147.548 294.187 147.548Z" fill="#DDE3E9"/>
<path fill-rule="evenodd" clip-rule="evenodd" d="M294.187 145.577C295.004 145.577 295.666 144.916 295.666 144.099C295.666 143.283 295.004 142.621 294.187 142.621C293.369 142.621 292.707 143.283 292.707 144.099C292.707 144.916 293.369 145.577 294.187 145.577Z" fill="#AFB9C5"/>
<path d="M304.074 203.956H197.041C195.951 203.956 195.068 204.838 195.068 205.926V221.199C195.068 222.287 195.951 223.169 197.041 223.169H304.074C305.164 223.169 306.047 222.287 306.047 221.199V205.926C306.047 204.838 305.164 203.956 304.074 203.956Z" fill="white"/>
<path d="M280.436 209.72H200.95C200.153 209.72 199.507 210.365 199.507 211.161C199.507 211.957 200.153 212.602 200.95 212.602H280.436C281.232 212.602 281.878 211.957 281.878 211.161C281.878 210.365 281.232 209.72 280.436 209.72Z" fill="#DDE3E9"/>
<path d="M253.355 214.523H200.95C200.153 214.523 199.507 215.168 199.507 215.964C199.507 216.76 200.153 217.405 200.95 217.405H253.355C254.151 217.405 254.797 216.76 254.797 215.964C254.797 215.168 254.151 214.523 253.355 214.523Z" fill="#DDE3E9"/>
<path fill-rule="evenodd" clip-rule="evenodd" d="M294.187 217.011C296.094 217.011 297.639 215.467 297.639 213.562C297.639 211.658 296.094 210.114 294.187 210.114C292.28 210.114 290.734 211.658 290.734 213.562C290.734 215.467 292.28 217.011 294.187 217.011Z" fill="#DDE3E9"/>
<path fill-rule="evenodd" clip-rule="evenodd" d="M294.187 215.04C295.004 215.04 295.666 214.379 295.666 213.563C295.666 212.746 295.004 212.085 294.187 212.085C293.369 212.085 292.707 212.746 292.707 213.563C292.707 214.379 293.369 215.04 294.187 215.04Z" fill="#F2F2F2"/>
<path d="M304.074 180.801H197.041C195.951 180.801 195.068 181.684 195.068 182.772V198.044C195.068 199.132 195.951 200.015 197.041 200.015H304.074C305.164 200.015 306.047 199.132 306.047 198.044V182.772C306.047 181.684 305.164 180.801 304.074 180.801Z" fill="white"/>
<path d="M280.436 186.565H200.95C200.153 186.565 199.507 187.211 199.507 188.006C199.507 188.802 200.153 189.447 200.95 189.447H280.436C281.232 189.447 281.878 188.802 281.878 188.006C281.878 187.211 281.232 186.565 280.436 186.565Z" fill="#DDE3E9"/>
<path d="M253.355 191.369H200.95C200.153 191.369 199.507 192.014 199.507 192.81C199.507 193.606 200.153 194.251 200.95 194.251H253.355C254.151 194.251 254.797 193.606 254.797 192.81C254.797 192.014 254.151 191.369 253.355 191.369Z" fill="#DDE3E9"/>
<path fill-rule="evenodd" clip-rule="evenodd" d="M294.187 193.857C296.094 193.857 297.639 192.313 297.639 190.408C297.639 188.503 296.094 186.96 294.187 186.96C292.28 186.96 290.734 188.503 290.734 190.408C290.734 192.313 292.28 193.857 294.187 193.857Z" fill="#DDE3E9"/>
<path fill-rule="evenodd" clip-rule="evenodd" d="M294.187 191.886C295.004 191.886 295.666 191.224 295.666 190.408C295.666 189.592 295.004 188.93 294.187 188.93C293.369 188.93 292.707 189.592 292.707 190.408C292.707 191.224 293.369 191.886 294.187 191.886Z" fill="#F2F2F2"/>
<path d="M304.074 157.647H197.041C195.951 157.647 195.068 158.529 195.068 159.618V174.89C195.068 175.978 195.951 176.86 197.041 176.86H304.074C305.164 176.86 306.047 175.978 306.047 174.89V159.618C306.047 158.529 305.164 157.647 304.074 157.647Z" fill="white"/>
<path d="M280.436 163.411H200.95C200.153 163.411 199.507 164.056 199.507 164.852C199.507 165.648 200.153 166.293 200.95 166.293H280.436C281.232 166.293 281.878 165.648 281.878 164.852C281.878 164.056 281.232 163.411 280.436 163.411Z" fill="#DDE3E9"/>
<path d="M253.355 168.214H200.95C200.153 168.214 199.507 168.86 199.507 169.655C199.507 170.451 200.153 171.096 200.95 171.096H253.355C254.151 171.096 254.797 170.451 254.797 169.655C254.797 168.86 254.151 168.214 253.355 168.214Z" fill="#DDE3E9"/>
<path fill-rule="evenodd" clip-rule="evenodd" d="M294.187 170.702C296.094 170.702 297.639 169.158 297.639 167.254C297.639 165.349 296.094 163.805 294.187 163.805C292.28 163.805 290.734 165.349 290.734 167.254C290.734 169.158 292.28 170.702 294.187 170.702Z" fill="#DDE3E9"/>
<path fill-rule="evenodd" clip-rule="evenodd" d="M294.187 168.732C295.004 168.732 295.666 168.07 295.666 167.254C295.666 166.437 295.004 165.776 294.187 165.776C293.369 165.776 292.707 166.437 292.707 167.254C292.707 168.07 293.369 168.732 294.187 168.732Z" fill="#F2F2F2"/>
<path d="M313.446 42.8603C313.446 42.044 312.783 41.3823 311.966 41.3823C311.149 41.3823 310.486 42.044 310.486 42.8603V52.2206C310.486 53.0368 311.149 53.6985 311.966 53.6985C312.783 53.6985 313.446 53.0368 313.446 52.2206V42.8603Z" fill="#DDE3E9"/>
<path d="M320.351 34.9779C320.351 34.1617 319.689 33.5 318.872 33.5C318.054 33.5 317.392 34.1617 317.392 34.9779V52.2206C317.392 53.0368 318.054 53.6985 318.872 53.6985C319.689 53.6985 320.351 53.0368 320.351 52.2206V34.9779Z" fill="#DDE3E9"/>
<path d="M327.257 31.0368C327.257 30.2205 326.594 29.5588 325.777 29.5588C324.96 29.5588 324.297 30.2205 324.297 31.0368V52.2206C324.297 53.0368 324.96 53.6985 325.777 53.6985C326.594 53.6985 327.257 53.0368 327.257 52.2206V31.0368Z" fill="#DDE3E9"/>
<path d="M334.162 34.9779C334.162 34.1617 333.5 33.5 332.682 33.5C331.865 33.5 331.203 34.1617 331.203 34.9779V52.2206C331.203 53.0368 331.865 53.6985 332.682 53.6985C333.5 53.6985 334.162 53.0368 334.162 52.2206V34.9779Z" fill="#DDE3E9"/>
<path d="M341.068 27.0956C341.068 26.2793 340.405 25.6176 339.588 25.6176C338.771 25.6176 338.108 26.2793 338.108 27.0956V52.2206C338.108 53.0368 338.771 53.6985 339.588 53.6985C340.405 53.6985 341.068 53.0368 341.068 52.2206V27.0956Z" fill="#C5CFD6"/>
<path fill-rule="evenodd" clip-rule="evenodd" d="M67.8108 176.494C67.8108 171.006 72.251 166.515 77.6757 166.515V176.494L70.934 183.757C69.0163 181.981 67.8108 179.376 67.8108 176.494Z" fill="#F2F2F2"/>
<path fill-rule="evenodd" clip-rule="evenodd" d="M77.4146 176.368H87.3768C87.3768 178.94 86.3263 181.35 84.6656 183.101C82.839 185.017 80.2379 186.221 77.4146 186.221C74.814 186.221 72.4335 185.182 70.6065 183.539L77.4146 176.368Z" fill="#AFB9C5"/>
<path fill-rule="evenodd" clip-rule="evenodd" d="M87.5406 176.368C87.5406 170.95 83.1004 166.515 77.6757 166.515V176.368H87.5406ZM72.7433 166.515L76.6892 175.382L67.8108 171.441C68.6888 169.142 70.6603 167.392 72.7433 166.515Z" fill="#C5CFD6"/>
<path fill-rule="evenodd" clip-rule="evenodd" d="M388.797 180.89C387.849 181.895 386.507 182.526 385.013 182.526C382.144 182.526 379.818 180.21 379.818 177.353C379.818 174.496 382.144 172.18 385.013 172.18V162.574C376.85 162.574 370.169 169.226 370.169 177.353C370.169 185.48 376.85 192.132 385.013 192.132C389.301 192.132 393.176 190.326 395.818 187.453L388.797 180.89Z" fill="#F2F2F2"/>
<path fill-rule="evenodd" clip-rule="evenodd" d="M384.966 162.574V172.18C387.827 172.18 390.145 174.496 390.145 177.353H399.763C399.763 169.226 393.103 162.574 384.966 162.574Z" fill="#AFB9C5"/>
<path fill-rule="evenodd" clip-rule="evenodd" d="M389.946 177.353C389.946 179.031 389.155 180.523 387.926 181.487L393.974 189.176C397.494 186.424 399.764 182.156 399.764 177.353H389.946Z" fill="#C5CFD6"/>
<path fill-rule="evenodd" clip-rule="evenodd" d="M294.728 45.0791C293.999 45.8496 292.966 46.3334 291.817 46.3334C289.61 46.3334 287.821 44.5579 287.821 42.3676C287.821 40.1774 289.61 38.4018 291.817 38.4018V31.0367C285.538 31.0367 280.399 36.1368 280.399 42.3676C280.399 48.5985 285.538 53.6985 291.817 53.6985C295.116 53.6985 298.096 52.3137 300.128 50.111L294.728 45.0791Z" fill="#F2F2F2"/>
<path fill-rule="evenodd" clip-rule="evenodd" d="M291.743 31.0367V38.4018C293.936 38.4018 295.714 40.1774 295.714 42.3676H303.088C303.088 36.1368 297.982 31.0367 291.743 31.0367Z" fill="#AFB9C5"/>
<path fill-rule="evenodd" clip-rule="evenodd" d="M295.725 42.3677C295.725 43.6265 295.131 44.7455 294.209 45.468L298.745 51.2353C301.386 49.1705 303.088 45.9699 303.088 42.3677H295.725Z" fill="#C5CFD6"/>
<path fill-rule="evenodd" clip-rule="evenodd" d="M115.166 53.6917C115.164 53.6968 115.162 53.7018 115.159 53.7079C115.162 53.7028 115.166 53.6826 115.166 53.6917Z" fill="#C5CFD6"/>
<path fill-rule="evenodd" clip-rule="evenodd" d="M115.161 53.6994C115.161 53.7005 115.16 53.7026 115.16 53.7047C115.16 53.6994 115.17 53.6837 115.161 53.6994Z" fill="#C5CFD6"/>
<path fill-rule="evenodd" clip-rule="evenodd" d="M115.195 53.6158C115.188 53.6354 115.179 53.6541 115.171 53.6738C115.175 53.664 115.179 53.6561 115.183 53.6463C115.081 53.9019 115.146 53.7357 115.195 53.6158Z" fill="#C5CFD6"/>
<path fill-rule="evenodd" clip-rule="evenodd" d="M115.173 53.6754C115.169 53.6842 115.165 53.6941 115.161 53.7029C115.133 53.7581 115.173 53.6754 115.173 53.6754Z" fill="#C5CFD6"/>
<path fill-rule="evenodd" clip-rule="evenodd" d="M115.162 53.7004C115.162 53.699 115.162 53.699 115.163 53.6975C115.162 53.699 115.162 53.699 115.162 53.7004Z" fill="#C5CFD6"/>
<path fill-rule="evenodd" clip-rule="evenodd" d="M115.157 53.7069C115.151 53.719 115.186 53.6604 115.157 53.7069V53.7069Z" fill="#C5CFD6"/>
<path fill-rule="evenodd" clip-rule="evenodd" d="M115.161 53.7004L115.164 53.6975C115.163 53.699 115.163 53.7004 115.161 53.7004Z" fill="#C5CFD6"/>
<path d="M136.372 28.0809H93.4595C92.3698 28.0809 91.4865 28.9631 91.4865 30.0515V57.147C91.4865 58.2354 92.3698 59.1176 93.4595 59.1176H136.372C137.461 59.1176 138.345 58.2354 138.345 57.147V30.0515C138.345 28.9631 137.461 28.0809 136.372 28.0809Z" fill="#DDE3E9"/>
<path fill-rule="evenodd" clip-rule="evenodd" d="M109.243 36.9485L95.4324 59.1177H123.054L109.243 36.9485Z" fill="#AFB9C5"/>
<path fill-rule="evenodd" clip-rule="evenodd" d="M122.807 42.8603L110.723 59.1176H134.892L122.807 42.8603Z" fill="#C5CFD6"/>
<path fill-rule="evenodd" clip-rule="evenodd" d="M127.986 42.8603C130.438 42.8603 132.426 40.8752 132.426 38.4265C132.426 35.9777 130.438 33.9927 127.986 33.9927C125.535 33.9927 123.547 35.9777 123.547 38.4265C123.547 40.8752 125.535 42.8603 127.986 42.8603Z" fill="white"/>
<path fill-rule="evenodd" clip-rule="evenodd" d="M350.436 264.052C350.438 264.057 350.44 264.062 350.443 264.068C350.44 264.063 350.436 264.043 350.436 264.052Z" fill="#C5CFD6"/>
<path fill-rule="evenodd" clip-rule="evenodd" d="M350.44 264.06C350.44 264.061 350.441 264.063 350.441 264.065C350.441 264.06 350.432 264.044 350.44 264.06Z" fill="#C5CFD6"/>
<path fill-rule="evenodd" clip-rule="evenodd" d="M350.406 263.976C350.413 263.996 350.422 264.014 350.43 264.034C350.426 264.024 350.422 264.016 350.418 264.007C350.52 264.262 350.455 264.096 350.406 263.976Z" fill="#C5CFD6"/>
<path fill-rule="evenodd" clip-rule="evenodd" d="M350.428 264.036C350.432 264.045 350.436 264.054 350.44 264.063C350.469 264.118 350.428 264.036 350.428 264.036Z" fill="#C5CFD6"/>
<path fill-rule="evenodd" clip-rule="evenodd" d="M350.44 264.061C350.44 264.059 350.44 264.059 350.439 264.058C350.44 264.059 350.44 264.059 350.44 264.061Z" fill="#C5CFD6"/>
<path fill-rule="evenodd" clip-rule="evenodd" d="M350.444 264.067C350.45 264.079 350.416 264.021 350.444 264.067V264.067Z" fill="#C5CFD6"/>
<path fill-rule="evenodd" clip-rule="evenodd" d="M350.441 264.061L350.438 264.058C350.44 264.059 350.44 264.061 350.441 264.061Z" fill="#C5CFD6"/>
<path d="M317.392 226.125H383.486C384.576 226.125 385.459 227.007 385.459 228.096V270.463C385.459 271.552 384.576 272.434 383.486 272.434H317.392C316.302 272.434 315.419 271.552 315.419 270.463V228.096C315.419 227.007 316.302 226.125 317.392 226.125Z" fill="#DDE3E9"/>
<path fill-rule="evenodd" clip-rule="evenodd" d="M359.453 239.427L379.703 272.434H339.203L359.453 239.427Z" fill="#AFB9C5"/>
<path fill-rule="evenodd" clip-rule="evenodd" d="M338.574 248.268L356.476 272.434H320.671L338.574 248.268Z" fill="#C5CFD6"/>
<path fill-rule="evenodd" clip-rule="evenodd" d="M330.956 248.294C327.278 248.294 324.297 245.317 324.297 241.643C324.297 237.97 327.278 234.993 330.956 234.993C334.634 234.993 337.615 237.97 337.615 241.643C337.615 245.317 334.634 248.294 330.956 248.294Z" fill="white"/>
<path fill-rule="evenodd" clip-rule="evenodd" d="M57.5167 287.862C48.6801 287.862 41.5167 295.025 41.5167 303.862V368.883C41.5167 377.719 48.6801 384.883 57.5167 384.883H140.667C149.503 384.883 156.667 377.719 156.667 368.883V303.862C156.667 295.025 149.503 287.862 140.667 287.862H57.5167ZM67.45 309.77C65.2409 309.77 63.45 311.561 63.45 313.77V358.975C63.45 361.184 65.2408 362.975 67.45 362.975H130.733C132.942 362.975 134.733 361.184 134.733 358.975V313.77C134.733 311.561 132.942 309.77 130.733 309.77H67.45Z" fill="#C5CFD6"/>
<path fill-rule="evenodd" clip-rule="evenodd" d="M234.341 380.971C218.897 362.133 208.447 348.168 202.992 339.075C193.65 323.505 186.005 309.651 183.592 304.359C177.839 291.739 196.837 285.83 201.137 291.716C207.645 300.625 221.544 328.66 242.833 375.82L234.341 380.971Z" fill="#B28B67"/>
<path fill-rule="evenodd" clip-rule="evenodd" d="M202.693 375.494L173.951 303.226C167.804 290.052 197.491 281.393 202.009 287.524C212.266 301.443 236.644 356.351 239.7 360.498L202.693 375.494Z" fill="#2F3676"/>
<path fill-rule="evenodd" clip-rule="evenodd" d="M126.143 361.004C131.742 352.846 152.109 325.4 163.201 314.043C166.389 310.78 169.499 307.648 172.441 304.729C181.185 296.053 198.593 310.632 189.866 318.534C168.13 338.214 136.417 364.781 133.767 367.15C130.054 370.47 122.623 366.13 126.143 361.004Z" fill="#B28B67"/>
<path fill-rule="evenodd" clip-rule="evenodd" d="M130.051 358.021C129.346 357.087 128.004 356.862 127.115 357.624C125.871 358.69 124.292 360.156 123.688 361.202C122.628 363.035 121.207 366.904 121.207 366.904C123.336 368.131 159.47 388.969 159.47 388.969C159.47 388.969 163.808 384.904 160.821 382.658C157.835 380.412 155.893 378.87 155.893 378.87L142.817 360.876C142.486 360.42 141.844 360.328 141.397 360.671L138.83 362.646C138.83 362.646 135.054 362.317 133.194 361.244C132.173 360.655 130.949 359.207 130.051 358.021Z" fill="#E4E4E4"/>
<path fill-rule="evenodd" clip-rule="evenodd" d="M230.301 377.467C229.223 377.011 227.949 377.486 227.56 378.59C227.017 380.134 226.383 382.193 226.383 383.401C226.383 385.517 227.089 389.577 227.089 389.577C229.547 389.577 271.271 389.577 271.271 389.577C271.271 389.577 272.993 383.891 269.282 383.437C265.572 382.984 263.118 382.618 263.118 382.618L242.786 373.565C242.271 373.336 241.669 373.576 241.454 374.097L240.219 377.089C240.219 377.089 236.785 378.69 234.637 378.69C233.458 378.69 231.672 378.047 230.301 377.467Z" fill="#E4E4E4"/>
<path fill-rule="evenodd" clip-rule="evenodd" d="M163.609 306.836C163.609 306.836 127.775 301.005 115.605 298.861C92.4784 294.788 85.7345 282.358 89.7218 255.236L132.332 255.236C140.79 257.676 203.015 285.414 203.015 285.414C210.478 289.115 209.088 300.027 207.724 303.622C207.641 303.842 169.977 368.227 169.977 368.227L135.12 346.047L163.674 309.449C163.674 309.449 164.805 307.174 163.609 306.836Z" fill="#5C63AB"/>
<path fill-rule="evenodd" clip-rule="evenodd" d="M111.075 155.75C116.045 158.745 120.928 160.193 123.22 159.602C128.968 158.12 129.497 137.092 125.049 128.803C120.602 120.513 97.7378 116.9 96.5854 133.324C96.1854 139.025 98.579 144.112 102.116 148.263L95.7743 177.819H114.194L111.075 155.75Z" fill="#B28B67"/>
<path fill-rule="evenodd" clip-rule="evenodd" d="M100.7 151.961C98.3883 141.675 91.8022 134.664 92.808 130.067C93.8139 125.47 98.1699 124.35 98.1699 124.35C98.1699 124.35 100.423 115.236 112.702 116.597C124.981 117.958 132.475 123.057 129.239 134.278C126.264 134.278 122.672 133.202 117.706 135.045C115.342 135.923 114.325 140.487 114.325 140.487H112.08C112.08 140.487 108.813 135.07 105.637 136.506C102.461 137.942 104.193 143.481 104.193 143.481L103.088 151.961H100.7Z" fill="#37231F"/>
<path fill-rule="evenodd" clip-rule="evenodd" d="M184.312 160.906L155.221 169.639L162.649 182.012L185.268 168.7C195.826 168.072 200.815 167.03 200.234 165.576C199.744 164.35 198.578 164.142 197.504 163.949C196.668 163.799 195.887 163.659 195.525 163.057C194.698 161.68 197.595 158.096 200.49 154.812C203.384 151.529 201.068 151.376 199.669 151.639C194.858 153.592 189.739 156.681 184.312 160.906ZM177.133 238.906L152.651 220.928L147.239 234.306L171.482 244.359C178.339 252.413 182.173 255.771 182.984 254.432C183.668 253.303 183.134 252.246 182.641 251.273C182.257 250.514 181.899 249.806 182.163 249.155C182.765 247.666 187.371 247.823 191.735 248.158C196.099 248.494 194.827 246.552 193.775 245.593C189.32 242.926 183.773 240.697 177.133 238.906Z" fill="#B28B67"/>
<path fill-rule="evenodd" clip-rule="evenodd" d="M114.624 172.514C127.956 197.372 147.235 216.428 175.184 236.238L164.601 248.17C133.395 236.573 116.926 229.576 108.838 206.09C106.808 200.195 105.389 181.404 104.172 171.517L114.624 172.514Z" fill="#4773CA"/>
<path fill-rule="evenodd" clip-rule="evenodd" d="M77.3544 255.336H136.451C136.451 255.336 116.372 194.096 115.937 171.274C115.922 170.498 114.489 169.131 113.855 169.31C106.903 171.274 98.9761 167.842 98.9761 167.842C84.966 190.374 80.1211 218.116 77.3544 255.336Z" fill="#F2F2F2"/>
<path fill-rule="evenodd" clip-rule="evenodd" d="M113.8 202.219C123.03 241.811 122.604 274.221 102.227 274.221H70.7164C65.7118 240.588 78.8649 193.955 91.0587 170.433C91.5244 169.535 92.5158 167.842 94.851 167.842H104.007C104.011 167.854 104.015 167.866 104.019 167.878C106.774 167.901 109.809 168.002 113.095 168.111C130.011 168.672 153.598 169.455 180.139 160.935L183.269 176.571C159.313 191.978 135.055 203.913 113.8 202.219Z" fill="#87AEFB"/>
</svg>
